<svg width="680" height="396" viewBox="0 0 680 396" fill="none" xmlns="http://www.w3.org/2000/svg">
<mask id="mask0_18_694" style="mask-type:alpha" maskUnits="userSpaceOnUse" x="0" y="0" width="680" height="396">
<path d="M0 0H680V396H0V0Z" fill="#655BD2"/>
</mask>
<g mask="url(#mask0_18_694)">
<path d="M0 0H680V396H0V0Z" fill="#430DDE"/>
<path fill-rule="evenodd" clip-rule="evenodd" d="M-21 -182H687V438H-21V-182ZM-19.8937 -180.893H66.3938V-94.5357H-19.8937V-180.893ZM68.6063 -180.893H154.894V-94.5357H68.6063V-180.893ZM243.394 -180.893H157.106V-94.5357H243.394V-180.893ZM245.606 -180.893H331.894V-94.5357H245.606V-180.893ZM420.394 -180.893H334.106V-94.5357H420.394V-180.893ZM422.606 -180.893H508.894V-94.5357H422.606V-180.893ZM597.394 -180.893H511.106V-94.5357H597.394V-180.893ZM599.606 -180.893H685.894V-94.5357H599.606V-180.893ZM66.3938 -92.3214H-19.8937V-5.96429H66.3938V-92.3214ZM68.6063 -92.3214H154.894V-5.96429H68.6063V-92.3214ZM243.394 -92.3214H157.106V-5.96429H243.394V-92.3214ZM245.606 -92.3214H331.894V-5.96429H245.606V-92.3214ZM420.394 -92.3214H334.106V-5.96429H420.394V-92.3214ZM422.606 -92.3214H508.894V-5.96429H422.606V-92.3214ZM597.394 -92.3214H511.106V-5.96429H597.394V-92.3214ZM599.606 -92.3214H685.894V-5.96429H599.606V-92.3214ZM66.3938 -3.75002H-19.8937V82.6071H66.3938V-3.75002ZM68.6063 -3.75002H154.894V82.6071H68.6063V-3.75002ZM243.394 -3.75002H157.106V82.6071H243.394V-3.75002ZM245.606 -3.75002H331.894V82.6071H245.606V-3.75002ZM420.394 -3.75002H334.106V82.6071H420.394V-3.75002ZM422.606 -3.75002H508.894V82.6071H422.606V-3.75002ZM597.394 -3.75002H511.106V82.6071H597.394V-3.75002ZM599.606 -3.75002H685.894V82.6071H599.606V-3.75002ZM66.3938 84.8214H-19.8937V171.179H66.3938V84.8214ZM68.6063 84.8214H154.894V171.179H68.6063V84.8214ZM243.394 84.8214H157.106V171.179H243.394V84.8214ZM245.606 84.8214H331.894V171.179H245.606V84.8214ZM420.394 84.8214H334.106V171.179H420.394V84.8214ZM422.606 84.8214H508.894V171.179H422.606V84.8214ZM597.394 84.8214H511.106V171.179H597.394V84.8214ZM599.606 84.8214H685.894V171.179H599.606V84.8214ZM66.3938 173.393H-19.8937V259.75H66.3938V173.393ZM68.6063 173.393H154.894V259.75H68.6063V173.393ZM243.394 173.393H157.106V259.75H243.394V173.393ZM245.606 173.393H331.894V259.75H245.606V173.393ZM420.394 173.393H334.106V259.75H420.394V173.393ZM422.606 173.393H508.894V259.75H422.606V173.393ZM597.394 173.393H511.106V259.75H597.394V173.393ZM599.606 173.393H685.894V259.75H599.606V173.393ZM66.3938 261.964H-19.8937V348.321H66.3938V261.964ZM68.6063 261.964H154.894V348.321H68.6063V261.964ZM243.394 261.964H157.106V348.321H243.394V261.964ZM245.606 261.964H331.894V348.321H245.606V261.964ZM420.394 261.964H334.106V348.321H420.394V261.964ZM422.606 261.964H508.894V348.321H422.606V261.964ZM597.394 261.964H511.106V348.321H597.394V261.964ZM599.606 261.964H685.894V348.321H599.606V261.964ZM66.3938 350.536H-19.8937V436.893H66.3938V350.536ZM68.6063 350.536H154.894V436.893H68.6063V350.536ZM243.394 350.536H157.106V436.893H243.394V350.536ZM245.606 350.536H331.894V436.893H245.606V350.536ZM420.394 350.536H334.106V436.893H420.394V350.536ZM422.606 350.536H508.894V436.893H422.606V350.536ZM597.394 350.536H511.106V436.893H597.394V350.536ZM599.606 350.536H685.894V436.893H599.606V350.536Z" fill="white" fill-opacity="0.35"/>
<path d="M203.452 305.401C203.452 305.401 226.43 516.284 90.463 601.34L38.1046 577.06C38.1046 577.06 103.96 466.777 105.56 438.664C107.16 410.551 106.865 321.595 137.358 287.51L203.452 305.401Z" fill="#11337A"/>
<path d="M137.358 287.51L203.408 305.408C203.408 305.408 213.614 399.25 180.064 486.987C137.955 428.537 118.175 326.691 118.175 326.691C122.654 310.999 128.788 297.094 137.358 287.51Z" fill="#030406"/>
<path d="M259.349 99.4783L247.695 101.476C245.582 101.838 243.699 103.025 242.46 104.776C241.222 106.527 240.73 108.698 241.092 110.812L246.15 140.319C246.512 142.433 247.699 144.316 249.45 145.555C251.2 146.794 253.371 147.286 255.484 146.924L267.139 144.926L259.349 99.4783Z" fill="#EC5D1D"/>
<path d="M289.493 129.59L365.594 114.343C367.41 113.984 369.014 112.93 370.064 111.405C371.114 109.88 371.526 108.005 371.213 106.18L370.326 101.007C370.014 99.1817 369.001 97.5509 367.503 96.4624C366.005 95.374 364.142 94.9142 362.31 95.1812L285.475 106.145L289.493 129.59Z" fill="#EF8621"/>
<path d="M267.799 98.0302L304.423 91.7531C321.278 88.8643 330.343 83.3958 344.269 73.4792L356.302 64.9372L370 144.861L356.143 140.921C339.787 136.225 329.494 134.179 312.785 137.043L275.636 143.41L267.799 98.0302Z" fill="#FCFFFF"/>
<path d="M267.799 98.0302L299.135 92.6595L306.914 138.049L275.578 143.42L267.799 98.0302Z" fill="#030406"/>
<path d="M253.875 97.8968L293.573 91.0929L302.144 141.102L262.446 147.906L253.875 97.8968Z" fill="#EF8621"/>
<path d="M292.533 182.932L300.618 181.547C301.703 181.362 302.73 180.926 303.617 180.275C304.505 179.623 305.228 178.774 305.73 177.794C306.231 176.814 306.497 175.73 306.507 174.629C306.517 173.528 306.27 172.44 305.786 171.451L291.742 142.884L271.522 146.35L284.768 178.578C285.367 180.085 286.465 181.339 287.879 182.132C289.292 182.925 290.935 183.207 292.533 182.932Z" fill="#EF8621"/>
<path d="M294.997 149.451L274.281 153.002L271.548 146.331L291.769 142.865L294.997 149.451Z" fill="#EC5D1D"/>
<path d="M-13.319 421.481C-6.70058 417.873 -0.359882 413.778 5.65065 409.23L-16.1893 413.483C-16.1893 413.483 -10.9815 403.096 -3.92095 402.381C3.13954 401.665 0.125584 383.118 18.1192 377.859L22.3693 376.845C33.2035 294.292 79.5735 245.396 105.564 220.647C176.622 152.971 203.298 181.397 203.298 181.397C224.366 215.075 135.809 254.147 117.027 285.43C81.3897 344.801 44.4315 379.139 37.7477 385.114L38.2181 385.409C38.2181 385.409 26.1192 411.061 6.08691 422.099C-13.9454 433.137 -25.4591 439.281 -25.4591 439.281C-25.4591 439.281 -26.4497 428.951 -13.319 421.481Z" fill="#FCFFFF"/>
<path d="M65.9503 265.655C77.6511 249.398 90.9138 234.324 105.549 220.65C176.608 152.973 203.284 181.4 203.284 181.4C223.255 213.315 144.739 250.081 120.498 280.485L65.9503 265.655Z" fill="#030406"/>
<path d="M122.744 281.165L69.1167 253.068C69.1167 253.068 171.652 134.473 206.975 178.697C234.138 212.68 136.517 275.955 122.744 281.165Z" fill="#EC5D1D"/>
<path d="M453.576 77.334L408.342 85.0867L418.759 90.7411L391.094 99.2474L433.459 94.7014L426.372 87.7413L453.576 77.334Z" fill="#EF8621"/>
<path d="M425.995 36.8079L385.53 58.4726L397.194 60.5534L373.638 77.3702L412.396 59.6578L403.475 55.292L425.995 36.8079Z" fill="#EF8621"/>
<path d="M443.385 138.268L398.015 131.315L408.32 125.469L380.509 117.456L422.953 121.251L415.995 128.338L443.385 138.268Z" fill="#EF8621"/>
<path d="M184.674 64.7739C191.482 63.0221 201.283 60.0974 207.202 56.2181C214.547 52.1063 221.292 47.0034 227.246 41.0531C227.459 40.8084 227.685 40.5746 227.921 40.3525C234.1 34.4937 246.436 36.4742 247.398 52.1487C248.184 64.9584 240.478 74.3338 224.539 75.5658C224.539 75.5658 207.558 82.796 221.727 109.466C235.895 136.137 250.432 164.784 213.79 183.289C177.147 201.794 158.899 183.697 130.799 198.848C145.682 105.356 156.547 71.9796 184.674 64.7739Z" fill="#030406"/>
<path d="M202.613 163.395L209.822 151.3C209.822 151.3 179.226 130.715 164.835 129.957L161.766 146.172C161.766 146.172 136.659 185.784 146.332 221.49C156.006 257.195 156.218 262.543 156.218 262.543L137.358 287.51L203.409 305.408C203.409 305.408 246.886 245.234 246.25 222.889C245.615 200.543 216.743 185.558 202.613 163.395Z" fill="#EF8621"/>
<path d="M180.186 213.047L246.254 224.223C245.649 236.971 232.972 259.948 221.544 278.226C221.536 278.272 176.051 227.51 180.186 213.047Z" fill="#EC5D1D"/>
<path d="M203.452 305.401C203.452 305.401 372.813 422.798 412.697 534.937L346.069 553.481C346.069 553.481 280.178 484.978 235.181 463.486C190.183 441.995 82.864 347.803 137.358 287.51L203.452 305.401Z" fill="#0366B4"/>
<path d="M174.101 102.39C174.101 102.39 157.027 75.8272 176.09 62.1054C195.152 48.3837 223.752 59.3363 228.809 80.4436C233.866 101.551 243.389 99.274 243.389 99.274L237.353 105.708L237.84 131.034C237.882 132.82 237.275 134.562 236.132 135.935C234.988 137.308 233.386 138.221 231.622 138.504C228.716 138.773 225.786 138.389 223.047 137.379C207.073 132.197 184.545 117.654 174.101 102.39Z" fill="#FCFFFF"/>
<path d="M198.596 156.059L212.253 128.474L193.003 118.439C193.003 118.439 182.061 137.369 173.895 146.073L198.596 156.059Z" fill="#FCFFFF"/>
<path d="M58.4574 209.162C60.429 152.681 114.812 150.275 129.172 136.414C142.721 123.337 137.776 95.011 137.776 95.011C136.067 82.1496 138.075 67.1809 153.276 58.1409C180.943 41.6845 195.41 66.3388 227.552 40.7308C227.552 40.7308 209.36 64.6079 212.197 84.4008C213.189 91.2356 209.667 97.8989 204.324 102.249C200.548 105.169 197.4 108.82 195.067 112.986C207.443 127.709 213.518 150.202 187.653 175.334L187.552 175.441C185.432 178.075 183.106 180.535 180.595 182.798C162.625 203.593 165.244 217.738 152.896 242.114C139.135 269.266 56.4688 265.63 58.4574 209.162Z" fill="#0366B4"/>
<path d="M189.238 97.7854C189.657 105.213 194.517 115.195 198.87 114.959C203.223 114.723 206.441 108.561 206.035 101.206C205.629 93.8511 202.259 89.149 197.41 88.3301C193.103 87.6133 188.835 90.4448 189.238 97.7854Z" fill="#FCFFFF"/>
<path d="M229.949 198.039L303.993 241.746L282.438 186.942C281.039 183.377 279.216 179.993 277.007 176.864C272.276 170.175 264.036 157.968 264.346 154.615C264.783 149.905 271.289 141.14 271.289 141.14L309.075 137.094L308.909 142.687C308.886 143.62 308.527 144.513 307.899 145.202C307.27 145.891 306.414 146.33 305.488 146.438L299.742 147.123L305.057 165.621L311.926 166.244L311.921 168.66C311.922 169.785 311.607 170.889 311.013 171.844C310.419 172.8 309.568 173.57 308.558 174.066L306.03 175.324L300.566 176.606C310.17 186.794 386.105 269.011 376.699 310.551C370.856 336.392 251.648 269.167 204.39 241.403C199.113 238.305 195.147 233.387 193.237 227.573C191.327 221.759 191.603 215.447 194.014 209.822C195.415 206.526 197.505 203.567 200.143 201.145C202.78 198.722 205.905 196.892 209.308 195.776C212.711 194.66 216.313 194.285 219.873 194.675C223.433 195.065 226.869 196.212 229.949 198.039Z" fill="#FCFFFF"/>
<path d="M194.055 209.8C195.459 206.512 197.549 203.561 200.185 201.145C202.82 198.728 205.941 196.903 209.339 195.789C212.736 194.676 216.332 194.301 219.886 194.689C223.441 195.077 226.871 196.219 229.949 198.039L291.113 234.144L294.08 290.303C260.84 273.981 225.479 253.763 204.431 241.381C199.154 238.283 195.188 233.365 193.278 227.551C191.368 221.737 191.644 215.425 194.055 209.8Z" fill="#030406"/>
<path d="M231.3 190.082L290.915 229.843L281.743 298.822L205.582 251.593C205.582 251.593 167.855 229.56 179.123 195.56C190.391 161.56 231.3 190.082 231.3 190.082Z" fill="#EF8621"/>
</g>
</svg>
