<svg width="249" height="250" viewBox="0 0 249 250" fill="none" xmlns="http://www.w3.org/2000/svg">
<path d="M248.997 124.5C249.018 141.065 245.723 157.466 239.307 172.738C232.89 188.01 223.482 201.843 211.636 213.422L211.199 213.845C209.308 215.68 207.359 217.455 205.351 219.172C182.825 238.454 154.15 249.05 124.499 249.05C94.8476 249.05 66.1726 238.454 43.6467 219.172C41.6385 217.457 39.6891 215.681 37.7984 213.845L37.3615 213.422C25.5157 201.843 16.1074 188.01 9.69081 172.738C3.27425 157.466 -0.020706 141.065 9.79031e-05 124.5C9.79031e-05 55.7395 55.7396 0 124.497 0C193.255 0 248.997 55.7395 248.997 124.5Z" fill="#A5A5A5"/>
<path d="M211.199 213.845C209.308 215.68 207.359 217.455 205.351 219.172C182.825 238.454 154.15 249.05 124.499 249.05C94.8475 249.05 66.1725 238.454 43.6467 219.172C41.6384 217.457 39.689 215.681 37.7983 213.845C40.1559 206.539 44.2274 199.903 49.6728 194.492C55.1181 189.081 61.7792 185.051 69.0997 182.739L105.951 171.113V165.034C101.337 162.29 97.2069 159.153 93.8011 156.854C90.6727 154.738 88.0084 152.006 85.9708 148.826C83.9332 145.646 82.565 142.083 81.9498 138.357L79.9849 126.606C77.4246 126.61 74.9411 125.731 72.9533 124.118C70.9655 122.504 69.5951 120.254 69.0732 117.747C68.5513 115.241 68.9098 112.631 70.0883 110.358C71.2668 108.085 73.1931 106.288 75.5424 105.27C72.0757 97.1244 69.5641 88.605 68.0576 79.8818C67.0942 74.3266 66.5514 68.4674 68.1825 63.1103C69.8135 57.7532 74.1258 53.0528 79.2169 52.9606L79.8845 53.0067C83.095 47.9888 88.1183 44.6833 93.3886 42.7728C98.6589 40.8623 104.219 40.2109 109.734 39.5786C111.889 39.3289 114.054 39.0793 116.226 38.8622C126.237 37.8988 137.138 37.6627 147.375 40.5149C157.612 43.3671 167.506 49.761 172.719 59.9541C176.861 68.0414 177.699 77.7976 176.657 87.0274C175.968 93.1525 174.5 99.1148 172.779 105.001C175.25 105.884 177.33 107.611 178.65 109.879C179.971 112.146 180.448 114.807 179.997 117.392C179.546 119.977 178.196 122.319 176.186 124.005C174.175 125.691 171.634 126.612 169.01 126.606L167.042 138.362C166.427 142.088 165.06 145.65 163.023 148.83C160.987 152.011 158.323 154.743 155.196 156.86C151.788 159.158 147.663 162.287 143.044 165.039V171.113L179.892 182.747C187.213 185.057 193.875 189.085 199.321 194.495C204.767 199.905 208.84 206.54 211.199 213.845Z" fill="#E1E1E1"/>
</svg>
