<svg width="120" height="120" viewBox="0 0 120 120" fill="none" xmlns="http://www.w3.org/2000/svg">
<g clip-path="url(#clip0_626_626)">
<path d="M76.2863 6.13724C76.4684 6.13559 76.6504 6.13394 76.838 6.13223C84.3901 6.07916 84.3901 6.07916 87.8906 6.88798C88.2057 6.95782 88.2057 6.95782 88.5271 7.02908C99.3781 9.48311 109.367 15.473 115.449 24.9477C117.189 27.7392 118.402 30.6809 119.297 33.8411C119.417 34.2553 119.417 34.2553 119.54 34.6779C120.661 39.4226 120.393 45.1134 119.063 49.7786C119.02 49.9337 118.977 50.0887 118.933 50.2485C117.608 54.9564 115.212 59.2356 111.912 62.8338C110.46 64.4538 110.734 66.6268 110.817 68.6925C111.047 71.6433 112.41 74.2247 114.346 76.3948C115.227 77.4348 115.542 78.1169 115.501 79.4765C115.21 80.3044 114.845 80.6611 114.141 81.1849C113.418 81.3511 112.726 81.3403 111.987 81.3167C111.781 81.3128 111.574 81.3089 111.361 81.3049C105.738 81.1106 99.8306 78.8206 95.8686 74.7807C94.7751 74.1778 93.9719 74.5358 92.8125 74.8567C92.3876 74.954 91.9621 75.0492 91.5363 75.1424C91.3197 75.1914 91.1032 75.2405 90.8801 75.291C87.6289 76.0216 84.4439 76.6251 81.0938 76.4974C81.0877 76.6711 81.0817 76.8448 81.0755 77.0238C80.6 85.8518 75.7579 93.6063 69.3476 99.4324C62.413 105.525 52.9146 109.271 43.6688 109.366C43.4808 109.368 43.2928 109.37 43.0991 109.373C37.5511 109.426 32.2454 109.156 26.8897 107.549C26.0292 107.294 25.4613 107.134 24.6094 107.435C24.1126 107.815 23.6364 108.203 23.1592 108.607C20.1687 111.03 16.8139 112.497 13.125 113.529C12.7915 113.622 12.7915 113.622 12.4512 113.718C11.0276 114.041 9.56953 114.065 8.11525 114.1C7.91151 114.108 7.70776 114.116 7.49784 114.125C6.46472 114.131 6.00003 114.101 5.14528 113.473C4.5411 112.618 4.46276 112.146 4.51265 111.121C4.80097 110.067 5.50317 109.403 6.22103 108.603C8.67851 105.618 9.3724 102.051 9.18613 98.2902C9.04937 96.893 8.44111 96.0686 7.51467 95.0716C2.47708 89.358 -0.110026 81.8273 -0.0878716 74.2708C-0.0877442 74.1066 -0.0876167 73.9423 -0.0874854 73.7731C-0.0557623 64.85 3.87379 57.1821 10.091 50.9212C12.9011 48.1853 16.2107 45.953 19.6875 44.1536C19.8511 44.0688 20.0146 43.984 20.1832 43.8966C25.9088 40.9695 32.4235 38.8945 38.9063 38.9974C38.9123 38.8236 38.9184 38.6499 38.9246 38.4709C39.4 29.6429 44.2421 21.8884 50.6524 16.0624C57.5563 9.99638 67.0704 6.19348 76.2863 6.13724ZM52.7344 20.9505C52.5567 21.1115 52.3791 21.2725 52.1961 21.4385C47.613 25.7924 44.8527 31.6463 43.8281 37.8255C43.8225 38.2161 43.8214 38.6068 43.8281 38.9974C43.9657 39.0125 44.1032 39.0277 44.2449 39.0433C49.0652 39.5885 54.4183 40.262 58.7515 42.6194C60.8908 43.7456 62.7294 43.8847 65.0781 43.8623C65.4607 43.8638 65.8433 43.866 66.226 43.8687C67.2554 43.8743 68.2846 43.8715 69.314 43.867C70.3941 43.864 71.4741 43.869 72.5542 43.8733C74.5961 43.8801 76.6379 43.88 78.6797 43.8773C81.6816 43.8735 84.6835 43.8803 87.6854 43.887C88.1282 43.8879 88.5711 43.8889 89.0139 43.8899C89.3381 43.8906 89.3381 43.8906 89.6688 43.8913C90.9539 43.8939 92.2389 43.8946 93.5239 43.8935C94.3208 43.8929 95.1177 43.8931 95.9147 43.8935C96.2848 43.8935 96.6549 43.893 97.0249 43.8921C97.529 43.8909 98.033 43.8911 98.5371 43.8916C98.8194 43.8913 99.1017 43.891 99.3925 43.8907C100.078 43.9192 100.078 43.9192 100.781 44.1536C101.012 44.8446 101.047 45.3083 101.045 46.0286C101.046 46.2316 101.046 46.4347 101.047 46.6438C101.016 47.2005 101.016 47.2005 100.781 47.9036C100.059 48.1443 99.5583 48.1701 98.8013 48.1751C98.5361 48.1774 98.2708 48.1797 97.9976 48.182C97.7064 48.1834 97.4153 48.1847 97.1153 48.1861C96.6557 48.1896 96.6557 48.1896 96.1868 48.1931C95.3462 48.1995 94.5056 48.2044 93.665 48.2091C92.7867 48.2142 91.9083 48.2206 91.03 48.2269C89.3666 48.2386 87.7031 48.2491 86.0397 48.2592C84.146 48.2708 82.2523 48.2837 80.3587 48.2967C76.4631 48.3233 72.5675 48.3484 68.6719 48.3724C69.6003 49.3021 69.6003 49.3021 70.5423 50.2181C76.6342 56.1227 79.7981 63.254 81.0938 71.5755C82.5937 71.6041 84.0193 71.5137 85.503 71.2972C85.7141 71.2666 85.9252 71.2361 86.1427 71.2047C88.9713 70.7715 91.754 70.0901 94.4551 69.1449C95.2334 68.8989 95.7552 68.8506 96.5625 68.9974C97.0446 69.3294 97.4496 69.706 97.8745 70.1088C100.581 72.6527 103.816 75.0224 107.578 75.5599C107.499 75.3333 107.42 75.1067 107.338 74.8732C107.233 74.565 107.127 74.2568 107.022 73.9485C106.97 73.8005 106.918 73.6524 106.864 73.4999C105.658 69.9533 105.099 65.0108 106.641 61.4974C107.268 60.5649 107.997 59.7513 108.75 58.9192C111.383 55.7621 113.303 52.108 114.375 48.138C114.449 47.8845 114.524 47.631 114.6 47.3699C116.191 40.9987 115.027 34.0904 111.741 28.4606C110.72 26.7961 109.544 25.2512 108.281 23.763C108.144 23.5971 108.007 23.4312 107.866 23.2604C106.919 22.1407 105.893 21.1814 104.766 20.2474C104.598 20.1032 104.43 19.9591 104.258 19.8106C89.6002 7.55939 66.7335 8.03945 52.7344 20.9505ZM14.599 53.7447C14.2288 54.0807 13.8462 54.4034 13.4546 54.7142C9.58669 57.8349 7.04677 62.9381 5.62502 67.5911C5.55009 67.8231 5.47517 68.0552 5.39797 68.2942C4.33766 72.2213 4.48427 77.0599 5.62502 80.9505C5.69934 81.2257 5.77366 81.501 5.85024 81.7845C7.0184 85.6991 9.08714 89.3419 11.8259 92.368C14.2922 95.1452 14.2866 98.3253 14.1152 101.888C13.9877 103.402 13.5895 104.82 13.125 106.263C13.0528 106.494 12.9806 106.724 12.9062 106.962C12.7529 107.435 12.5891 107.904 12.4219 108.372C16.5435 107.784 20.1514 104.991 22.9825 102.078C23.8122 101.589 24.6573 101.708 25.5704 101.929C26.1229 102.094 26.6696 102.273 27.2168 102.454C33.0716 104.284 39.3532 105.059 45.4688 104.388C45.7384 104.359 45.7384 104.359 46.0134 104.328C53.1585 103.489 60.169 100.68 65.625 95.9505C65.8166 95.7873 66.0081 95.6242 66.2055 95.4561C70.3303 91.8549 73.3007 87.5105 75.0733 82.3274C75.1301 82.1625 75.187 81.9976 75.2456 81.8277C76.808 77.0174 76.7768 71.2284 75.2344 66.4192C75.1854 66.2616 75.1364 66.104 75.086 65.9417C72.5616 58.0245 66.5173 51.7906 59.2456 47.9787C44.9225 40.8231 26.4557 42.7208 14.599 53.7447Z" fill="#430DDE"/>
<path d="M21.6209 81.0361C21.7896 81.0342 21.9582 81.0324 22.1319 81.0305C22.6957 81.0258 23.2592 81.0295 23.823 81.0332C24.2276 81.0316 24.6323 81.0296 25.037 81.027C26.1353 81.0217 27.2334 81.0237 28.3317 81.0274C29.481 81.0304 30.6303 81.0277 31.7796 81.0258C33.7097 81.0237 35.6398 81.0265 37.5698 81.0321C39.8013 81.0385 42.0327 81.0364 44.2642 81.0299C46.18 81.0246 48.0958 81.0239 50.0117 81.0269C51.156 81.0288 52.3002 81.029 53.4445 81.0251C54.5203 81.0218 55.5959 81.0241 56.6717 81.0309C57.0666 81.0324 57.4614 81.032 57.8562 81.0294C58.3953 81.0262 58.9338 81.0302 59.4728 81.0361C59.7744 81.0365 60.076 81.0369 60.3868 81.0374C61.3765 81.2233 61.7237 81.5799 62.3438 82.3567C62.4994 82.9427 62.4994 82.9427 62.4903 83.5286C62.4933 83.722 62.4963 83.9153 62.4994 84.1145C62.2715 84.9725 61.8537 85.3142 61.1719 85.8724C60.3868 86.0198 60.3868 86.0198 59.4728 86.0212C59.3042 86.023 59.1356 86.0248 58.9619 86.0267C58.3981 86.0314 57.8346 86.0277 57.2708 86.024C56.8662 86.0256 56.4615 86.0277 56.0568 86.0302C54.9585 86.0356 53.8604 86.0335 52.7621 86.0298C51.6128 86.0268 50.4635 86.0296 49.3142 86.0314C47.3841 86.0335 45.454 86.0307 43.524 86.0251C41.2925 86.0188 39.0611 86.0208 36.8296 86.0273C34.9138 86.0326 32.9979 86.0333 31.0821 86.0303C29.9378 86.0285 28.7936 86.0282 27.6493 86.0321C26.5735 86.0355 25.4979 86.0331 24.4221 86.0263C24.0272 86.0248 23.6324 86.0252 23.2376 86.0278C22.6985 86.031 22.16 86.027 21.6209 86.0212C21.3194 86.0207 21.0178 86.0203 20.707 86.0198C19.7173 85.8339 19.3701 85.4773 18.75 84.7005C18.5944 84.1145 18.5944 84.1145 18.6035 83.5286C18.6005 83.3353 18.5975 83.1419 18.5944 82.9427C19.0124 81.3688 20.1375 81.0382 21.6209 81.0361Z" fill="#430DDE"/>
<path d="M32.3374 66.9707C32.6465 66.9687 32.9557 66.9666 33.2743 66.9645C34.1208 66.9592 34.9671 66.9612 35.8136 66.9649C36.7002 66.9679 37.5867 66.9652 38.4733 66.9633C39.962 66.9612 41.4507 66.964 42.9394 66.9696C44.6597 66.976 46.3798 66.9739 48.1001 66.9674C49.578 66.9621 51.0559 66.9614 52.5339 66.9644C53.4162 66.9663 54.2984 66.9665 55.1807 66.9626C56.1644 66.9586 57.1478 66.9642 58.1314 66.9707C58.4234 66.9683 58.7154 66.966 59.0163 66.9635C61.2115 66.9906 61.2115 66.9906 61.9381 67.6811C62.3758 68.3426 62.5025 68.6796 62.4903 69.4661C62.4933 69.6595 62.4963 69.8528 62.4994 70.052C62.3287 70.6948 62.0971 71.1 61.6136 71.5595C60.5832 72.1436 59.2809 71.9708 58.1314 71.9615C57.8222 71.9635 57.5131 71.9656 57.1945 71.9677C56.348 71.973 55.5017 71.971 54.6552 71.9673C53.7686 71.9643 52.8821 71.9671 51.9955 71.9689C50.5068 71.971 49.0181 71.9682 47.5294 71.9626C45.8091 71.9563 44.089 71.9583 42.3687 71.9648C40.8908 71.9701 39.4129 71.9708 37.9349 71.9678C37.0526 71.9659 36.1704 71.9657 35.2881 71.9696C34.3044 71.9736 33.321 71.968 32.3374 71.9615C31.8994 71.965 31.8994 71.965 31.4525 71.9687C29.2573 71.9416 29.2573 71.9416 28.5307 71.2511C28.093 70.5896 27.9662 70.2526 27.9785 69.4661C27.9755 69.2727 27.9725 69.0794 27.9694 68.8802C28.1401 68.2375 28.3717 67.8322 28.8552 67.3727C29.8856 66.7886 31.1879 66.9614 32.3374 66.9707Z" fill="#430DDE"/>
<path d="M71.2436 29.4707C71.5528 29.4687 71.862 29.4666 72.1805 29.4645C73.027 29.4592 73.8734 29.4612 74.7199 29.4649C75.6064 29.4679 76.493 29.4652 77.3795 29.4633C78.8683 29.4612 80.3569 29.464 81.8456 29.4696C83.5659 29.476 85.286 29.4739 87.0063 29.4674C88.4843 29.4621 89.9622 29.4614 91.4401 29.4644C92.3224 29.4663 93.2046 29.4665 94.0869 29.4626C95.0706 29.4586 96.054 29.4642 97.0377 29.4707C97.3297 29.4683 97.6217 29.466 97.9225 29.4635C100.118 29.4906 100.118 29.4906 100.844 30.1811C101.282 30.8426 101.409 31.1796 101.397 31.9661C101.4 32.1595 101.403 32.3528 101.406 32.552C101.235 33.1948 101.003 33.6 100.52 34.0595C99.4894 34.6436 98.1871 34.4708 97.0377 34.4615C96.7285 34.4635 96.4193 34.4656 96.1008 34.4677C95.2543 34.473 94.4079 34.471 93.5614 34.4673C92.6749 34.4643 91.7883 34.4671 90.9018 34.4689C89.413 34.471 87.9244 34.4682 86.4356 34.4626C84.7154 34.4563 82.9953 34.4583 81.275 34.4648C79.797 34.4701 78.3191 34.4708 76.8412 34.4678C75.9589 34.4659 75.0766 34.4657 74.1943 34.4696C73.2107 34.4736 72.2273 34.468 71.2436 34.4615C70.8056 34.465 70.8056 34.465 70.3588 34.4687C68.1635 34.4416 68.1635 34.4416 67.4369 33.7511C66.9992 33.0896 66.8725 32.7526 66.8848 31.9661C66.8818 31.7727 66.8787 31.5794 66.8756 31.3802C67.0464 30.7375 67.278 30.3322 67.7614 29.8727C68.7919 29.2886 70.0942 29.4614 71.2436 29.4707Z" fill="#430DDE"/>
<path d="M22.2656 67.1224C22.9981 67.5618 22.9981 67.5618 23.4375 68.2942C23.6693 69.4722 23.6196 70.3345 22.9981 71.3704C21.9622 71.9919 21.0999 72.0416 19.9219 71.8099C19.1895 71.3704 19.1895 71.3704 18.75 70.638C18.5183 69.46 18.5679 68.5977 19.1895 67.5618C20.2254 66.9403 21.0876 66.8906 22.2656 67.1224Z" fill="#430DDE"/>
<path d="M61.1719 29.6224C61.9043 30.0618 61.9043 30.0618 62.3438 30.7942C62.5755 31.9723 62.5259 32.8345 61.9043 33.8704C60.8684 34.4919 60.0062 34.5416 58.8281 34.3099C58.0957 33.8704 58.0957 33.8704 57.6563 33.138C57.4245 31.96 57.4742 31.0977 58.0957 30.0618C59.1316 29.4403 59.9939 29.3906 61.1719 29.6224Z" fill="#430DDE"/>
</g>
<defs>
<clipPath id="clip0_626_626">
<rect width="120" height="120" fill="white"/>
</clipPath>
</defs>
</svg>
