<svg width="120" height="120" viewBox="0 0 120 120" fill="none" xmlns="http://www.w3.org/2000/svg">
<path d="M120 56.9531C120 77.9516 120 98.9501 120 120C99.1358 120 78.2715 120 57.2596 119.923C55.9959 118.155 56.0652 117.352 57.4631 115.949C60.0256 113.376 62.5958 110.811 65.1507 108.23C65.4602 107.918 65.9163 107.678 65.9145 107.12C65.4213 106.858 64.9058 106.974 64.4129 106.974C47.7784 106.965 31.1439 106.972 14.5094 106.947C13.1568 106.944 11.7677 106.881 10.4586 106.575C4.72002 105.237 1.36946 101.498 0 95.8594C0 69.3701 -8.49923e-09 42.8808 0.000117179 16.1959C0.459969 14.7165 0.912612 13.4277 1.59581 12.2412C4.1681 7.77412 8.07276 5.41509 13.1799 5.08907C15.1706 4.96199 15.7877 5.64908 15.7892 7.61771C15.7928 12.5391 15.7887 17.4604 15.7885 22.3818C15.7885 24.2859 15.7895 24.2879 17.6375 24.2879C34.5498 24.2884 51.4621 24.2757 68.3742 24.3138C69.617 24.3166 70.4894 23.9306 71.349 23.0644C78.2264 16.1348 85.156 9.25705 92.0302 2.3244C93.1367 1.20853 94.3235 0.348482 95.8594 0C96.2611 0 96.6629 -6.98492e-09 97.2464 0.0309954C98.8781 0.212619 100.085 0.80194 101.108 1.87446C102.751 3.59777 104.466 5.25191 106.145 6.9407C108.477 9.28574 108.464 12.7404 106.121 15.0822C103.442 17.7591 100.757 20.4302 98.0915 23.1209C97.8189 23.3961 97.3315 23.5778 97.4247 24.1197C97.8295 24.4025 98.2721 24.28 98.6868 24.2813C102.084 24.2925 105.48 24.2879 108.877 24.2881C111.47 24.2882 111.882 24.6913 111.883 27.2356C111.884 38.0899 111.882 48.9442 111.893 59.7984C111.893 60.2022 111.73 60.654 112.074 61.0227C112.62 60.9815 112.874 60.5413 113.195 60.2278C114.311 59.136 115.386 58.0012 116.506 56.9143C117.635 55.8202 118.825 55.8512 120 56.9531ZM82.8515 116.162C89.18 116.162 95.5085 116.162 101.837 116.162C106.095 116.162 110.353 116.167 114.61 116.16C115.996 116.158 116.149 115.997 116.16 114.601C116.17 113.39 116.163 112.179 116.163 110.968C116.163 108.327 116.163 108.327 113.51 108.124C113.393 108.115 113.275 108.115 113.16 108.094C112.026 107.881 111.232 106.93 111.309 105.88C111.386 104.826 112.143 104.235 113.445 104.214C113.68 104.21 113.914 104.213 114.149 104.213C116.16 104.209 116.174 104.208 116.161 102.204C116.14 99.0529 116.559 99.2317 113.342 99.2213C112.068 99.2172 111.292 98.4697 111.261 97.328C111.233 96.2912 112.114 95.3947 113.284 95.3133C113.868 95.2727 114.456 95.2931 115.042 95.2996C115.821 95.3081 116.185 94.9431 116.165 94.1528C116.143 93.255 116.147 92.3559 116.164 91.4578C116.177 90.7264 115.822 90.3674 115.113 90.3456C114.527 90.3276 113.941 90.3324 113.355 90.3305C112.847 90.3289 112.352 90.3444 111.947 89.922C111.394 89.3443 111.068 88.6939 111.34 87.9105C111.687 86.9129 112.487 86.4797 113.502 86.4024C116.174 86.1989 116.174 86.2004 116.164 83.4879C116.163 83.2535 116.156 83.0191 116.159 82.7848C116.167 82.0619 115.788 81.7003 115.089 81.6703C114.465 81.6436 113.836 81.6853 113.215 81.6293C112.096 81.5285 111.253 80.5953 111.258 79.5283C111.264 78.4733 112.04 77.7833 113.293 77.734C113.761 77.7156 114.233 77.6978 114.699 77.7309C115.727 77.8037 116.188 77.4128 116.177 76.3185C116.137 72.3345 116.164 68.3499 116.152 64.3656C116.151 64.0501 116.306 63.6555 115.885 63.4289C115.253 63.7122 114.845 64.2533 114.382 64.7166C106.95 72.1441 99.5256 79.5793 92.0989 87.0121C90.0007 89.1121 87.9048 91.2144 85.7979 93.3057C85.1863 93.9129 84.4989 94.2912 83.5903 93.9194C82.7758 93.586 82.334 92.9615 82.3045 92.1309C82.2739 91.2707 82.768 90.6182 83.3718 90.0164C91.091 82.3235 98.7823 74.6026 106.526 66.9342C107.543 65.9266 107.999 64.9164 107.991 63.4578C107.932 52.3253 107.959 41.1924 107.959 30.0596C107.959 28.2184 107.958 28.2149 106.17 28.2139C102.303 28.2118 98.4351 28.2579 94.5693 28.1868C93.404 28.1654 92.6035 28.5574 91.8043 29.3594C80.9136 40.2894 69.9604 51.1573 59.1219 62.1386C57.1614 64.125 55.0315 65.4984 52.3669 66.2289C50.5525 66.7262 48.8083 67.4792 47.0327 68.1179C47.0435 68.1958 47.0544 68.2737 47.0652 68.3516C47.679 68.3516 48.2927 68.3516 48.9065 68.3516C59.1018 68.3515 69.297 68.3514 79.4923 68.3522C79.8828 68.3522 80.2768 68.3302 80.6632 68.3731C81.567 68.4734 82.0494 68.9853 82.1148 69.9077C82.2309 71.5436 81.4473 72.2696 79.4328 72.2705C63.6907 72.2776 47.9486 72.2736 32.2065 72.2751C31.7354 72.2752 31.2815 72.2386 30.8325 72.0591C29.8684 71.6737 29.3971 70.9182 29.5306 69.9574C29.6717 68.9421 30.2857 68.2981 31.4571 68.3403C32.8225 68.3896 34.1996 68.2563 35.5557 68.3785C36.7932 68.4901 37.2923 67.9055 37.6467 66.8605C38.8474 63.3205 40.1959 59.8277 41.2971 56.258C42.3052 52.9897 43.6752 50.029 46.4791 47.8988C47.0644 47.4541 47.5345 46.8583 48.0606 46.3351C49.2237 45.1786 50.3672 44.0011 51.5606 42.8767C52.3305 42.1514 53.2752 42.1313 54.1723 42.5927C55.0674 43.053 54.9854 43.9477 54.8871 44.7652C54.8193 45.3292 54.3927 45.7181 54.0019 46.1074C52.2032 47.8994 50.4351 49.7231 48.604 51.4812C47.8921 52.1647 47.9406 52.617 48.6339 53.2831C50.605 55.1771 52.5447 57.1065 54.4295 59.0861C55.1812 59.8756 55.6627 59.8381 56.4189 59.0796C67.8076 47.6559 79.2172 36.253 90.643 24.8664C91.3158 24.1958 91.2576 23.7658 90.6208 23.1468C88.7443 21.323 86.9108 19.4548 85.0607 17.6037C83.781 16.3233 83.7803 16.3221 82.535 17.5679C75.2721 24.8338 68.0101 32.1006 60.7459 39.365C60.3595 39.7513 59.9924 40.1726 59.5504 40.484C58.787 41.0218 57.9263 41.062 57.1226 40.5954C56.3747 40.1612 56.3612 39.3814 56.4114 38.6224C56.4529 37.996 56.8275 37.5555 57.2524 37.1325C59.3281 35.0655 61.3897 32.9844 63.4655 30.9175C64.3043 30.0823 65.1667 29.2708 66.259 28.2163C65.2106 28.2163 64.5527 28.2163 63.8947 28.2163C48.426 28.2148 32.9573 28.2128 17.4887 28.2128C15.8118 28.2128 15.7885 28.2376 15.7883 29.9205C15.7871 40.3501 15.7881 50.7798 15.7865 61.2094C15.7864 61.6388 15.8146 62.0757 15.7472 62.496C15.5813 63.5317 14.4985 64.1945 13.4769 63.925C12.2156 63.5921 11.8663 63.0459 11.8661 61.3472C11.864 44.5894 11.8658 27.8317 11.8583 11.0739C11.8581 10.579 11.9792 10.0623 11.7446 9.6143C11.4694 9.39167 11.1741 9.42453 10.9284 9.50593C7.00777 10.8052 3.89979 14.1878 3.88177 18.3566C3.78942 39.7233 3.83758 61.0906 3.84638 82.4577C3.84653 82.8149 3.6725 83.245 4.09227 83.5263C4.57995 83.4292 4.93233 83.133 5.28879 82.8225C6.76201 81.5391 8.50042 80.7142 10.3843 80.3535C11.5766 80.1252 11.9062 79.6221 11.8852 78.486C11.8274 75.3621 11.8474 72.2362 11.8793 69.1115C11.8918 67.8875 12.6884 67.1817 13.9032 67.1824C15.0409 67.183 15.7731 67.8901 15.7778 69.0902C15.7944 73.3479 15.7939 77.6058 15.7797 81.8635C15.776 82.9798 15.0895 83.6883 14.0083 83.7615C11.5784 83.9261 9.30701 84.594 7.44254 86.194C3.29832 89.7503 2.38684 95.3025 6.31199 99.7486C8.55552 102.29 11.5476 103.016 14.741 103.022C32.8659 103.053 50.9909 103.032 69.1158 103.053C70.0133 103.054 70.6629 102.774 71.2781 102.141C73.1556 100.207 75.0778 98.3176 76.9828 96.411C77.4531 95.9403 77.9309 95.447 78.6134 95.3357C79.5478 95.1832 80.4137 95.4963 80.7892 96.351C81.154 97.1816 81.0661 98.054 80.3097 98.8065C75.0207 104.068 69.7585 109.356 64.4892 114.638C64.0855 115.042 63.636 115.413 63.2601 116.162C69.8286 116.162 76.2229 116.162 82.8515 116.162ZM94.6574 9.98552C96.1716 11.5012 97.7061 12.9975 99.1906 14.5418C99.8246 15.2014 100.327 15.1964 100.941 14.5411C101.686 13.7457 102.496 13.012 103.256 12.23C103.977 11.4876 104.018 10.5971 103.295 9.85605C101.58 8.1004 99.8491 6.35947 98.0773 4.66213C97.1909 3.81301 96.3228 3.88434 95.3921 4.73573C95.1049 4.9985 94.834 5.27925 94.558 5.55419C92.4042 7.69993 92.4044 7.7001 94.6574 9.98552ZM89.2007 10.9405C88.6721 11.4592 88.1761 12.0174 87.607 12.4869C86.8254 13.1317 86.8034 13.6578 87.5636 14.3786C89.1757 15.9072 90.6964 17.5315 92.2881 19.0822C94.6805 21.4129 93.891 21.466 96.4083 19.0954C97.0515 18.4897 97.0441 18.0924 96.4242 17.488C94.3583 15.4736 92.3396 13.4109 90.2951 11.3745C90.0319 11.1123 89.811 10.7237 89.2007 10.9405ZM45.692 56.3872C45.5376 56.7384 45.3731 57.0856 45.2303 57.4416C43.8599 60.8589 43.8963 60.9953 46.7085 63.2678C46.9221 63.4404 47.1403 63.6923 47.4183 63.6043C48.7979 63.168 50.2116 62.8111 51.7037 62.0733C49.6347 60.0786 47.9091 58.0328 45.692 56.3872Z" fill="#430DDE"/>
<path d="M104.279 107.432C98.3882 107.431 92.6118 107.418 86.8357 107.441C85.8008 107.445 84.8673 107.385 84.4371 106.248C84.0269 105.164 84.5736 104.349 85.2581 103.627C86.3317 102.495 87.454 101.408 88.5583 100.305C93.4999 95.3669 98.4436 90.4311 103.382 85.4903C103.772 85.1008 104.175 84.751 104.691 84.5298C106.089 83.9301 107.404 84.6708 107.411 86.1907C107.445 92.7083 107.437 99.2263 107.414 105.744C107.411 106.744 106.756 107.285 105.797 107.412C105.337 107.474 104.862 107.429 104.279 107.432ZM103.506 101.563C103.506 98.2309 103.506 94.8991 103.506 91.9239C99.6685 95.7205 95.7545 99.5925 91.8563 103.449C92.0796 103.581 92.5172 103.499 92.9352 103.5C95.8981 103.507 98.861 103.506 101.824 103.504C103.483 103.503 103.489 103.493 103.506 101.563Z" fill="#430DDE"/>
</svg>
