<svg width="26" height="26" viewBox="0 0 26 26" fill="none" xmlns="http://www.w3.org/2000/svg">
<path d="M13 18.3334C15.9454 18.3334 18.3333 15.9455 18.3333 13.0001C18.3333 10.0546 15.9454 7.66675 13 7.66675C10.0544 7.66675 7.66663 10.0546 7.66663 13.0001C7.66663 15.9455 10.0544 18.3334 13 18.3334Z" stroke="white" stroke-width="2" stroke-linecap="round" stroke-linejoin="round"/>
<path d="M1 18.3333V7.66667C1 3.98477 3.98477 1 7.66667 1H18.3333C22.0152 1 25 3.98477 25 7.66667V18.3333C25 22.0152 22.0152 25 18.3333 25H7.66667C3.98477 25 1 22.0152 1 18.3333Z" stroke="white" stroke-width="2"/>
<path d="M20.3334 5.6801L20.3467 5.66528" stroke="white" stroke-width="2" stroke-linecap="round" stroke-linejoin="round"/>
</svg>
