<svg width="70" height="67" viewBox="0 0 70 67" fill="none" xmlns="http://www.w3.org/2000/svg">
<path d="M69.1092 3.34569C68.8308 3.01134 68.4793 2.74505 68.0819 2.56721C67.6844 2.38938 67.2515 2.30475 66.8161 2.31976H60.4482C60.4482 1.8569 60.4628 1.45418 60.4482 1.04416C60.4208 0.422764 60.052 0.0309775 59.497 0.00182089C59.36 -0.00918276 59.2222 0.00804272 59.0922 0.0524498C58.9621 0.0968569 58.8426 0.167489 58.7411 0.259948C58.6396 0.352408 58.5582 0.464736 58.5019 0.589926C58.4457 0.715117 58.4159 0.850485 58.4144 0.987662C58.3815 1.39403 58.4144 1.80405 58.4144 2.26326H52.3404C52.3404 1.8988 52.355 1.51249 52.3404 1.1371C52.3039 0.388142 51.9004 -0.0255134 51.2577 0.00182089C50.6534 0.0291552 50.3175 0.43369 50.2956 1.17354C50.2956 1.52888 50.2956 1.88606 50.2956 2.27785H44.1906C44.1906 1.85873 44.2033 1.45783 44.1906 1.05693C44.1613 0.408198 43.7633 0.00364317 43.1791 0.00182089C42.5949 -1.39942e-06 42.1914 0.408187 42.1494 1.04599C42.1348 1.25008 42.1494 1.45598 42.1494 1.66007V2.25779H36.0426C36.0426 1.83137 36.0663 1.42683 36.0426 1.02592C35.9933 0.36261 35.5934 -0.0127574 35.0001 0.00182089C34.4396 0.0163992 34.0708 0.388112 34.0124 1.01498C33.9923 1.21725 34.0124 1.42319 33.9996 1.62911C33.9869 1.83503 33.9796 2.03002 33.9649 2.27056H27.9019C27.9019 1.85872 27.9201 1.45601 27.9019 1.05693C27.869 0.411842 27.4637 0.00364139 26.885 -3.17894e-06C26.3063 -0.00364775 25.8918 0.406365 25.8626 1.04599C25.8443 1.43231 25.8626 1.81862 25.8626 2.25779H19.7466C19.7466 1.8496 19.763 1.44689 19.7466 1.04599C19.7137 0.408187 19.3596 0.0309792 18.7991 0.00364495C18.2076 -0.0273339 17.7749 0.346221 17.7183 0.99131C17.6818 1.39586 17.7183 1.80587 17.7183 2.26691H11.6297C11.6297 1.90245 11.6424 1.51614 11.6297 1.14075C11.6023 0.435525 11.217 0.0145805 10.6164 0.00546902C9.98289 -0.0054647 9.60133 0.422758 9.5849 1.17536C9.5849 1.51613 9.5849 1.85691 9.5849 2.2815C9.31287 2.29426 9.0737 2.31429 8.83454 2.31429C7.05816 2.31429 5.27996 2.34891 3.50541 2.31429C1.32738 2.26509 -0.354079 3.88327 0.0713029 6.72422C0.149807 7.25268 0.545979 7.55517 1.09916 7.5333C1.34314 7.53764 1.5795 7.44841 1.75952 7.28398C1.93954 7.11955 2.04952 6.89248 2.06677 6.64952C2.11789 6.28506 2.06677 5.9206 2.09233 5.55615C2.13249 4.87826 2.54692 4.39897 3.18773 4.39168C5.28178 4.36981 7.37583 4.39168 9.57759 4.39168C9.57759 4.81992 9.56481 5.21899 9.57759 5.61807C9.60315 6.25588 10.0158 6.68778 10.5781 6.69325C11.1404 6.69872 11.5731 6.26683 11.615 5.63632C11.6406 5.25364 11.615 4.86729 11.615 4.43359H17.6909C17.6909 4.84543 17.669 5.22814 17.6909 5.609C17.7365 6.27596 18.1966 6.72423 18.7699 6.69325C19.3431 6.66227 19.7028 6.23219 19.7302 5.57434C19.7448 5.20988 19.7302 4.84543 19.7302 4.43906H25.8389C25.8389 4.83996 25.8224 5.24453 25.8389 5.64544C25.8699 6.27048 26.3099 6.70601 26.8704 6.69507C27.1355 6.68414 27.3867 6.57335 27.5734 6.38503C27.76 6.19671 27.8682 5.94482 27.8763 5.68005C27.8946 5.47595 27.8763 5.27006 27.8763 5.06414V4.42634H33.9668C33.9668 4.8236 33.9467 5.22264 33.9668 5.6199C34.0051 6.26317 34.4214 6.68961 34.9782 6.69325C35.535 6.69689 35.9476 6.27046 36.0006 5.62902C36.017 5.42492 36.0006 5.21903 36.0115 5.01493C36.0225 4.81084 36.028 4.65044 36.0389 4.42994H42.0947C42.0947 4.80715 42.0801 5.20627 42.0947 5.60353C42.1239 6.24133 42.5347 6.67685 43.0933 6.6969C43.6812 6.71512 44.112 6.265 44.1376 5.58893C44.1504 5.22448 44.1376 4.86001 44.1376 4.44453H50.2828C50.2828 4.8345 50.2828 5.23541 50.2828 5.63632C50.2956 6.25772 50.6352 6.61307 51.234 6.6896C51.7817 6.75703 52.2418 6.31239 52.3166 5.68917C52.3404 5.4869 52.3166 5.27913 52.3294 5.07504C52.3422 4.87094 52.3477 4.67231 52.3586 4.43177H58.3979C58.3979 4.80898 58.3852 5.18623 58.3979 5.56344C58.429 6.24498 58.8489 6.6969 59.4295 6.69872C60.01 6.70054 60.4208 6.24862 60.4409 5.56162C60.4537 5.19716 60.4409 4.84178 60.4409 4.38803H62.5879C63.9553 4.38803 65.3264 4.37892 66.6883 4.38803C67.4642 4.39714 67.928 4.84543 67.9316 5.62172C67.9462 8.26404 67.9316 10.9064 67.9316 13.5487C67.9228 13.6446 67.9063 13.7396 67.8823 13.833H2.08503C2.08503 13.0293 2.08503 12.2403 2.08503 11.4512C2.08503 10.6622 1.68155 10.1866 1.04805 10.1957C0.414536 10.2048 0.0384421 10.6768 0.0384421 11.4713C0.0384421 28.8717 0.0384421 46.2733 0.0384421 63.6761C0.0384421 65.6989 1.43144 67.0073 3.54739 67.0073C22.5198 67.0073 41.4916 67.0073 60.4628 67.0073H65.9982C68.3716 67.0073 69.1019 66.5316 70.0038 64.3941V4.93472C69.708 4.40079 69.4871 3.81402 69.1092 3.34569ZM42.7464 15.965H53.978V29.3771H42.7464V15.965ZM16.0715 34.2462V31.5383H62.2319V34.2462H16.0715ZM53.9634 36.391V53.8394H42.7464V36.391H53.9634ZM40.6214 41.3404V44.0064H16.0752V41.3404H40.6214ZM16.0788 39.181V36.3692H27.2793V39.181H16.0788ZM29.4227 39.181V36.3983H40.6195V39.181H29.4227ZM7.81399 29.3625V26.6746H27.2793V29.3625H7.81399ZM29.4245 15.9432H40.6068V29.3716H29.4245V15.9432ZM16.0624 15.9942H27.2939V24.559H16.0624V15.9942ZM13.9337 64.9062C13.7511 64.9208 13.5466 64.9481 13.3513 64.9481C10.0955 64.9481 6.84029 64.9481 3.58573 64.9481C2.49032 64.9481 2.0832 64.5472 2.0832 63.4903C2.0832 47.8283 2.0832 32.1646 2.0832 16.499C2.0832 16.3404 2.09781 16.1837 2.10876 15.9523H13.9337V24.61H11.1951C9.85145 24.61 8.50775 24.6009 7.16588 24.61C6.29138 24.61 5.75646 25.0801 5.73455 25.9238C5.6956 27.3343 5.6956 28.7453 5.73455 30.157C5.75828 31.0226 6.2932 31.4727 7.22612 31.48C9.20698 31.4927 11.1878 31.48 13.1687 31.48H13.9428L13.9337 64.9062ZM27.2775 64.9062H16.0697V46.153H27.2793L27.2775 64.9062ZM29.4081 46.1822H40.6068V48.8774H29.4081V46.1822ZM29.4263 51.0222H40.6159V53.8212H29.4263V51.0222ZM40.6177 64.908H29.4409V60.8151H40.6177V64.908ZM53.9725 64.9171H42.7392V60.7605C43.4384 60.7605 44.1358 60.7605 44.8332 60.7605C45.1288 60.7694 45.4247 60.7572 45.7186 60.724C45.9494 60.7015 46.1629 60.5921 46.3158 60.4182C46.4687 60.2442 46.5496 60.0187 46.542 59.7874C46.5584 59.6674 46.5506 59.5455 46.5192 59.4285C46.4878 59.3116 46.4334 59.2021 46.3591 59.1064C46.2848 59.0108 46.1922 58.9308 46.0866 58.8713C45.9811 58.8117 45.8646 58.7738 45.7442 58.7596C45.4743 58.7182 45.201 58.7023 44.9281 58.7122H29.4391V55.9587H53.9488V58.7122H51.0277C50.7548 58.7031 50.4815 58.7122 50.2098 58.7395C49.6274 58.8197 49.297 59.1824 49.317 59.76C49.3371 60.3377 49.6621 60.7149 50.25 60.7368C51.2285 60.7733 52.2071 60.7568 53.1857 60.7605C53.4339 60.7605 53.6804 60.7605 53.9798 60.7605L53.9725 64.9171ZM67.9499 16.7176V63.3117C67.9499 64.6091 67.5975 64.9517 66.2812 64.9517H56.1104V36.3418H62.5148C63.8713 36.3418 64.3168 35.8972 64.3223 34.5432C64.3223 33.4043 64.3223 32.2654 64.3223 31.1264C64.3131 29.9 63.8439 29.4281 62.6244 29.4244C60.4646 29.4244 58.3048 29.4244 56.0994 29.4244V15.965H67.9481L67.9499 16.7176Z" fill="url(#paint0_linear_285_1208)"/>
<path d="M6.7113 22.1553C7.259 22.1808 7.8067 22.1553 8.3544 22.1553H9.92082C10.547 22.1098 10.9742 21.6907 10.9669 21.1257C10.9677 20.9941 10.9423 20.8637 10.8924 20.7419C10.8424 20.6201 10.7688 20.5094 10.6759 20.4161C10.5829 20.3228 10.4723 20.2487 10.3506 20.1982C10.2289 20.1477 10.0983 20.1217 9.96646 20.1217C8.87836 20.0901 7.78844 20.0901 6.69669 20.1217C6.43503 20.1352 6.18875 20.2492 6.00937 20.4399C5.83 20.6305 5.73141 20.8829 5.73424 21.1444C5.73707 21.4059 5.8411 21.6563 6.02456 21.843C6.20802 22.0297 6.45671 22.1383 6.71859 22.1462L6.7113 22.1553Z" fill="url(#paint1_linear_285_1208)"/>
<path d="M60.1086 22.1571C60.6289 22.1808 61.1529 22.1571 61.6751 22.1571H63.1739C63.2196 22.1571 63.2652 22.1571 63.3109 22.1571C63.9133 22.1043 64.2985 21.7198 64.3077 21.1604C64.3153 21.0289 64.2963 20.8973 64.2517 20.7734C64.2071 20.6495 64.1379 20.536 64.0482 20.4395C63.9585 20.3429 63.8501 20.2655 63.7297 20.2118C63.6093 20.1582 63.4792 20.1294 63.3474 20.1271C62.252 20.0925 61.1675 20.0962 60.0776 20.1271C59.9458 20.1267 59.8152 20.1521 59.6933 20.2021C59.5714 20.252 59.4606 20.3255 59.3671 20.4182C59.2737 20.511 59.1995 20.6212 59.1488 20.7426C59.0981 20.864 59.0719 20.9942 59.0716 21.1257C59.0607 21.6907 59.4842 22.1298 60.1086 22.1571Z" fill="url(#paint2_linear_285_1208)"/>
<path d="M49.9268 20.1235C48.8801 20.0992 47.8346 20.0992 46.7903 20.1235C46.653 20.1188 46.5161 20.1417 46.3878 20.1909C46.2596 20.2401 46.1425 20.3144 46.0436 20.4096C45.9446 20.5048 45.8659 20.6188 45.812 20.745C45.758 20.8711 45.73 21.0068 45.7296 21.1439C45.7296 21.7125 46.1531 22.1334 46.7885 22.1589C47.3106 22.179 47.8328 22.1589 48.3567 22.1589C48.8807 22.1589 49.4029 22.1753 49.9232 22.1589C50.553 22.1334 50.9857 21.7052 50.9875 21.1458C50.9869 21.0086 50.9587 20.873 50.9047 20.7468C50.8507 20.6207 50.7719 20.5067 50.6731 20.4114C50.5742 20.3161 50.4573 20.2416 50.3291 20.1921C50.201 20.1426 50.0642 20.1193 49.9268 20.1235Z" fill="url(#paint3_linear_285_1208)"/>
<path d="M36.5903 20.1235C36.0681 20.098 35.546 20.1235 35.0238 20.1235C34.5017 20.1235 33.9777 20.1052 33.4574 20.1235C32.813 20.1508 32.4058 20.5572 32.4003 21.1348C32.3949 21.7125 32.7965 22.1444 33.4337 22.1589C34.478 22.1808 35.5223 22.179 36.5665 22.1589C37.2128 22.148 37.6163 21.7398 37.6218 21.1585C37.6273 20.5772 37.2311 20.1544 36.5903 20.1235Z" fill="url(#paint4_linear_285_1208)"/>
<path d="M23.3505 20.1326C22.2368 20.0962 21.1232 20.0962 20.0095 20.1326C19.7434 20.143 19.4924 20.2585 19.3117 20.4536C19.1309 20.6488 19.0352 20.9076 19.0456 21.1731C19.0532 21.4374 19.164 21.6882 19.3543 21.8721C19.5446 22.0559 19.7994 22.1582 20.0643 22.1571C20.5846 22.1827 21.1086 22.1571 21.6307 22.1571C22.1528 22.1571 22.7261 22.1772 23.2738 22.1571C23.5407 22.1646 23.7998 22.0667 23.9949 21.8848C24.19 21.7029 24.3055 21.4516 24.3163 21.1854C24.3271 20.9191 24.2324 20.6593 24.0526 20.4622C23.8729 20.2652 23.6226 20.1468 23.356 20.1326H23.3505Z" fill="url(#paint5_linear_285_1208)"/>
<defs>
<linearGradient id="paint0_linear_285_1208" x1="35.0044" y1="-0.00140381" x2="35.0044" y2="67.0073" gradientUnits="userSpaceOnUse">
<stop stop-color="#8459FF"/>
<stop offset="1" stop-color="#430DDE"/>
</linearGradient>
<linearGradient id="paint1_linear_285_1208" x1="35.0044" y1="-0.00140381" x2="35.0044" y2="67.0073" gradientUnits="userSpaceOnUse">
<stop stop-color="#8459FF"/>
<stop offset="1" stop-color="#430DDE"/>
</linearGradient>
<linearGradient id="paint2_linear_285_1208" x1="35.0044" y1="-0.00140381" x2="35.0044" y2="67.0073" gradientUnits="userSpaceOnUse">
<stop stop-color="#8459FF"/>
<stop offset="1" stop-color="#430DDE"/>
</linearGradient>
<linearGradient id="paint3_linear_285_1208" x1="35.0044" y1="-0.00140381" x2="35.0044" y2="67.0073" gradientUnits="userSpaceOnUse">
<stop stop-color="#8459FF"/>
<stop offset="1" stop-color="#430DDE"/>
</linearGradient>
<linearGradient id="paint4_linear_285_1208" x1="35.0044" y1="-0.00140381" x2="35.0044" y2="67.0073" gradientUnits="userSpaceOnUse">
<stop stop-color="#8459FF"/>
<stop offset="1" stop-color="#430DDE"/>
</linearGradient>
<linearGradient id="paint5_linear_285_1208" x1="35.0044" y1="-0.00140381" x2="35.0044" y2="67.0073" gradientUnits="userSpaceOnUse">
<stop stop-color="#8459FF"/>
<stop offset="1" stop-color="#430DDE"/>
</linearGradient>
</defs>
</svg>
