<svg width="120" height="120" viewBox="0 0 120 120" fill="none" xmlns="http://www.w3.org/2000/svg">
<g clip-path="url(#clip0_542_1670)">
<path d="M97.1394 104.45C96.4379 104.646 96.1121 104.5 95.7687 103.863C93.7142 100.047 91.5776 96.2841 89.5553 92.4567C88.804 91.0361 87.809 90.4461 86.1977 90.4578C78.6988 90.5136 71.197 90.4843 63.6981 90.4813H62.348C62.348 88.5618 62.348 86.7743 62.348 84.9868C62.348 82.6886 61.5643 81.8814 59.2839 81.7992C56.2218 81.7016 53.2148 80.959 50.4593 79.6201C47.7037 78.2811 45.2616 76.3759 43.2925 74.0288C41.3233 71.6817 39.8715 68.9457 39.0317 65.9993C38.1919 63.0528 37.9832 59.9624 38.419 56.9298C40.3855 42.7238 55.486 34.2677 68.6054 40.0352C73.996 42.4068 77.8438 46.3095 80.1487 51.7434C80.95 53.6307 82.1122 54.3322 83.4946 53.7452C84.9621 53.123 85.2556 51.8403 84.422 49.8591C83.3293 47.2269 81.808 44.7939 79.9198 42.6592C79.7026 42.4127 79.5265 42.1368 79.2242 41.7317H80.5596C86.5352 41.7317 92.5138 41.6906 98.4894 41.7611C99.2057 41.7993 99.9213 41.6744 100.582 41.3958C101.243 41.1172 101.832 40.6921 102.305 40.1526C103.981 38.3504 105.803 36.6891 107.491 34.9017C108.107 34.2471 108.621 34.2001 109.416 34.5113C112.827 35.8438 116.904 34.3997 118.808 31.2533C120.804 27.9425 120.208 23.6777 117.405 21.2063C116.078 20.0041 114.386 19.2828 112.599 19.1582C110.813 19.0337 109.037 19.5131 107.556 20.5195C104.5 22.6328 103.347 26.3692 104.7 29.9354C104.941 30.5694 104.885 30.9715 104.383 31.4558C102.719 33.0496 101.154 34.7373 99.458 36.3076C98.989 36.7324 98.3877 36.9823 97.7557 37.0149C90.1247 37.059 82.5231 37.0149 74.9039 37.0648C73.7038 37.0636 72.5204 36.7844 71.4464 36.2489C69.927 35.5461 68.3573 34.9574 66.7505 34.4878C65.3241 34.0681 63.8566 33.8538 62.4302 33.5603V29.3924H63.8977C71.2821 29.3924 78.6665 29.3601 86.048 29.4188C87.7298 29.4188 88.8011 28.8788 89.5994 27.3642C91.5746 23.5985 93.7084 19.9149 95.7276 16.1755C96.0945 15.4975 96.435 15.3507 97.1951 15.5738C98.9304 16.0713 100.783 15.9614 102.448 15.2623C104.112 14.5632 105.488 13.3169 106.347 11.7295C107.207 10.142 107.499 8.30871 107.175 6.53283C106.85 4.75695 105.93 3.14496 104.565 1.96358C101.718 -0.460838 97.6089 -0.631077 94.7033 1.56734C91.5893 3.91544 90.5562 7.89842 92.2233 11.3942C92.3644 11.6387 92.4343 11.9179 92.425 12.2001C92.4157 12.4823 92.3275 12.7562 92.1704 12.9909C90.1717 16.5688 88.1847 20.1497 86.2505 23.7599C85.8367 24.5289 85.3436 24.752 84.5042 24.7461C77.5512 24.7138 70.5953 24.7285 63.6423 24.7255C63.2344 24.7255 62.8234 24.6844 62.348 24.661V23.258C62.348 16.5013 62.348 9.74462 62.348 2.98794C62.348 0.906932 61.491 0.0322647 59.4482 0.0234593C56.3176 0.00780524 53.1928 0.00780524 50.0739 0.0234593C48.037 0.0234593 47.1594 0.903999 47.1389 2.95859C47.1389 4.8723 47.1007 6.77426 47.1535 8.69971C47.1741 9.42469 46.9246 9.72408 46.2349 9.89725C45.0949 10.1595 43.9764 10.5078 42.889 10.9392C39.6928 12.2718 36.5289 13.6806 33.2035 15.1277C31.874 13.7922 30.3918 12.2982 28.9008 10.813C27.1663 9.08422 26.095 9.09008 24.3399 10.8453C19.8102 15.3752 15.2825 19.907 10.7567 24.4408C9.07499 26.1256 9.07205 27.2468 10.7303 28.914C12.2389 30.4256 13.7534 31.9313 15.2766 33.4546C12.8582 37.5117 11.0169 41.886 9.8058 46.4514C9.64144 47.0737 9.28337 47.194 8.70224 47.1822C6.86788 47.1529 5.03057 47.2028 3.1962 47.1617C1.72871 47.1294 0.598733 47.5697 0.00292969 48.9932V71.0243C0.589928 72.4479 1.71403 72.9087 3.17859 72.8735C5.05111 72.8285 6.92364 72.8285 8.79617 72.8735C9.11901 72.8735 9.64436 73.167 9.71774 73.4429C10.9824 78.0494 12.8579 82.4658 15.2942 86.5747C13.7269 88.1332 12.2007 89.6389 10.6892 91.1564C9.119 92.7326 9.09846 93.9125 10.6393 95.4593C15.2394 100.077 19.8454 104.688 24.4573 109.293C26.0656 110.898 27.222 110.889 28.8598 109.263C30.3478 107.775 31.8153 106.264 33.3268 104.728C33.6203 104.866 33.8786 104.954 34.1046 105.084C37.913 107.293 41.9953 108.993 46.2466 110.138C46.9393 110.32 47.1682 110.625 47.1506 111.338C47.1007 113.17 47.1682 115.007 47.1213 116.839C47.0831 118.306 47.5556 119.425 48.9879 120H60.4725C61.9253 119.448 62.3685 118.347 62.3597 116.859C62.3245 110.109 62.3597 103.358 62.3597 96.607V95.2568C62.7736 95.2275 63.1111 95.1864 63.4486 95.1864C70.5161 95.1864 77.5835 95.1864 84.651 95.1629C84.9709 95.1278 85.2935 95.1972 85.5707 95.3607C85.8479 95.5242 86.0648 95.7729 86.1889 96.0698C88.1583 99.7475 90.1952 103.39 92.1646 107.068C92.2742 107.274 92.3417 107.499 92.3634 107.732C92.3851 107.964 92.3604 108.198 92.2908 108.421C90.1042 113.411 92.4404 118.365 97.6911 119.8C97.8731 119.859 98.0515 119.929 98.2253 120.009H100.573C100.902 119.9 101.231 119.783 101.562 119.68C105.809 118.392 108.251 114.071 107.065 109.944C105.803 105.594 101.539 103.214 97.1394 104.45ZM112.052 23.8098C112.695 23.8162 113.321 24.0129 113.852 24.3752C114.383 24.7374 114.795 25.2489 115.035 25.8451C115.276 26.4412 115.334 27.0953 115.203 27.7246C115.072 28.3539 114.758 28.9303 114.299 29.381C113.841 29.8316 113.259 30.1363 112.628 30.2565C111.996 30.3767 111.344 30.3071 110.752 30.0564C110.16 29.8058 109.655 29.3853 109.302 28.8482C108.949 28.311 108.763 27.6812 108.768 27.0384C108.779 26.1761 109.131 25.3532 109.746 24.7486C110.361 24.144 111.19 23.8066 112.052 23.8098ZM99.3699 4.69912C100.017 4.69624 100.65 4.88513 101.19 5.24194C101.729 5.59875 102.151 6.10747 102.401 6.70384C102.652 7.30021 102.72 7.95749 102.598 8.59263C102.475 9.22778 102.167 9.81231 101.712 10.2724C101.257 10.7325 100.676 11.0475 100.043 11.1776C99.4091 11.3077 98.7511 11.2471 98.1519 11.0034C97.5527 10.7597 97.0391 10.3439 96.676 9.80854C96.313 9.27314 96.1168 8.64216 96.1121 7.99528C96.1151 7.12858 96.4581 6.29768 97.0673 5.68127C97.6766 5.06486 98.5034 4.71219 99.3699 4.69912ZM57.6168 115.239H51.8231C51.8231 113.478 51.8231 111.696 51.8231 109.915C51.8231 107.035 51.5296 106.616 48.8001 105.952C43.9422 104.767 39.3004 102.827 35.0438 100.202C33.0509 98.9844 32.3847 99.1018 30.7411 100.737C29.4419 102.03 28.1407 103.324 26.8375 104.617C26.7999 104.653 26.7532 104.678 26.7025 104.69L15.212 93.2139C16.4888 91.9489 17.8535 90.6193 19.186 89.2809C20.8942 87.5785 21.0057 86.9592 19.7437 84.8782C17.0421 80.4407 15.0516 75.6077 13.8443 70.5547C13.3747 68.6117 12.729 68.1567 10.7068 68.1508C8.76093 68.1508 6.81211 68.1508 4.77523 68.1508V51.852H10.6041C12.7819 51.852 13.3601 51.4382 13.8766 49.322C15.0967 44.2762 17.1002 39.453 19.8141 35.0279C20.9881 33.1142 20.8648 32.4156 19.2594 30.8247C17.9034 29.4834 16.5269 28.1626 15.2297 26.8975L26.8375 15.3302C28.1201 16.6304 29.5055 18.0569 30.9142 19.4599C32.323 20.8629 33.1184 21.0009 34.8442 19.9383C39.3363 17.1712 44.2376 15.1315 49.3665 13.8949C51.3799 13.4077 51.8202 12.7649 51.8231 10.6663C51.8231 8.72319 51.8231 6.7772 51.8231 4.75489H57.5728V33.572C49.8156 34.4526 43.4848 37.9307 38.7653 44.1679C35.1964 48.8934 33.5733 54.2823 33.4824 60.2201C33.3151 70.6281 41.5154 84.8958 57.6227 86.5042L57.6168 115.239ZM99.4169 115.304C98.7698 115.31 98.1356 115.123 97.5943 114.769C97.053 114.414 96.629 113.907 96.3759 113.311C96.1228 112.716 96.0519 112.058 96.1723 111.423C96.2926 110.787 96.5988 110.201 97.052 109.739C97.5053 109.277 98.0853 108.96 98.7187 108.828C99.3521 108.695 100.011 108.754 100.611 108.996C101.211 109.238 101.726 109.652 102.091 110.186C102.456 110.721 102.654 111.352 102.66 111.999C102.662 112.865 102.323 113.698 101.716 114.316C101.109 114.934 100.283 115.289 99.4169 115.304Z" fill="#430DDE"/>
<path d="M75.5965 57.7107C74.2229 57.5962 73.2133 58.6705 73.1076 60.3523C73.1076 60.5079 73.1076 60.6634 73.0842 60.819C72.5148 69.0139 64.7429 74.7432 56.886 72.7679C53.8224 72.0222 51.1289 70.1999 49.297 67.6335C47.4651 65.0671 46.6169 61.9277 46.907 58.7879C47.494 52.3306 52.8063 47.2998 59.4599 46.9123C61.2914 46.8066 62.3597 45.8997 62.3098 44.4967C62.254 43.0291 61.0536 42.1486 59.2134 42.2396C54.537 42.4472 50.13 44.4866 46.9447 47.9169C43.7595 51.3473 42.0517 55.8932 42.1905 60.5724C42.4194 70.0969 50.3409 77.7987 59.9383 77.8251C64.5571 77.8284 68.9971 76.0402 72.3246 72.8369C75.652 69.6335 77.6077 65.2645 77.7801 60.6487C77.8418 58.9522 77.0053 57.8251 75.5965 57.7107Z" fill="#430DDE"/>
<path d="M109.258 85.5649C108.501 85.8584 108.084 85.7087 107.541 85.1599C105.668 83.2227 103.725 81.3442 101.847 79.4275C101.49 79.0424 101.053 78.7396 100.567 78.5399C100.081 78.3402 99.5573 78.2485 99.0324 78.2711C96.4174 78.3093 93.8023 78.2711 91.1872 78.2711C88.4547 78.2711 85.7223 78.2505 82.9898 78.2711C81.1466 78.2887 80.0988 79.4452 80.3835 81.0653C80.5948 82.2629 81.5399 82.9438 83.0896 82.9468C87.9675 82.9468 92.8484 82.9292 97.7264 82.982C98.357 83.0149 98.9579 83.2601 99.4316 83.6776C100.952 85.0777 102.323 86.6392 103.86 88.0187C104.776 88.8405 105.084 89.5743 104.447 90.6984C104.225 91.1974 104.107 91.7369 104.101 92.2834C103.976 93.9884 104.4 95.6886 105.311 97.1355C106.221 98.5825 107.57 99.7003 109.161 100.326C110.755 100.944 112.505 101.031 114.153 100.575C115.8 100.119 117.256 99.1431 118.305 97.7931C119.354 96.4431 119.939 94.7907 119.974 93.0816C120.008 91.3724 119.49 89.6977 118.497 88.3063C116.32 85.3624 112.668 84.2412 109.258 85.5649ZM112.037 96.2077C111.395 96.2025 110.768 96.0072 110.236 95.6463C109.705 95.2855 109.291 94.7753 109.049 94.1801C108.807 93.5849 108.746 92.9312 108.875 92.3016C109.003 91.6719 109.315 91.0944 109.772 90.6418C110.228 90.1892 110.808 89.8818 111.438 89.7583C112.069 89.6349 112.722 89.7008 113.315 89.948C113.909 90.1951 114.415 90.6123 114.772 91.147C115.128 91.6817 115.319 92.31 115.319 92.9526C115.314 93.8191 114.966 94.6483 114.351 95.2585C113.736 95.8687 112.904 96.21 112.037 96.2077Z" fill="#430DDE"/>
<path d="M114.961 52.6533C111.538 51.3266 107.385 52.2805 105.686 55.4563C104.512 57.6694 103.045 57.8837 101.063 57.6812C100.946 57.6812 100.829 57.6812 100.711 57.6812C99.7339 57.6812 98.7595 57.6518 97.7762 57.6812C96.1825 57.7457 95.1348 58.7554 95.1758 60.1085C95.2169 61.4616 96.2471 62.3333 97.8173 62.3539C99.6899 62.3774 101.565 62.395 103.435 62.3539C104.177 62.3333 104.506 62.5916 104.8 63.2697C105.501 64.8754 106.717 66.202 108.255 67.0406C109.793 67.8792 111.567 68.182 113.296 67.9013C116.901 67.3143 119.607 64.3791 119.968 60.6192C120.285 57.2908 118.154 53.886 114.961 52.6533ZM112.081 63.2931C111.652 63.2986 111.226 63.2194 110.827 63.06C110.428 62.9007 110.065 62.6644 109.757 62.3646C109.45 62.0648 109.205 61.7073 109.035 61.3127C108.866 60.918 108.776 60.4939 108.771 60.0645C108.766 59.6347 108.845 59.2081 109.005 58.8091C109.164 58.41 109.401 58.0463 109.701 57.7388C110.001 57.4312 110.359 57.1857 110.754 57.0165C111.149 56.8472 111.574 56.7574 112.004 56.7522C112.433 56.747 112.86 56.8265 113.259 56.9861C113.658 57.1458 114.022 57.3825 114.329 57.6827C114.637 57.9829 114.882 58.3408 115.051 58.7359C115.221 59.1309 115.311 59.5555 115.316 59.9852C115.324 60.8525 114.989 61.6878 114.382 62.3079C113.776 62.928 112.949 63.2823 112.081 63.2931Z" fill="#430DDE"/>
<path d="M81.8128 59.9766C81.8164 60.4342 81.9547 60.8807 82.2104 61.2602C82.466 61.6398 82.8278 61.9357 83.2505 62.111C83.6732 62.2863 84.1382 62.3333 84.5874 62.246C85.0366 62.1588 85.4502 61.9412 85.7766 61.6204C86.103 61.2996 86.3277 60.8898 86.4228 60.4422C86.5178 59.9945 86.4789 59.5287 86.311 59.103C86.143 58.6773 85.8535 58.3105 85.4784 58.0483C85.1034 57.786 84.6594 57.64 84.2019 57.6285C83.8894 57.6202 83.5784 57.675 83.2875 57.7895C82.9966 57.9041 82.7318 58.076 82.5088 58.2952C82.2858 58.5144 82.1093 58.7762 81.9897 59.0651C81.8701 59.354 81.81 59.664 81.8128 59.9766Z" fill="#430DDE"/>
<path d="M70.6951 80.6839C70.7126 81.1358 70.8631 81.5725 71.1279 81.9391C71.3926 82.3057 71.7598 82.586 72.1833 82.7447C72.6067 82.9034 73.0676 82.9334 73.5081 82.831C73.9486 82.7287 74.349 82.4984 74.6591 82.1693C74.9692 81.8401 75.1752 81.4266 75.2511 80.9808C75.3271 80.535 75.2697 80.0767 75.0861 79.6634C74.9024 79.2501 74.6008 78.9003 74.2191 78.6578C73.8374 78.4153 73.3925 78.2911 72.9404 78.3006C72.3295 78.3272 71.7531 78.5912 71.3338 79.0363C70.9145 79.4814 70.6854 80.0725 70.6951 80.6839Z" fill="#430DDE"/>
<path d="M47.8491 30.2378C49.4546 29.5598 50.0269 28.2977 49.4575 27.0092C48.8881 25.7206 47.6055 25.3273 46.094 25.9232C32.9041 31.1184 23.5151 44.5466 23.2011 58.6558C23.2011 59.1225 23.1747 59.595 23.2011 60.0588C23.2168 60.6297 23.44 61.1753 23.829 61.5935C24.218 62.0116 24.746 62.2737 25.3143 62.3306C25.8834 62.3761 26.4489 62.2071 26.8997 61.8568C27.3505 61.5065 27.6539 61.0002 27.7503 60.4374C27.8401 59.9394 27.8872 59.4347 27.8912 58.9287C28.1847 51.544 30.6471 44.9927 35.3872 39.3191C38.78 35.2481 42.9829 32.2924 47.8491 30.2378Z" fill="#430DDE"/>
</g>
<defs>
<clipPath id="clip0_542_1670">
<rect width="120" height="120" fill="white"/>
</clipPath>
</defs>
</svg>
