<svg width="120" height="120" viewBox="0 0 120 120" fill="none" xmlns="http://www.w3.org/2000/svg">
<path d="M119.997 95.8747C119.928 95.9623 119.825 96.0405 119.793 96.1407C118.353 101.132 114.95 103.736 109.776 103.749C103.411 103.764 97.0436 103.749 90.6791 103.749H12.174C7.19635 103.749 3.65569 101.351 2.33147 97.042C2.06201 96.1881 1.91961 95.2992 1.90884 94.4038C1.88379 77.5734 1.87753 60.7429 1.89006 43.9124C1.89006 42.5229 2.57878 41.6655 3.69013 41.6373C4.80148 41.6091 5.63421 42.5542 5.63421 43.9218C5.63421 55.1693 5.63421 66.4156 5.63421 77.661V79.1506H116.24V77.9332C116.24 60.408 116.24 42.8755 116.24 25.3357C116.24 21.1766 113.855 18.7638 109.716 18.7638H49.8534C49.4265 18.805 48.9958 18.7807 48.5762 18.6918C48.1717 18.5891 47.8173 18.3454 47.5768 18.0046C47.3363 17.6637 47.2255 17.2482 47.2645 16.8329C47.2774 16.3966 47.4436 15.9787 47.7337 15.6526C48.0239 15.3264 48.4197 15.1128 48.8517 15.049C49.2388 14.9988 49.6302 14.9894 50.0194 15.0209H109.888C115.041 15.0209 118.475 17.6778 119.818 22.6913C119.864 22.7978 119.925 22.8969 120 22.9855L119.997 95.8747ZM116.428 83.4443H5.73125C5.69329 83.5457 5.665 83.6505 5.64673 83.7573C5.64673 86.8868 5.75316 90.0162 5.59977 93.127C5.41193 96.9606 7.98213 99.9555 12.3649 99.9399C40.7936 99.8398 69.2254 99.8898 97.654 99.8898C101.949 99.8898 106.244 99.9055 110.543 99.8898C113.673 99.8898 115.971 97.8525 116.325 94.7418C116.491 93.2772 116.412 91.7813 116.422 90.2979C116.441 88.0259 116.431 85.7695 116.431 83.4349L116.428 83.4443Z" fill="#430DDE"/>
<path d="M36.0977 119.997C35.2149 119.418 34.5982 118.67 34.9895 117.562C35.3808 116.454 36.2417 116.21 37.3312 116.235C39.3159 116.285 41.3007 116.251 43.4483 116.251V112.348C43.4483 111.491 43.4232 110.63 43.4483 109.773C43.5046 108.443 44.3217 107.557 45.3986 107.601C46.4755 107.645 47.277 108.59 47.2957 109.873C47.3177 110.928 47.2957 111.982 47.2957 113.034V116.163H74.3689V112.345C74.3689 111.563 74.3689 110.78 74.3689 110.001C74.3971 108.534 75.0983 107.635 76.2128 107.601C77.3273 107.566 78.2101 108.571 78.2226 109.995C78.2226 112.023 78.2226 114.063 78.2226 116.254C80.4453 116.254 82.6054 116.179 84.7811 116.298C85.5216 116.37 86.2088 116.715 86.7096 117.265C87.3732 118.063 86.9631 118.967 85.7704 120L36.0977 119.997Z" fill="#430DDE"/>
<path d="M81.5629 34.984C81.264 35.814 80.917 36.6259 80.5236 37.4156C80.1267 38.134 79.6327 38.7943 79.0553 39.3778C78.0974 40.3166 77.9972 41.293 78.7955 42.3164C79.0971 42.7101 79.5124 43.0017 79.9851 43.152C80.8946 43.3593 81.8156 43.5129 82.7431 43.612C84.8594 43.925 86.3339 45.2738 86.5969 47.4081C86.7503 48.6862 86.7408 49.9786 86.5687 51.2542C86.2901 53.3072 84.8187 54.6967 82.812 55.0284C82.1202 55.1442 81.422 55.2256 80.7271 55.3101C79.1618 55.5041 78.664 55.8984 78.3478 57.46C78.3261 57.8373 78.4418 58.2097 78.6734 58.5084C79.2651 59.3784 79.9444 60.189 80.5517 61.0527C81.6819 62.6769 81.6287 64.4952 80.389 66.0286C79.7786 66.7924 79.1287 67.5236 78.4417 68.2193C77.7411 68.9673 76.792 69.4348 75.7717 69.5344C74.7514 69.634 73.7298 69.359 72.8975 68.7607C71.8644 68.0628 70.872 67.3023 69.8546 66.57C68.9154 65.9066 67.178 66.5544 66.9494 67.681C66.7084 68.8608 66.5988 70.0719 66.3421 71.2486C65.9289 73.142 64.6673 74.3625 62.7357 74.5565C61.4191 74.6875 60.0921 74.6728 58.7787 74.5127C57.0663 74.3124 55.6638 72.8415 55.335 71.1297C55.1252 70.2192 54.9736 69.2962 54.8811 68.3664C54.8279 67.4745 54.4648 67.0676 53.6289 66.6577C52.5708 66.1256 51.8695 66.2602 51.0524 67.0019C50.3492 67.6206 49.5964 68.1805 48.8016 68.6762C48.0138 69.2006 47.0702 69.4397 46.1276 69.3537C45.1851 69.2678 44.3003 68.8619 43.6205 68.2036C42.8341 67.4441 42.1018 66.6306 41.4291 65.7689C40.2395 64.2573 40.2144 62.4798 41.307 60.8869C41.8141 60.1483 42.3714 59.4441 42.9098 58.7275C44.1621 57.0657 43.4827 55.3789 41.4197 55.0222C40.6903 54.897 39.9608 54.7656 39.2283 54.6466C36.9868 54.2867 35.6501 52.7689 35.6125 50.4938C35.6125 49.6332 35.6125 48.7757 35.6125 47.9151C35.5894 46.8312 35.9643 45.7765 36.6663 44.9502C37.3683 44.1239 38.3488 43.5833 39.4224 43.4305C40.1111 43.3147 40.8061 43.2052 41.5042 43.1582C42.5905 43.0831 43.3325 42.7545 43.6956 41.5528C43.9304 40.8142 43.9648 40.3761 43.442 39.8159C42.7658 39.1681 42.1813 38.4311 41.7046 37.6253C41.2381 36.7302 40.7873 35.6912 40.7873 34.718C40.7873 31.7105 45.1294 28.2587 47.828 29.16C49.1084 29.5856 50.1947 30.6089 51.3592 31.3757C51.954 31.7668 52.4174 32.3552 53.3158 31.8952C54.2143 31.4351 55.0721 31.0471 55.0846 29.7702C55.1278 28.7968 55.279 27.8311 55.5354 26.8911C55.7299 26.0074 56.2135 25.2138 56.9097 24.6357C57.606 24.0576 58.4751 23.728 59.3797 23.699C60.4318 23.6395 61.4864 23.6395 62.5385 23.699C63.5015 23.7414 64.4213 24.1108 65.1459 24.7464C65.8704 25.382 66.3565 26.2456 66.5237 27.1946C66.7178 28.2274 66.8367 29.2726 66.9995 30.3241C67.178 31.529 69.169 32.4209 70.1583 31.723C70.9847 31.1378 71.7674 30.4869 72.6064 29.9173C74.6725 28.509 77.0173 28.7876 78.7204 30.6214C79.3115 31.1893 79.85 31.8093 80.3295 32.4741C80.7952 33.2828 81.2073 34.1212 81.5629 34.984ZM74.8948 33.2471L71.6797 35.6349C71.0864 36.1138 70.368 36.4123 69.61 36.495C68.8519 36.5776 68.086 36.441 67.4034 36.1012C66.9432 35.8884 66.483 35.6818 66.0165 35.4753C64.2603 34.743 63.3931 33.3504 63.0895 31.5446C62.9361 30.6214 62.7576 29.7014 62.6731 28.7719C62.6105 28.0928 62.263 27.9238 61.6682 27.9582C61.3185 27.9942 60.966 27.9942 60.6163 27.9582C59.7304 27.8237 59.4455 28.3025 59.3641 29.0661C59.2389 30.0707 58.9665 31.0658 58.9415 32.0704C58.8695 35.2281 52.4831 37.8256 50.1383 35.4659C49.2774 34.599 48.1754 33.97 47.2081 33.2502C44.879 35.3188 44.879 35.3188 46.6008 37.6159C46.9514 38.0822 47.302 38.5547 47.6245 39.0398C48.0091 39.5844 48.2471 40.2188 48.3156 40.882C48.3842 41.5451 48.2809 42.2148 48.0158 42.8265C47.7591 43.4743 47.4711 44.1159 47.1737 44.7511C46.8693 45.4526 46.3857 46.0616 45.7713 46.517C45.157 46.9724 44.4335 47.2581 43.6737 47.3455C42.7126 47.4895 41.7421 47.6115 40.7967 47.8306C40.6332 47.8753 40.4821 47.957 40.3551 48.0693C40.2281 48.1816 40.1285 48.3216 40.0642 48.4784C39.6572 50.669 39.9483 51.0508 42.099 51.4138C42.5216 51.4827 42.9443 51.5609 43.37 51.6048C45.4706 51.8238 46.9326 52.8565 47.6276 54.8938C47.7514 55.2218 47.8935 55.5426 48.0534 55.8546C48.8329 57.4945 48.6513 59.0123 47.5274 60.4456C46.7417 61.4439 45.9997 62.4798 45.2734 63.453C45.338 63.5609 45.408 63.6653 45.4832 63.766C47.2425 65.7094 47.2363 65.7 49.3056 64.1885C50.1101 63.6033 50.8709 62.8178 51.81 62.5643C54.8373 61.7162 58.475 64.3043 58.8757 67.415C59.0166 68.5228 59.2201 69.6213 59.3954 70.7354H62.3945C62.4884 70.1596 62.5635 69.662 62.6512 69.1706C62.8421 68.0972 62.9392 66.9956 63.2522 65.9629C63.8126 64.1009 65.4843 63.4875 67.0872 62.8334C68.7683 62.1512 70.3398 62.2294 71.8143 63.3967C72.7754 64.1603 73.7866 64.8645 74.7414 65.5717C77.0455 63.5626 77.0455 63.5626 75.5585 61.1748C75.1951 60.667 74.8707 60.1324 74.588 59.5756C74.3219 58.9497 73.9619 58.2205 74.0464 57.5852C74.3376 55.1536 75.6117 51.6392 79.0366 51.4201C79.694 51.3794 80.342 51.151 80.9994 51.1416C82.0388 51.1259 82.405 50.7254 82.3549 49.6519C82.2673 47.7461 82.333 47.7398 80.4985 47.4206C80.0005 47.3265 79.4979 47.2586 78.9927 47.2172C75.7432 47.0138 74.707 44.748 73.8993 41.5497C73.4641 39.8316 74.6412 38.6173 75.5835 37.3718C77.2114 35.1623 77.2083 35.1624 74.8948 33.2471Z" fill="#430DDE"/>
<path d="M34.6796 40.1101C33.0861 40.2603 32.0311 39.021 30.757 38.2324C30.3711 37.9505 29.9175 37.7756 29.4421 37.7254C28.6 37.7254 28.0177 38.1604 27.9645 39.1368C27.905 39.8345 27.8005 40.5275 27.6515 41.2117C27.48 42.1834 26.9832 43.068 26.2426 43.7203C25.5019 44.3726 24.5614 44.7537 23.5755 44.8012C23.4189 44.8012 23.2624 44.8262 23.109 44.8325C18.8295 44.9827 17.5523 43.9124 16.8823 39.672C16.8009 39.1556 16.7227 38.4921 16.3814 38.1917C15.7772 37.6597 15.0572 37.4062 14.2057 38.0853C12.8783 39.1431 11.5541 40.276 9.63193 40.1195C7.30905 39.938 6.20396 38.223 5.16148 36.5612C4.24423 35.1092 4.56668 33.5663 5.59664 32.1799C5.99109 31.6479 6.37301 31.1065 6.75494 30.5651C7.57515 29.3978 7.1087 28.2555 5.69682 27.9833C5.04879 27.8581 4.39137 27.7642 3.73708 27.6703C1.4142 27.2917 0.0117116 25.6612 0.00231987 23.3235C0.00231987 22.7789 0.00231987 22.2313 0.00231987 21.6836C-0.0316972 20.6603 0.309361 19.6599 0.96138 18.8704C1.6134 18.0808 2.53147 17.5566 3.54299 17.3962C4.22858 17.2647 4.92983 17.1865 5.61542 17.0488C7.11496 16.7359 7.5595 15.6405 6.71425 14.3606C6.22275 13.6126 5.69055 12.8834 5.24914 12.1042C4.78679 11.3695 4.58709 10.4999 4.6826 9.63713C4.77812 8.7744 5.16321 7.96947 5.77508 7.35361C7.09618 5.90152 8.46737 4.23975 10.6838 4.79993C12.0237 5.14105 13.1883 6.12372 14.4593 6.77778C14.8387 6.98111 15.2622 7.08855 15.6927 7.09073C16.5192 7.05318 16.9856 6.58688 17.0451 5.70123C17.0889 5.04404 17.2423 4.3931 17.3582 3.74217C17.7432 1.42008 19.3742 0.0274487 21.7159 0.0211897C22.4954 -0.0164666 23.2765 -0.00392419 24.0544 0.0587422C25.6197 0.255901 27.0379 1.70486 27.4042 3.41357C27.5669 4.17404 27.6953 4.94389 27.8393 5.70749C28.096 7.05005 29.2293 7.55077 30.3437 6.81221C31.0638 6.34278 31.7713 5.87335 32.4882 5.38828C33.0313 4.99829 33.6661 4.75531 34.331 4.68293C34.9958 4.61055 35.668 4.71123 36.2824 4.97519C37.992 5.69931 39.3497 7.06436 40.0642 8.77753C40.3027 9.33876 40.392 9.95211 40.3235 10.558C40.2549 11.164 40.0308 11.7419 39.6728 12.2356C39.2252 12.921 38.7337 13.5782 38.2641 14.2479C37.3907 15.4997 37.8978 16.6576 39.4005 16.8798C39.438 16.8798 39.4787 16.8798 39.5163 16.8798C45.3924 17.5057 45.1513 20.2002 44.9478 24.0777C44.8602 25.6925 43.3825 27.0257 41.6106 27.4043C40.8468 27.5639 40.0798 27.7016 39.3159 27.8456C37.9729 28.0991 37.4689 29.2351 38.2015 30.3492C38.7149 31.1347 39.2596 31.9139 39.7448 32.6963C40.0674 33.1963 40.2666 33.7657 40.3259 34.3576C40.3853 34.9496 40.303 35.5472 40.0861 36.1012C39.366 38.1354 36.7583 40.1132 34.6796 40.1101ZM23.5661 41.268C24.1358 38.5047 24.0106 35.6975 27.3415 34.3612C30.6725 33.0249 32.5383 35.0998 34.6702 36.5268L36.3357 34.8901C35.7095 34.0232 35.0271 33.172 34.4855 32.2363C34.0991 31.6167 33.8612 30.9162 33.7905 30.1896C33.714 28.7605 34.1749 27.3546 35.0826 26.2479C35.9904 25.1413 37.2793 24.4141 38.6961 24.2091C39.1938 24.1246 39.6885 23.9994 40.1925 23.9587C41.4447 23.8649 40.9407 22.9291 41.0315 22.2813C41.1223 21.6335 40.9501 21.1797 40.1487 21.1078C39.1406 21.017 38.1451 20.8167 37.1465 20.6509C36.5437 20.5637 35.9723 20.327 35.4845 19.9624C34.9968 19.5978 34.6081 19.1168 34.354 18.5635C33.1863 16.1757 32.8576 13.9068 34.8643 11.6504C36.295 10.0387 36.1603 9.91667 34.3509 8.49901C33.6715 8.98408 32.8764 9.38153 32.2972 9.98552C29.6863 12.7176 23.8917 9.98552 23.6725 6.38659C23.5714 5.52463 23.4124 4.67044 23.1967 3.82979H21.1117C20.4418 6.36782 20.7141 9.21566 17.5084 10.6365C14.1838 12.1073 12.3211 9.95422 10.0827 8.4771L8.45797 10.1044C9.13104 11.0621 9.83229 11.9821 10.4678 12.9711C11.2066 14.1102 11.4602 15.3244 10.8622 16.6326C10.6368 17.1239 10.5054 17.6622 10.28 18.1566C9.69768 19.4272 8.78042 20.3473 7.37166 20.6383C6.45754 20.8324 5.52464 20.9294 4.6199 21.1484C4.30685 21.2236 3.86856 21.4864 3.79969 21.7493C3.4115 23.1826 3.79969 23.7334 5.23975 24.0213C5.86586 24.1402 6.46067 24.2748 7.07113 24.3906C10.5648 25.0603 12.4244 29.5731 10.3989 32.4804C9.8229 33.3066 9.23748 34.1296 8.65833 34.9464L10.0984 36.3891C10.9643 35.7178 11.864 35.0911 12.7938 34.5114C13.4556 34.1158 14.1983 33.8751 14.9664 33.8073C16.3628 33.7632 17.7274 34.2295 18.8044 35.119C19.8815 36.0085 20.5972 37.2601 20.8174 38.6392C20.8813 39.2196 20.9859 39.7948 21.1305 40.3604C21.1923 40.5171 21.2859 40.6592 21.4056 40.7777C21.5252 40.8963 21.6682 40.9886 21.8255 41.0489C22.4016 41.1713 22.987 41.2446 23.5755 41.268H23.5661Z" fill="#430DDE"/>
<path d="M60.9513 97.3111C60.2102 97.3207 59.4747 97.1822 58.7879 96.9037C58.1011 96.6252 57.4769 96.2123 56.9519 95.6893C56.427 95.1663 56.0119 94.5437 55.731 93.8581C55.4501 93.1725 55.3091 92.4376 55.3163 91.6968C55.313 90.9568 55.4556 90.2234 55.7359 89.5385C56.0163 88.8535 56.4288 88.2306 56.9501 87.7051C57.4714 87.1797 58.0911 86.7621 58.7739 86.4761C59.4567 86.1902 60.1891 86.0415 60.9294 86.0387C62.4239 86.0387 63.8572 86.6321 64.9139 87.6885C65.9707 88.745 66.5644 90.1778 66.5644 91.6718C66.574 92.4126 66.4356 93.1479 66.1572 93.8346C65.8789 94.5213 65.4663 95.1455 64.9435 95.6708C64.4207 96.196 63.7983 96.6116 63.1128 96.8933C62.4273 97.175 61.6924 97.317 60.9513 97.3111ZM62.8046 91.5028C62.7669 91.017 62.5481 90.5631 62.1916 90.231C61.835 89.8989 61.3666 89.7128 60.8793 89.7096C60.3927 89.7219 59.9308 89.9263 59.5946 90.2782C59.2584 90.6301 59.0754 91.1008 59.0855 91.5872C59.1184 92.0747 59.3431 92.5294 59.7102 92.8519C60.0774 93.1744 60.5574 93.3385 61.0452 93.3085C61.5146 93.287 61.9581 93.0872 62.2851 92.7498C62.6121 92.4125 62.7979 91.9631 62.8046 91.4934V91.5028Z" fill="#430DDE"/>
<path d="M60.9325 59.8197C58.091 59.8214 55.365 58.6954 53.3534 56.6892C51.3417 54.6829 50.209 51.9605 50.2041 49.1199C50.2197 43.3084 55.1472 38.4483 61.0108 38.4577C63.8318 38.4724 66.5335 39.5973 68.5309 41.5888C70.5283 43.5802 71.6607 46.278 71.6829 49.098C71.7079 54.9032 66.7773 59.8228 60.9325 59.8197ZM67.8197 49.145C67.7995 47.3348 67.0799 45.6026 65.8115 44.3107C64.543 43.0187 62.824 42.2671 61.0139 42.2131C57.3042 42.1631 54.0828 45.377 54.0766 49.1356C54.0908 50.9455 54.8097 52.6786 56.0809 53.9675C57.352 55.2563 59.0754 55.9994 60.8855 56.0393C62.7155 56.0327 64.4691 55.3053 65.7661 54.0146C67.063 52.724 67.7987 50.9743 67.8135 49.145H67.8197Z" fill="#430DDE"/>
<path d="M31.884 22.4816C31.884 27.8424 27.7892 31.8889 22.3452 31.8952C16.9011 31.9014 12.7187 27.8268 12.7093 22.5348C12.7097 21.2737 12.9588 20.0251 13.4423 18.8603C13.9258 17.6955 14.6343 16.6374 15.5272 15.7466C16.4201 14.8557 17.4799 14.1496 18.646 13.6685C19.8122 13.1874 21.0617 12.9408 22.3232 12.9429C27.7485 12.9429 31.8777 17.0488 31.884 22.4816ZM22.3389 16.7327C20.8235 16.7375 19.3705 17.3371 18.2931 18.4025C17.2157 19.4678 16.6 20.9136 16.5787 22.4284C16.5646 23.1885 16.7006 23.944 16.979 24.6515C17.2574 25.359 17.6727 26.0046 18.2011 26.5514C18.7295 27.0982 19.3606 27.5355 20.0582 27.8381C20.7559 28.1407 21.5065 28.3028 22.2669 28.315C25.3348 28.3619 28.1054 25.6925 28.1242 22.6631C28.143 19.6338 25.3661 16.7671 22.3389 16.7327Z" fill="#430DDE"/>
</svg>
