<svg width="120" height="120" viewBox="0 0 120 120" fill="none" xmlns="http://www.w3.org/2000/svg">
<g clip-path="url(#clip0_542_1646)">
<path d="M117.871 81.3569C116.363 79.7161 114.782 78.1452 113.126 76.6443C111.028 74.7436 108.468 74.0829 105.815 74.9941C104.304 75.5139 103.418 75.2384 102.567 74.0861C102.389 73.8789 102.197 73.6843 101.993 73.5036L96.2205 67.7515C98.5444 65.3905 99.5211 62.6819 98.7077 59.5413C97.8943 56.4006 95.7086 54.431 92.5901 53.5449C93.4035 48.5129 91.3339 44.8211 86.3092 43.1459C86.8211 40.9039 86.6232 38.7433 85.3922 36.7362C84.1611 34.729 82.3553 33.5485 80.1507 32.9285C80.1853 32.5903 80.201 32.3555 80.2387 32.1238C80.9892 27.4269 78.1 23.3812 73.3831 22.5953C72.4252 22.4356 71.4203 22.5389 70.4687 22.3667C65.3875 21.4273 60.3219 20.4285 55.2406 19.511C52.9889 19.1071 50.7309 18.9004 48.6708 20.3345C48.245 20.6053 47.7337 20.709 47.2356 20.6257C42.6819 19.6644 38.345 22.2258 37.3337 26.6754C37.0197 28.0062 37.1736 29.4371 37.1076 30.9276C36.0499 31.196 35.0558 31.6699 34.1822 32.3222C33.3086 32.9746 32.5728 33.7925 32.017 34.729C30.8142 36.7362 30.6226 38.903 31.1156 41.1262C25.4628 42.7294 22.9505 48.6006 25.9684 53.764C20.369 56.0624 18.535 62.9074 23.2394 67.789C23.0886 67.955 22.9473 68.1335 22.784 68.2963C20.4852 70.5853 18.1958 72.893 15.853 75.1382C15.6206 75.3605 15.002 75.3386 14.622 75.229C11.6762 74.3741 9.00997 74.8657 6.74256 76.9261C5.14721 78.3978 3.57697 79.9634 2.10096 81.5667C0.740419 83.0092 -0.014197 84.9165 -0.0077718 86.8967C-0.00134664 88.8769 0.765627 90.7793 2.1355 92.213C3.85333 94.0354 5.64339 95.7858 7.47428 97.508C7.93155 97.9219 8.5024 98.1901 9.1136 98.2783C10.1343 98.4067 10.9319 97.8963 11.3653 96.9381C11.5863 96.4959 11.6544 95.9932 11.559 95.5084C11.4635 95.0236 11.2099 94.5839 10.8377 94.2577C9.18583 92.5888 7.49941 90.9574 5.86009 89.2759C4.50656 87.8918 4.34325 86.1665 5.54605 84.8639C7.00322 83.2983 8.54519 81.7796 10.1217 80.3173C11.1109 79.3998 12.7816 79.3341 13.7175 80.0668C14.3314 80.549 14.9165 81.0665 15.4699 81.6168C19.1903 85.3054 22.9044 89.0034 26.6122 92.7109C30.833 96.9506 35.0161 101.225 39.2369 105.461C41.0803 107.312 41.1211 108.793 39.2808 110.644C38.1503 111.78 37.0197 112.917 35.8734 114.038C34.1493 115.72 32.4535 115.729 30.7482 114.06C29.1529 112.494 27.6078 110.9 25.9998 109.347C24.8661 108.242 23.4247 108.22 22.4637 109.228C21.5027 110.237 21.6063 111.58 22.6741 112.673C23.7921 113.822 24.9792 114.909 26.0689 116.083C27.7397 117.883 29.5486 119.446 32.0358 120.009H34.6204C36.0462 119.242 37.6101 118.65 38.8631 117.664C40.4334 116.44 41.7492 114.918 43.1279 113.478C45.4958 111.001 46.0548 107.672 44.5851 104.597C44.271 103.933 44.3652 103.589 44.852 103.113C47.4774 100.539 50.0338 97.89 52.7031 95.3693C53.3312 94.7775 54.2985 94.4487 55.1684 94.2452C55.9849 94.0542 56.8799 94.1669 57.7404 94.1826C60.2842 94.2327 62.828 94.2797 65.3686 94.3861C65.7783 94.4344 66.1599 94.6186 66.4521 94.909C69.2973 97.7053 72.1049 100.545 74.9533 103.335C75.3898 103.764 75.5343 104.096 75.2673 104.735C73.9829 107.957 74.5858 110.863 76.9757 113.371C78.3261 114.783 79.7236 116.155 81.1337 117.511C84.2742 120.542 89.0445 120.642 92.1473 117.589C100.731 109.128 109.267 100.625 117.755 92.0784C120.716 89.0723 120.716 84.4568 117.871 81.3569ZM51.94 23.7727L64.7813 26.0804L58.6606 32.1645C55.652 30.3546 52.9575 27.9717 51.7139 24.3018C51.783 24.1265 51.8552 23.948 51.94 23.7727ZM42.3679 26.7693C42.753 26.1277 43.3454 25.6357 44.0479 25.374C44.7503 25.1123 45.5211 25.0964 46.2338 25.3289C46.7508 25.5296 47.1726 25.9177 47.4146 26.4155C49.4716 31.3472 53.0392 34.8042 57.8786 36.9146C59.0626 37.4313 59.3955 38.1671 59.4206 39.2099C59.474 41.1513 57.8723 42.6918 55.7996 42.8797C55.0302 42.4727 54.1132 42.2128 53.5134 41.6272C49.9238 38.1515 46.3908 34.6131 42.8704 31.0654C42.2967 30.5209 41.9314 29.7939 41.8374 29.0098C41.7434 28.2256 41.9265 27.4333 42.3553 26.7693H42.3679ZM36.6146 36.5044C37.9807 35.1173 40.0691 35.064 41.5608 36.5044C44.45 39.3226 47.2953 42.1627 50.128 45.0215C50.6321 45.4967 50.9739 46.1177 51.1052 46.7969C51.2364 47.4761 51.1506 48.1793 50.8597 48.8072C50.3038 50.1787 49.2078 50.8269 47.1979 50.9365C46.7708 50.7048 45.7973 50.4073 45.1409 49.7779C42.2862 47.0537 39.4881 44.2481 36.7339 41.4362C35.2642 39.9426 35.2548 37.8853 36.6146 36.5044ZM30.4876 46.7249C31.7155 45.5476 33.7348 45.3315 34.9878 46.5026C37.4437 48.7947 39.8021 51.1995 42.1261 53.6231C42.594 54.1148 42.7291 54.9258 43.018 55.5927C42.861 57.0331 42.2643 58.0977 41.0583 58.724C39.8524 59.3503 38.4361 59.4223 37.4154 58.4735C34.903 56.1313 32.4472 53.7108 30.1138 51.1901C28.9393 49.9188 29.2502 47.9148 30.4876 46.7249ZM26.116 59.3596C27.1775 58.1071 29.0367 57.603 30.3305 58.5706C31.772 59.6508 32.9842 61.0568 34.2059 62.4001C34.5199 62.7571 34.5387 63.4084 34.6235 63.7027C34.5639 65.3059 33.9609 66.3549 32.7581 66.978C31.5553 67.6012 30.2081 67.6043 29.1215 66.6994C28.0084 65.7822 26.9776 64.7701 26.0407 63.6745C24.9918 62.4502 25.0985 60.5495 26.116 59.3596ZM78.7281 100.154L71.5365 92.8956C72.4032 91.8498 73.3454 90.6474 74.3629 89.5076C75.4495 88.2833 75.55 86.9713 74.5482 85.9661C74.3187 85.7197 74.037 85.5274 73.7237 85.4031C73.4103 85.2788 73.0731 85.2257 72.7366 85.2476C72.4001 85.2695 72.0726 85.3658 71.7781 85.5297C71.4836 85.6935 71.2294 85.9207 71.034 86.1947C68.4871 89.5045 65.0671 89.9835 61.2546 89.6391C59.0696 89.4778 56.8774 89.437 54.6879 89.517C53.6862 89.5414 52.6997 89.7663 51.7869 90.1784C50.8741 90.5904 50.0536 91.1812 49.3743 91.9156C46.6389 94.7055 43.8565 97.4516 41.162 100.145L19.4174 78.354C21.6691 76.1057 24.0559 73.6884 26.5023 71.3305C26.7064 71.1332 27.3502 71.2209 27.702 71.3775C32.2337 73.369 37.4374 71.1176 38.9448 66.4676C39.1635 65.6422 39.3396 64.8061 39.4724 63.9626C39.7268 63.9157 40.0565 63.8342 40.3925 63.7935C42.2356 63.5938 43.9533 62.7665 45.2559 61.4512C46.5585 60.1358 47.3664 58.4129 47.5434 56.5728C47.6062 56.0154 47.6753 55.671 48.3756 55.5739C52.7722 54.9477 55.1935 52.5115 55.8499 48.1465C55.8813 47.9211 55.9504 47.6988 55.9943 47.5203C56.8583 47.3889 57.7139 47.208 58.557 46.9786C59.6475 46.6211 60.6499 46.0375 61.4982 45.2663C62.3465 44.495 63.0215 43.5535 63.4789 42.5036C63.9363 41.4537 64.1657 40.3192 64.152 39.1746C64.1383 38.03 63.8819 36.9013 63.3995 35.8625C63.0447 35.0954 63.1734 34.7196 63.7136 34.1873C65.7392 32.2302 67.6988 30.2074 69.7213 28.2379C70.1775 27.7758 70.7552 27.4515 71.388 27.3023C72.0208 27.153 72.683 27.1849 73.2985 27.3943C73.9139 27.6036 74.4576 27.9819 74.8671 28.4857C75.2765 28.9894 75.5349 29.5982 75.6128 30.2419C75.6901 30.7859 75.6332 31.3406 75.4472 31.8578C75.2611 32.375 74.9515 32.8393 74.545 33.2103C73.1883 34.5662 71.8191 35.9064 70.4624 37.281C69.2848 38.474 69.2062 39.9113 70.2175 40.9008C71.2287 41.8902 72.6105 41.7744 73.7693 40.6628C74.5042 39.9614 75.1919 39.2099 75.9394 38.521C76.5735 37.8941 77.4265 37.5364 78.3194 37.523C79.2123 37.5096 80.0757 37.8414 80.7286 38.449C81.0639 38.7522 81.3351 39.1191 81.5261 39.5284C81.7171 39.9376 81.8241 40.3808 81.8408 40.8318C81.8574 41.2829 81.7835 41.7327 81.6232 42.1549C81.463 42.577 81.2196 42.9629 80.9076 43.2899C79.5603 44.7585 78.1 46.1081 76.6994 47.5422C75.4966 48.7634 75.371 50.1412 76.3539 51.1557C77.3369 52.1702 78.8129 52.0794 80.0691 50.8426C80.7694 50.1599 81.4352 49.4398 82.1638 48.7884C83.6523 47.4577 85.6905 47.5078 87.0283 48.8636C87.661 49.4911 88.0238 50.3397 88.0396 51.2294C88.0554 52.119 87.7231 52.9799 87.1131 53.6294C85.8569 54.9821 84.5254 56.2378 83.2347 57.5466C82.0539 58.7428 81.9408 60.1738 82.9206 61.1664C83.9005 62.159 85.3137 62.0839 86.5479 60.8971C87.1948 60.2708 87.804 59.5976 88.4824 59.0183C89.1418 58.4183 90.0098 58.098 90.9022 58.1255C91.7946 58.1529 92.6411 58.526 93.2621 59.1655C93.8964 59.7943 94.2562 60.6473 94.2632 61.5391C94.2703 62.4309 93.9241 63.2895 93.2998 63.9282C91.6071 65.7161 89.8139 67.4102 88.0867 69.1668C87.0974 70.1751 86.9655 71.3587 87.6596 72.3451C87.8396 72.6146 88.075 72.843 88.3501 73.0152C88.6253 73.1874 88.9339 73.2993 89.2557 73.3437C89.5775 73.3881 89.905 73.3639 90.2167 73.2728C90.5284 73.1816 90.8171 73.0255 91.0638 72.8148C91.6731 72.3325 92.2038 71.7501 92.6874 71.2929L100.111 78.7642L78.7281 100.154ZM114.121 89.016C105.797 97.3848 97.4421 105.717 89.0571 114.013C87.5654 115.494 85.8098 115.438 84.2773 113.96C82.9834 112.707 81.7084 111.44 80.4522 110.158C78.9574 108.621 78.9668 106.845 80.5087 105.308C88.8058 97.0247 97.1124 88.7519 105.428 80.4895C106.973 78.952 108.748 78.9614 110.302 80.4645C111.596 81.717 112.909 82.9476 114.109 84.2846C114.677 84.9109 115 85.7688 115.5 86.6393C115.004 87.5224 114.721 88.4179 114.121 89.016ZM27.994 12.9009C29.2502 14.1346 30.698 14.2473 31.7029 13.214C32.7079 12.1807 32.5822 10.806 31.3889 9.59736C29.0189 7.21759 26.6395 4.85034 24.2506 2.49562C23.7827 2.02906 23.365 1.38715 22.7934 1.17109C22.0554 0.895535 21.0819 0.701398 20.4067 0.967557C19.7315 1.23372 19.3326 2.11674 18.7046 2.84632C19.2416 3.70116 19.5431 4.42762 20.0549 4.95054C22.6615 7.63092 25.3309 10.2643 27.994 12.9009ZM91.3653 13.095C92.4142 12.0961 93.4223 11.0565 94.4461 10.0357C96.2215 8.2697 97.9938 6.50157 99.7629 4.73136C100.13 4.39901 100.38 3.95738 100.475 3.47216C100.57 2.98695 100.505 2.4841 100.29 2.03845C99.9011 1.13665 99.1599 0.670083 97.7593 0.657558C97.4986 0.80786 96.8423 1.02392 96.3963 1.45604C93.5574 4.21156 90.755 7.00049 87.9893 9.82281C86.9341 10.8906 86.9404 12.3278 87.9014 13.2672C88.8624 14.2066 90.2536 14.144 91.3653 13.095ZM59.8288 15.2243C61.2012 15.1961 62.1025 14.2066 62.1245 12.6535C62.1434 10.9783 62.1245 9.29989 62.1245 7.62152C62.1245 5.94316 62.1245 4.26479 62.1245 2.58956C62.1057 1.04897 61.1824 0.037568 59.8414 -7.3039e-06C58.5004 -0.0375826 57.4232 1.02079 57.4138 2.57703C57.3929 5.92959 57.3929 9.28527 57.4138 12.6441C57.4232 14.2066 58.4313 15.2556 59.8288 15.2243ZM16.2205 100.821C15.6081 100.846 15.0282 101.102 14.5992 101.539C14.1703 101.975 13.9245 102.558 13.9122 103.169C13.908 103.792 14.1522 104.391 14.591 104.835C15.0298 105.278 15.6272 105.529 16.2519 105.533C16.8765 105.538 17.4773 105.294 17.9219 104.857C18.3666 104.419 18.6187 103.824 18.6229 103.201C18.6196 102.568 18.3649 101.962 17.9146 101.516C17.4643 101.07 16.8552 100.82 16.2205 100.821ZM80.3078 77.8342C79.9935 77.8414 79.6838 77.9111 79.3969 78.0391C79.11 78.1672 78.8517 78.3511 78.637 78.5801C78.4223 78.809 78.2556 79.0784 78.1467 79.3724C78.0378 79.6664 77.9888 79.9791 78.0027 80.2922C78.0104 80.5953 78.0782 80.8939 78.2023 81.1706C78.3263 81.4474 78.5042 81.697 78.7255 81.9048C78.9468 82.1127 79.2073 82.2748 79.4918 82.3818C79.7763 82.4887 80.0793 82.5384 80.3831 82.528C80.9973 82.5199 81.5843 82.274 82.0198 81.8421C82.4553 81.4102 82.7051 80.8263 82.7165 80.214C82.7083 79.5816 82.4511 78.9777 82.0006 78.5326C81.55 78.0874 80.9421 77.8366 80.3078 77.8342Z" fill="#430DDE"/>
</g>
<defs>
<clipPath id="clip0_542_1646">
<rect width="120" height="120" fill="white"/>
</clipPath>
</defs>
</svg>
