<svg width="73" height="74" viewBox="0 0 73 74" fill="none" xmlns="http://www.w3.org/2000/svg">
<path d="M7.56055 74C6.29573 73.4749 4.91036 73.1351 3.78905 72.3881C1.19625 70.6642 0.015625 68.0735 0.015625 64.9442C0.015625 54.6356 0.015625 44.3277 0.015625 34.0203C0.015625 25.6859 0.015625 17.3522 0.015625 9.01906C0.015625 4.69292 2.72706 1.18722 6.79898 0.237434C7.49431 0.0812726 8.20489 0.00485695 8.91722 0.00964092C22.2416 -0.00451572 35.5653 -0.00451572 48.8883 0.00964092C53.9285 0.00964092 57.7574 3.78754 57.7899 8.87814C57.8339 15.8876 57.8071 22.8951 57.8014 29.9046C57.8014 31.1903 56.9403 32.0976 55.798 32.0725C54.6556 32.0474 53.8615 31.1362 53.8596 29.8351C53.8596 22.8739 53.8596 15.9133 53.8596 8.95342C53.8596 6.48245 52.3728 4.6157 50.0555 4.12729C49.6799 4.05959 49.2985 4.03048 48.917 4.04042C35.571 4.04042 22.2237 4.04042 8.87512 4.04042C5.96661 4.04042 3.97083 6.05196 3.97083 8.9901C3.97083 27.6794 3.97083 46.3694 3.97083 65.0601C3.97083 67.9171 5.82118 69.8862 8.65507 70.0117C10.1859 70.0773 11.7167 70.0348 13.2379 70.0348H34.3668C34.677 70.0281 34.9875 70.0377 35.2967 70.0638C35.7042 70.0986 36.0896 70.2653 36.3955 70.5391C36.7013 70.8129 36.9113 71.1791 36.994 71.5831C37.0815 71.973 37.0493 72.3806 36.9017 72.7517C36.754 73.1227 36.4979 73.4396 36.1674 73.6602C35.9952 73.778 35.8191 73.8861 35.6431 74H7.56055Z" fill="white"/>
<path d="M42.5202 74C41.3721 73.4459 40.9703 72.529 41.0143 71.2587C41.0851 69.2395 41.0143 67.2144 41.0411 65.1933C41.0525 64.035 41.6897 63.2242 42.6714 63.035C42.9652 62.9762 43.2683 62.9839 43.5589 63.0575C43.8494 63.1311 44.1202 63.2687 44.3517 63.4605C44.5832 63.6524 44.7696 63.8936 44.8976 64.1668C45.0256 64.4401 45.092 64.7385 45.0919 65.0408C45.1245 66.3921 45.1015 67.7434 45.1015 69.0851C45.1015 69.3186 45.1015 69.5542 45.1015 69.8206H68.9016V68.6912C68.9016 67.56 68.8748 66.4268 68.915 65.2975C68.9571 64.1122 69.8086 63.2783 70.9127 63.2609C72.0168 63.2435 72.9257 63.9906 72.9582 65.1469C73.0271 67.4635 73.0003 69.7684 72.9582 72.0792C72.9429 73.0618 72.2521 73.5946 71.4542 74H42.5202Z" fill="white"/>
<path d="M54.9962 57.261V51.5932C54.9962 47.4299 54.9962 43.2646 54.9962 39.0974C54.9962 37.6284 55.9357 36.6902 57.2407 36.8118C57.6729 36.8434 58.0822 37.02 58.4034 37.3135C58.7245 37.6071 58.939 38.0006 59.0126 38.4314C59.0684 38.7876 59.0928 39.1481 59.0854 39.5086C59.0854 44.9499 59.0854 50.3912 59.0854 55.8325V56.8441C59.3322 56.6414 59.491 56.5275 59.6307 56.3943C61.1194 54.9683 62.6075 53.5417 64.0949 52.1145C65.0727 51.1801 66.3222 51.1492 67.145 52.0372C67.9678 52.9253 67.8855 54.1395 66.8809 55.1047C64.0745 57.7919 61.268 60.4752 58.4615 63.1547C57.3326 64.23 56.3203 64.2261 55.2086 63.1547C52.5743 60.64 49.9395 58.124 47.3039 55.6066C46.7567 55.0854 46.3759 54.4947 46.4543 53.7109C46.4735 53.3217 46.6089 52.9474 46.8429 52.6373C47.0768 52.3272 47.3983 52.0958 47.7651 51.9735C48.1225 51.8267 48.5149 51.7896 48.893 51.8669C49.2712 51.9441 49.6184 52.1323 49.891 52.4079C51.351 53.7939 52.8014 55.1897 54.2576 56.5796C54.4604 56.7765 54.669 56.958 54.9962 57.261Z" fill="white"/>
<path d="M28.6224 21.2446H12.2926C11.0297 21.2446 10.1342 20.3933 10.1476 19.2273C10.161 18.0613 11.0412 17.2968 12.2907 17.2968H44.8757C46.0793 17.2968 46.8007 17.7312 47.0935 18.6211C47.5355 19.9724 46.5787 21.235 45.0938 21.2388C41.4582 21.2485 37.8359 21.2388 34.2079 21.2388L28.6224 21.2446Z" fill="white"/>
<path d="M21.4468 36.6882C18.5115 36.6882 15.5762 36.6882 12.6447 36.6882C11.3474 36.6882 10.4786 35.9527 10.4155 34.8408C10.3705 34.356 10.5088 33.872 10.8026 33.4857C11.0964 33.0994 11.5241 32.8395 11.9999 32.7578C12.2347 32.7153 12.4731 32.6959 12.7117 32.6999C18.5568 32.6999 24.4025 32.6999 30.2489 32.6999C31.5673 32.6999 32.4322 33.4065 32.5126 34.5126C32.6044 35.7925 31.728 36.6824 30.3255 36.6882C27.3634 36.6882 24.4051 36.6882 21.4468 36.6882Z" fill="white"/>
</svg>
