<svg width="120" height="120" viewBox="0 0 120 120" fill="none" xmlns="http://www.w3.org/2000/svg">
<g clip-path="url(#clip0_542_1649)">
<path d="M115.839 99.2534C104.738 89.1682 93.6518 79.0684 82.5804 68.9539C81.0562 67.5683 79.538 66.1738 78.005 64.7735C78.1606 64.4799 78.2546 64.2656 78.3721 64.0689C81.7158 58.5394 83.7267 52.308 84.2455 45.8675C84.9954 36.7512 83.0238 28.2728 78.331 20.4325C73.8481 12.8842 67.0767 6.95932 58.9986 3.51699C50.8521 -0.0322822 42.3885 -0.886574 33.6812 0.892465C25.7397 2.47658 18.4408 6.36371 12.6954 12.0687C7.34178 17.3324 3.52406 23.5914 1.61813 30.9042C0.86046 33.8399 0.525672 36.8608 0 39.8434V44.7666C0.0759013 45.0255 0.133803 45.2894 0.173274 45.5563C0.45016 49.3728 1.27399 53.1297 2.61954 56.712C6.71332 67.5095 13.9318 75.5534 24.41 80.3797C36.3976 85.9018 48.5175 85.7902 60.5315 80.2388C61.9705 79.5753 63.3479 78.7709 64.8074 78.0047C65.0159 78.2425 65.1921 78.4509 65.3742 78.6506C76.2107 90.502 87.0882 102.312 97.8542 114.228C100.447 117.1 103.211 119.436 107.158 120H109.507C109.725 119.922 109.948 119.859 110.174 119.812C112.683 119.432 114.998 118.237 116.761 116.412C118.523 114.586 119.636 112.231 119.927 109.71C120.361 105.53 118.952 102.083 115.839 99.2534ZM42.2476 79.728C21.5437 79.681 4.62532 62.742 4.69286 42.1509C4.76334 21.4865 21.6495 4.6443 42.2505 4.69421C62.9338 4.74118 79.8581 21.7213 79.7758 42.3182C79.6936 63.0355 62.9073 79.7749 42.2476 79.728ZM69.0128 75.5974L75.6556 68.9803C77.077 70.272 78.8214 71.8632 80.5012 73.3986L73.4531 80.4443L69.0128 75.5974ZM114.406 111.798C112.276 115.561 107.031 116.451 103.783 113.597C103.458 113.321 103.148 113.027 102.855 112.717C94.3272 103.367 85.8 94.0141 77.2738 84.657C77.1181 84.4867 76.9801 84.3018 76.9008 84.2049L84.2426 76.8275C85.7667 78.2102 87.3555 79.6487 88.9413 81.0901C96.8274 88.2748 104.711 95.4594 112.591 102.644C115.486 105.286 116.15 108.7 114.391 111.798H114.406Z" fill="#430DDE"/>
<path d="M71.1302 26.6856C70.1728 24.7891 68.8249 23.0688 67.521 21.3749C66.7515 20.3709 65.4271 20.3445 64.4639 21.052C64.0008 21.3886 63.6811 21.8868 63.568 22.4478C63.4549 23.0089 63.5566 23.592 63.853 24.0816C64.0727 24.4502 64.316 24.8042 64.5813 25.1414C71.9554 35.0406 72.4165 47.262 65.803 57.6808C59.2394 68.0204 45.4398 72.8702 33.8251 69.089C21.6084 65.117 13.3474 53.4358 14.2666 40.4893C14.9332 31.095 19.259 23.7558 27.1089 18.63C33.9367 14.1912 41.4371 13.1637 49.3515 15.025C50.9667 15.4037 52.2089 14.7314 52.5173 13.4426C52.8521 12.0335 52.0797 10.8357 50.3999 10.5069C47.7569 10.0049 45.1138 9.64382 43.5398 9.39722C32.6299 9.6673 24.3483 13.1872 17.7437 20.5147C8.73677 30.4961 6.87782 45.8499 13.3004 57.6368C19.9345 69.8082 32.6592 76.4488 46.4559 74.7255C56.2645 73.4984 64.1291 68.7044 69.5003 60.4609C76.5602 49.6399 76.942 38.2435 71.1302 26.6856Z" fill="#430DDE"/>
<path d="M49.607 51.005C48.7615 49.1068 48.0242 47.1622 47.3986 45.1806C46.5675 42.6882 46.1916 42.4181 43.5251 42.4181C43.3295 42.4049 43.1333 42.4049 42.9377 42.4181C42.1918 42.5208 41.8717 42.2478 41.6808 41.464C40.4357 36.3118 39.1288 31.1743 37.8279 26.0339C37.4314 24.4721 36.6532 23.7088 35.4785 23.6853C34.3038 23.6618 33.4228 24.4427 33.0175 26.0544C31.7254 31.1567 30.4156 36.256 29.1998 41.373C28.9854 42.2537 28.6125 42.4592 27.7784 42.4357C25.7903 42.3858 23.7962 42.4034 21.8022 42.4357C20.1195 42.4533 19.0123 43.428 19.0417 44.8166C19.0711 46.2051 20.14 47.1035 21.7611 47.1152C24.6508 47.1328 27.5415 47.1328 30.4332 47.1152C31.9486 47.1152 32.6974 46.5017 33.0939 44.9986C33.5109 43.4133 33.8868 41.8192 34.2891 40.2339C34.6268 38.9011 34.9792 37.5742 35.3258 36.2443C35.6016 36.6007 35.7924 37.0154 35.8838 37.4567C36.4711 39.7642 37.0261 42.0746 37.6047 44.3821C38.1832 46.6895 38.747 47.1181 41.0905 47.1211H43.1169C44.4443 51.0902 45.7599 55.0064 47.0638 58.9226C47.5895 60.4815 48.3824 61.1919 49.5424 61.1714C50.7024 61.1508 51.416 60.4697 51.9241 58.9608C53.1428 55.3411 54.3792 51.7243 55.5451 48.0987C55.7947 47.3237 56.1324 47.0888 56.9341 47.1123C59.0809 47.171 61.2305 47.1651 63.3773 47.1123C65.0835 47.077 66.1848 45.756 65.8265 44.2793C65.5328 43.105 64.6312 42.4533 63.1834 42.4445C60.5668 42.424 57.9502 42.4445 55.3336 42.4445C52.8521 42.4445 52.3969 42.7704 51.6216 45.116C50.9423 47.0712 50.2707 49.0342 49.607 51.005Z" fill="#430DDE"/>
<path d="M58.8253 18.9587C59.2857 18.9657 59.7379 18.8358 60.1245 18.5857C60.511 18.3355 60.8146 17.9762 60.9967 17.5534C61.1788 17.1306 61.2313 16.6633 61.1474 16.2106C61.0636 15.758 60.8472 15.3404 60.5257 15.0108C60.2043 14.6812 59.7922 14.4544 59.3416 14.3591C58.8911 14.2639 58.4224 14.3045 57.995 14.4758C57.5675 14.6471 57.2006 14.9414 56.9406 15.3213C56.6807 15.7013 56.5394 16.1498 56.5347 16.6102C56.5446 17.2199 56.7874 17.8027 57.2132 18.2394C57.6391 18.676 58.2158 18.9333 58.8253 18.9587Z" fill="#430DDE"/>
</g>
<defs>
<clipPath id="clip0_542_1649">
<rect width="120" height="120" fill="white"/>
</clipPath>
</defs>
</svg>
