<svg width="120" height="120" viewBox="0 0 120 120" fill="none" xmlns="http://www.w3.org/2000/svg">
<path d="M0 110.151C0.695245 106.415 2.53357 103.36 5.63712 101.19C7.4097 99.9858 9.26398 98.9062 11.1865 97.9592C12.7806 97.1483 14.5062 96.6036 16.1347 95.8553C16.3311 95.7469 16.4998 95.5948 16.628 95.4108C16.7561 95.2267 16.8402 95.0157 16.8738 94.7939C16.9155 84.358 16.9155 73.9293 16.8738 63.5079C16.8437 63.0261 16.6388 62.5719 16.2975 62.2305C14.6722 60.6839 13.6512 58.8336 13.479 56.5951C13.3568 54.999 13.3443 53.3965 13.4414 51.7987C13.4732 50.9123 13.746 50.0514 14.2304 49.3084C14.7149 48.5654 15.3927 47.9684 16.1911 47.5815C16.7924 47.2684 16.902 46.899 16.9114 46.3041C16.9521 42.7131 16.8299 39.1033 17.1368 35.5342C17.6724 29.2914 20.1871 23.825 24.368 18.9785L26.8734 21.1451C25.6833 23.0235 24.4338 24.7611 23.4128 26.6302C21.4669 30.2595 20.4462 34.3124 20.4408 38.4302C20.397 41.1947 20.4408 43.9623 20.4408 46.8113H24.083C24.1958 46.42 24.2991 45.9754 24.4463 45.5434C25.699 41.921 28.1418 39.5322 31.8309 38.5022C32.5982 38.2862 32.8174 37.995 32.7986 37.2499C32.7548 35.2681 32.783 33.28 32.783 31.2137H36.303C36.303 34.1535 36.2749 37.0338 36.303 39.9142C36.2949 41.5099 36.8366 43.0598 37.8369 44.3033C38.8373 45.5468 40.2353 46.4081 41.7961 46.7425C42.3306 46.8531 42.8757 46.9046 43.4215 46.8959C52.9962 46.8959 62.5689 46.8959 72.1395 46.8959C72.4526 46.8959 72.7439 46.8708 73.0508 46.8552C73.5519 38.2236 73.4203 29.8455 67.7425 22.604C58.5728 10.9136 42.0623 8.87545 30.3684 18.0894L29.4383 18.8627L27.1646 16.2892C29.5636 14.0978 32.332 12.3488 35.3416 11.1234C53.1455 3.60945 73.6082 15.0588 76.3328 34.1754C76.8872 38.0514 76.6304 42.0463 76.6899 45.9848C76.6899 46.8051 76.8684 47.2872 77.6544 47.7255C78.4328 48.1451 79.0812 48.7701 79.529 49.5324C79.9768 50.2947 80.2069 51.1652 80.1943 52.0492C80.2256 53.3359 80.2162 54.6258 80.1943 55.9157C80.1567 58.389 79.1483 60.4209 77.4321 62.1773C77.0214 62.601 76.7711 63.1545 76.7243 63.7427C76.6836 74.0148 76.7055 84.2901 76.6742 94.5623C76.6742 95.3731 76.9435 95.6987 77.6732 95.9743C81.3656 97.3581 85.0203 98.8295 88.1739 101.297C91.7879 104.114 93.7077 107.759 93.6639 112.402C93.6388 114.934 93.7296 117.467 93.7703 120H81.3436V116.443H90.1125C90.1125 114.793 90.1125 113.241 90.1125 111.688C90.1288 110.312 89.8193 108.952 89.2091 107.719C88.5989 106.486 87.7055 105.415 86.6018 104.593C84.8312 103.189 82.891 102.013 80.8269 101.093C75.4748 98.8452 70.0224 96.8446 64.6045 94.7501C64.4498 94.7276 64.2926 94.7276 64.1379 94.7501C64.2882 95.1321 64.4041 95.4201 64.5168 95.7113C65.6411 98.5979 65.0304 100.933 62.6378 102.912C61.6983 103.682 60.7588 104.434 59.8412 105.229C59.5427 105.463 59.324 105.783 59.2148 106.146C58.6041 109.553 58.0435 112.965 57.4485 116.506H70.8147V119.987H0V110.151ZM32.9333 41.9492C29.8016 42.4971 27.5091 45.343 27.481 48.7493C27.4371 53.5144 27.3995 58.2826 27.481 63.0445C27.5874 68.4483 29.6544 73.0474 33.5753 76.7919C33.8885 77.1049 34.2549 77.3617 34.6808 77.7311C35.78 75.1075 36.8104 72.6436 37.8595 70.142C39.3314 70.5678 40.6781 70.9216 42.0185 71.3599C44.7869 72.2741 46.3246 74.7224 45.9644 77.6215C45.7578 79.2652 45.4759 80.8995 45.1909 82.8061C45.8486 82.2739 46.2995 81.917 46.7568 81.5538C51.0441 78.0348 55.3534 74.5439 59.5969 70.978C61.2128 69.6192 62.857 68.5422 65.2027 68.9586C66.9126 62.8222 65.7977 56.6483 66.2048 50.4368H64.7173C57.7241 50.4368 50.7278 50.5025 43.7347 50.3898C42.0266 50.3629 40.3395 50.009 38.7646 49.3473C35.6047 47.9603 33.7632 45.3399 32.9333 41.9492ZM18.9407 116.481C23.7698 116.481 28.267 116.262 32.7203 116.55C36.1433 116.772 38.8178 115.986 40.9756 113.247C43.0175 110.651 45.764 109.092 49.0273 108.476C50.5712 108.184 51.7895 107.314 52.967 106.309C55.344 104.287 57.7836 102.333 60.1982 100.361C61.6481 99.1677 61.8674 98.3161 61.0469 96.6035C59.7221 93.8203 58.363 91.0589 57.0101 88.2881C56.8629 87.9751 56.6969 87.6964 56.4683 87.2988L53.1925 89.9631L50.9658 87.2644C52.895 85.6802 54.702 84.1931 56.5058 82.7059C59.3244 80.3985 62.121 78.1005 64.9177 75.7837C66.0639 74.8445 66.1954 73.5671 65.2309 72.8032C64.2663 72.0393 63.4301 72.3806 62.5939 73.0725C58.4997 76.4579 54.3993 79.8329 50.2925 83.1975C47.4301 85.5518 44.5677 87.8937 41.6458 90.2981L39.5694 87.7403C40.1676 86.9356 40.985 86.3001 41.1353 85.5268C41.6896 82.8969 42.0404 80.2232 42.4225 77.5589C42.7012 75.599 41.9057 74.6817 39.8262 74.5346C37.966 79.0116 36.1037 83.4991 34.2392 87.997C34.1381 88.2905 34.107 88.6035 34.1484 88.9112C34.5148 92.8341 34.8593 96.7632 35.3009 100.68C35.423 101.782 35.2414 102.515 34.3269 103.285C29.2566 107.564 24.249 111.919 18.9407 116.481ZM3.54826 116.481C6.81152 116.481 9.96517 116.497 13.1157 116.459C13.4948 116.41 13.8483 116.241 14.1241 115.977C19.7821 111.137 25.4297 106.279 31.0668 101.403C31.242 101.243 31.3837 101.05 31.4837 100.835C31.5837 100.62 31.6399 100.388 31.6493 100.151C31.5303 98.1345 31.3017 96.1245 31.1044 94.0112C30.5532 94.1928 30.074 94.3243 29.6105 94.5122C25.3514 96.1339 21.0515 97.6586 16.855 99.4244C13.8705 100.645 10.9768 102.076 8.19574 103.707C5.52124 105.313 3.81133 107.809 3.57018 111.046C3.44491 112.802 3.54826 114.559 3.54826 116.478V116.481ZM33.2778 81.1499C27.9538 76.9954 24.8221 71.7231 24.0893 65.0795C24.0512 64.9477 23.9808 64.8275 23.8846 64.7296C23.7884 64.6318 23.6693 64.5595 23.5381 64.5191C22.5422 64.4596 21.5432 64.4941 20.4909 64.4941V94.2367C23.82 92.9624 27.0676 91.7477 30.2588 90.4547C30.5062 90.3545 30.572 89.7158 30.6503 89.3119C30.7881 88.4541 30.7098 87.5305 30.9947 86.729C31.6587 84.8631 32.4855 83.0441 33.2778 81.1468V81.1499ZM73.1072 94.2054V64.516H69.6842C69.4712 65.7182 69.371 66.861 69.0578 67.9348C68.5818 69.5378 68.3125 70.9404 69.0923 72.6717C70.0663 74.8351 69.1111 76.867 67.2853 78.3823C64.6452 80.5739 61.9895 82.7466 59.3338 84.9319C59.577 85.3617 59.7864 85.8097 59.9602 86.2719C60.7744 89.1147 62.691 90.6175 65.5159 91.4002C68.087 92.1234 70.5454 93.2411 73.1072 94.2022V94.2054ZM69.7155 60.9375C70.583 60.9375 71.3252 60.9907 72.058 60.9375C74.4037 60.734 76.4675 58.7146 76.6429 56.3728C76.7462 54.9765 76.6961 53.5707 76.6774 52.1713C76.6774 51.2132 76.1011 50.5495 75.2023 50.4994C73.3953 50.3992 71.5789 50.4712 69.7155 50.4712V60.9375ZM23.8763 50.4399C22.0599 50.4399 20.3124 50.3773 18.5712 50.465C17.5377 50.5151 16.9677 51.2414 16.9333 52.2714C16.8654 53.5228 16.8654 54.777 16.9333 56.0284C17.2089 59.5318 20.4346 61.7233 23.8607 60.7997L23.8763 50.4399ZM55.0433 109.481C53.7531 110.154 52.491 110.902 51.1568 111.475C50.0051 111.954 48.8164 112.338 47.6023 112.624C45.4383 113.162 44.4393 115.063 42.7294 116.412H53.8658C54.2729 114.02 54.6675 111.691 55.0433 109.481Z" fill="#430DDE"/>
<path d="M74.3129 119.987C74.3129 118.944 74.3129 117.9 74.3129 116.857C74.3271 116.75 74.3512 116.645 74.3849 116.544H77.8298V119.987H74.3129Z" fill="#430DDE"/>
<path d="M81.3436 20.306C81.3655 9.16036 89.3859 0.64145 99.4262 0.0372063C109.589 -0.588953 118.552 6.75903 119.826 16.7369C120.437 21.2649 119.426 25.8628 116.974 29.7179C114.521 33.5731 110.784 36.4372 106.423 37.804C105.892 38.0011 105.428 38.3454 105.085 38.7965C102.871 41.6361 99.9774 42.9072 96.448 42.303C92.7619 41.6768 90.4507 39.3757 89.3734 35.7941C89.2205 35.2538 88.9214 34.7663 88.509 34.3852C83.8083 30.4216 81.4626 25.3654 81.3436 20.306ZM116.5 19.3511C116.544 11.0639 109.886 3.97262 101.653 3.5437C98.2137 3.33847 94.8012 4.25914 91.9322 6.16632C89.0633 8.0735 86.8941 10.8633 85.7531 14.1133C83.398 20.8007 85.728 28.086 91.5969 32.2719C91.9207 32.4667 92.191 32.739 92.3834 33.0642C92.5758 33.3893 92.6844 33.7572 92.6993 34.1347C92.7841 35.2626 93.2336 36.3324 93.9799 37.1825C94.7262 38.0326 95.7289 38.617 96.8366 38.8474C97.9443 39.0779 99.0969 38.9419 100.12 38.46C101.144 37.9781 101.983 37.1765 102.511 36.176C102.968 35.2587 103.576 34.908 104.497 34.6764C107.918 33.821 110.956 31.8494 113.13 29.0736C115.304 26.2979 116.49 22.8766 116.5 19.3511Z" fill="#430DDE"/>
<path d="M89.1134 54.4098C88.4199 54.4129 87.7327 54.2771 87.0923 54.0106C86.452 53.7441 85.8715 53.3522 85.385 52.858C84.8985 52.3638 84.5159 51.7772 84.2596 51.1329C84.0033 50.4885 83.8786 49.7995 83.8929 49.1062C83.9083 47.7259 84.463 46.4064 85.4384 45.4295C86.4139 44.4526 87.7328 43.8957 89.1134 43.8778C90.5164 43.8842 91.8607 44.4415 92.8566 45.4295C93.8524 46.4174 94.4202 47.757 94.4374 49.1594C94.4337 49.8539 94.293 50.5409 94.0232 51.1809C93.7535 51.821 93.36 52.4015 92.8654 52.8893C92.3709 53.377 91.7849 53.7624 91.141 54.0233C90.4972 54.2842 89.8082 54.4156 89.1134 54.4098ZM89.1761 47.4031C88.7247 47.4009 88.2898 47.5728 87.962 47.883C87.6342 48.1933 87.4386 48.6179 87.4161 49.0686C87.3988 49.3011 87.4297 49.5346 87.5069 49.7546C87.5841 49.9746 87.7059 50.1762 87.8647 50.347C88.0234 50.5177 88.2157 50.6539 88.4295 50.7469C88.6433 50.8399 88.874 50.8878 89.1072 50.8876C89.5585 50.8983 89.9966 50.7342 90.3298 50.4297C90.663 50.1252 90.8656 49.7037 90.8954 49.2534C90.9042 48.7824 90.73 48.3264 90.4093 47.9813C90.0886 47.6362 89.6465 47.4289 89.1761 47.4031Z" fill="#430DDE"/>
<path d="M55.0214 20.8633H51.6736V17.4507H55.0089L55.0214 20.8633Z" fill="#430DDE"/>
<path d="M58.6887 24.3447V20.9666H62.0553V24.3447H58.6887Z" fill="#430DDE"/>
<path d="M91.9915 17.6292H95.3331V21.0323H91.9915V17.6292Z" fill="#430DDE"/>
<path d="M98.9909 17.6386H102.358V21.0229H98.9909V17.6386Z" fill="#430DDE"/>
<path d="M109.42 17.6479V21.0136H106.034V17.6479H109.42Z" fill="#430DDE"/>
</svg>
