<svg width="133" height="149" viewBox="0 0 133 149" fill="none" xmlns="http://www.w3.org/2000/svg">
<g clip-path="url(#clip0_399_1021)">
<path d="M69.7255 149C65.5999 147.927 63.3097 144.945 61.3034 141.404C54.7477 129.804 48.0208 118.3 41.3563 106.762C41.0919 106.307 40.808 105.86 40.5047 105.367C35.8076 107.384 31.7793 106.455 28.3498 102.645C25.9741 103.998 23.6605 105.409 21.2692 106.665C17.9961 108.443 14.1619 108.884 10.5703 107.897C6.97867 106.911 3.90857 104.572 2.00353 101.372C0.0984947 98.1721 -0.493561 94.359 0.351472 90.7321C1.19651 87.1053 3.413 83.9463 6.53636 81.9173C8.90434 80.4168 11.3695 79.0639 13.5859 77.7655C13.477 75.8217 13.1232 74.0374 13.3332 72.323C13.722 69.2596 15.4639 66.9932 18.1586 65.446C24.8853 61.5818 31.6044 57.7177 38.2962 53.7835C39.0701 53.3161 39.7177 52.6661 40.182 51.8903C47.3443 39.633 54.4366 27.333 61.6183 15.0835C62.396 13.7695 62.5398 12.8287 61.7077 11.4526C60.1524 8.88681 60.2574 6.15389 61.8594 3.59981C62.5512 2.41632 63.5639 1.45277 64.7804 0.820555C65.997 0.188341 67.3676 -0.0867127 68.7339 0.027194C71.6852 0.182694 73.7888 1.72603 75.2547 4.26846C80.4002 13.2175 85.56 22.1587 90.7341 31.0922C91.0218 31.5898 91.329 32.0796 91.6906 32.6822C95.9405 30.7384 100.21 30.5402 104.471 32.5228C107.404 33.8805 109.785 36.1982 111.222 39.0927C113.912 44.298 113.555 52.3879 106.167 57.8071C106.855 59.0083 107.539 60.2251 108.235 61.4302C113.037 69.7378 117.863 78.0298 122.622 86.3569C125.344 91.0918 123.081 96.5771 117.956 97.9066C116.321 98.3344 114.588 98.1966 113.041 97.5155C111.494 96.8344 110.222 95.6502 109.433 94.1552C108.737 92.9112 107.963 92.538 106.587 92.5613C100.813 92.6546 95.0384 92.6079 89.2643 92.639C88.055 92.639 87.0129 92.398 86.6085 91.1074C86.1225 89.5524 87.2268 88.2889 89.1321 88.2734C93.207 88.2384 97.2975 88.2384 101.357 88.2306H105.957L65.2228 17.6337C64.9 18.1313 64.6434 18.5006 64.4179 18.8854C57.7248 30.408 51.0278 41.9279 44.3269 53.4453C44.0664 53.8085 43.9263 54.2443 43.9263 54.6912C43.9263 55.1382 44.0664 55.574 44.3269 55.9372C50.372 66.3246 56.3833 76.7301 62.361 87.1538C62.8587 88.0207 63.3797 88.3706 64.3985 88.3512C68.8622 88.2695 73.3416 88.2851 77.7898 88.2656C77.9842 88.2656 78.1787 88.2656 78.3731 88.2656C79.8118 88.3861 80.7411 89.3114 80.6789 90.5554C80.6166 91.7994 79.734 92.5885 78.3109 92.6041C73.9482 92.6429 69.5777 92.6235 65.2111 92.6585C63.7297 92.6585 62.151 92.4136 60.934 93.5448C60.5313 93.8958 60.2689 94.3804 60.1952 94.9094C60.1291 98.7969 60.3391 102.653 62.8237 106C63.7841 107.291 63.4264 108.609 62.3065 109.285C61.1867 109.962 59.9736 109.522 59.0404 108.119C56.6655 104.698 55.5648 100.554 55.9297 96.406L44.3269 103.1C47.4143 108.446 50.4394 113.69 53.4684 118.93C57.7352 126.316 62.0007 133.703 66.2648 141.089C68.4034 144.782 71.378 145.579 75.0719 143.46C77.2183 142.232 79.3685 141.015 81.4915 139.744C83.8517 138.333 84.4155 136.187 83.1168 133.788L83.043 133.66C79.769 128.132 80.8927 128.711 74.8775 127.335C73.2122 126.967 71.6401 126.261 70.2578 125.262C68.8756 124.264 67.7125 122.992 66.8403 121.527C66.0238 120.213 65.2461 118.873 64.5073 117.507C63.8074 116.217 64.1185 114.988 65.25 114.362C66.3815 113.736 67.4741 114.098 68.2324 115.291C68.8778 116.314 69.4805 117.367 70.056 118.433C71.5374 121.185 73.8121 122.977 76.8877 123.308C83.6418 124.027 86.0875 129.026 87.9384 134.395C89.0543 137.641 87.324 141.357 84.2367 143.145C80.6516 145.221 76.9189 147.033 73.2522 148.977L69.7255 149ZM116.125 93.7198C116.805 93.7283 117.472 93.5232 118.03 93.1334C118.588 92.7436 119.009 92.1886 119.235 91.5467C119.76 90.2016 119.197 89.0975 118.555 87.9857L71.6774 6.80699C71.4523 6.38058 71.1922 5.97358 70.8997 5.5902C70.4008 4.97453 69.6958 4.56021 68.9151 4.42376C68.1343 4.28731 67.3306 4.43796 66.6523 4.84788C65.974 5.2578 65.467 5.89929 65.225 6.65384C64.9829 7.4084 65.0222 8.22503 65.3356 8.95289C65.5571 9.43793 65.8077 9.90918 66.086 10.364L98.5496 66.6239C103.324 74.8913 108.094 83.1587 112.859 91.4262C113.613 92.6974 114.492 93.7198 116.125 93.7198ZM29.8741 63.7083L48.3669 95.7219L58.7954 89.6962L40.3025 57.6866L29.8741 63.7083ZM44.5797 97.9183L26.0791 65.8736C23.8083 67.2148 21.5803 68.3772 19.5234 69.7922C18.537 70.4879 17.8489 71.5294 17.596 72.7094C17.3431 73.8894 17.5439 75.1213 18.1586 76.16C22.6327 84.0205 27.1574 91.8564 31.7327 99.6676C32.3815 100.771 33.4358 101.577 34.6707 101.914C35.9056 102.251 37.2234 102.092 38.3428 101.471C40.4036 100.395 42.3789 99.174 44.5797 97.9066V97.9183ZM16.0744 81.3731C13.5898 82.8231 11.2023 84.0943 8.92379 85.5755C6.82455 86.9331 5.31186 89.0294 4.68535 91.4493C4.05883 93.8691 4.36419 96.4359 5.54095 98.6413C7.95171 103.194 13.4964 105.332 18.2246 103.232C20.9465 102.023 23.4778 100.367 26.1802 98.8629C22.7895 92.9889 19.4806 87.2549 16.0744 81.3614V81.3731ZM103.869 53.8224C108.235 51.3033 109.701 45.0911 107.038 40.5116C104.374 35.9321 98.223 34.0778 93.9458 36.6241L103.869 53.8224Z" fill="white"/>
<path d="M128.49 62.8608C128.49 64.7229 126.891 65.9125 125.546 65.1933C122.144 63.3623 118.796 61.4186 115.499 59.4048C114.464 58.7751 114.332 57.6283 115.009 56.5825C115.635 55.6107 116.63 55.2141 117.653 55.7778C120.997 57.6257 124.303 59.537 127.572 61.5119C128.101 61.8151 128.315 62.5693 128.49 62.8608Z" fill="white"/>
<path d="M99.1678 18.0225C99.1678 19.7641 99.1951 21.5212 99.1678 23.2434C99.1406 24.6273 98.3124 25.5292 97.1109 25.5759C95.8472 25.6342 94.8518 24.7245 94.8324 23.29C94.7857 19.7135 94.7857 16.137 94.8324 12.5605C94.8198 12.2678 94.8663 11.9756 94.9691 11.7012C95.0718 11.4268 95.2286 11.1759 95.4303 10.9634C95.632 10.7508 95.8745 10.581 96.1431 10.4641C96.4118 10.3471 96.7012 10.2853 96.9943 10.2825C98.2619 10.2825 99.1484 11.1921 99.1756 12.65C99.1912 14.446 99.1678 16.2342 99.1678 18.0225Z" fill="white"/>
<path d="M116.335 16.6657C116.101 17.3131 115.834 17.9476 115.534 18.5667C113.911 21.4175 112.271 24.2683 110.615 27.1192C109.775 28.5614 108.546 29.024 107.395 28.3865C106.244 27.7489 105.988 26.4427 106.816 24.981C108.516 22.0084 110.231 19.0409 111.96 16.0787C112.532 15.0874 113.446 14.5237 114.499 14.9707C115.226 15.2662 115.736 16.0826 116.335 16.6657Z" fill="white"/>
<path d="M125.379 44.1503C127.125 44.1503 128.878 44.1269 130.62 44.1503C132.086 44.1775 132.922 44.9278 132.992 46.1601C133.062 47.3924 132.215 48.4498 130.749 48.4732C127.158 48.5354 123.568 48.5354 119.978 48.4732C118.57 48.4459 117.746 47.5285 117.746 46.2884C117.746 44.9822 118.617 44.1775 120.141 44.1503C121.879 44.1269 123.637 44.1503 125.379 44.1503Z" fill="white"/>
<path d="M128.489 29.8405C128.225 30.167 127.844 30.9562 127.214 31.3372C124.204 33.1721 121.136 34.9137 118.065 36.6436C116.801 37.355 115.522 37.0051 114.919 35.905C114.316 34.8048 114.678 33.6075 115.961 32.8494C118.959 31.0884 121.965 29.3507 124.998 27.6363C126.689 26.6994 128.489 27.644 128.489 29.8405Z" fill="white"/>
</g>
<defs>
<clipPath id="clip0_399_1021">
<rect width="133" height="149" fill="white"/>
</clipPath>
</defs>
</svg>
