<svg width="120" height="144" viewBox="0 0 120 144" fill="none" xmlns="http://www.w3.org/2000/svg">
<path d="M102.22 52.0832C99.7798 44.4319 94.9814 37.6861 88.4689 32.7504C81.9564 27.8147 74.0411 24.925 65.7843 24.4689C61.0183 24.1765 56.2375 24.7413 51.6839 26.135C49.974 26.6604 49.36 28.2262 50.3524 29.436C51.152 30.4142 52.1837 30.2966 53.2689 29.9856C58.4977 28.4988 64.0049 28.1704 69.3826 29.0246C86.1995 31.5652 99.4682 45.9617 99.7252 62.4321C99.943 76.9495 93.2997 87.8065 80.1774 94.8924C78.9387 95.563 78.3247 96.3545 78.3926 97.7475C78.4711 99.4758 78.3926 101.246 78.3926 102.967H48.4748C48.4748 101.443 48.3427 100.008 48.5033 98.6048C48.7425 96.5308 47.8286 95.442 45.9617 94.4777C30.1906 86.3375 23.0405 67.5616 29.4196 51.4126C31.4043 46.3612 34.536 41.8062 38.583 38.0842C39.654 37.0957 39.6968 35.8651 38.8365 34.9975C37.9762 34.1299 36.6947 34.1127 35.6238 35.1185C25.2287 45.0215 20.9879 56.9742 23.551 70.8833C25.7463 82.7496 32.5502 91.6952 43.2879 97.8063C43.5847 97.9338 43.8322 98.1488 43.9951 98.4208C44.1579 98.6927 44.2278 99.0076 44.1946 99.3203C44.1411 101.173 44.1554 103.026 44.1946 104.882C44.2196 106.41 45.0157 107.16 46.5971 107.205C47.1968 107.205 47.8001 107.205 48.3819 107.205V111.314C46.6756 111.467 44.2875 110.813 44.2553 113.388C44.2161 116.064 46.7184 115.321 48.4498 115.583C48.4498 117.588 48.4283 119.52 48.4498 121.459C48.4712 122.987 49.2708 123.737 50.8522 123.779C51.5126 123.799 52.1801 123.779 52.8369 123.779C54.4219 128.822 57.7382 131.922 63.2177 131.998C68.8864 132.081 72.3347 128.964 73.9661 123.779H75.037C77.85 123.779 78.3533 123.271 78.3533 120.523V115.556C81.691 115.383 82.6869 114.93 82.5941 113.482C82.4192 110.793 80.1203 111.501 78.4104 111.297V107.208H79.8383C81.9123 107.191 82.6084 106.517 82.6155 104.443C82.6155 102.849 82.6762 101.249 82.5941 99.659C82.5406 98.6808 82.8583 98.145 83.765 97.6404C91.722 93.2 97.8832 86.2717 101.237 77.9931C104.591 69.7146 104.937 60.5778 102.22 52.0832ZM63.5175 127.899C62.2099 127.922 60.9285 127.542 59.8579 126.815C58.7873 126.087 57.9826 125.05 57.5597 123.851H69.2826C68.88 125.025 68.1071 126.047 67.0728 126.773C66.0385 127.5 64.795 127.893 63.5175 127.899ZM74.0197 119.538H52.8119V115.556H74.0197V119.538ZM74.0982 111.242H52.8619V107.288H74.1125L74.0982 111.242Z" fill="#430DDE"/>
<path d="M44.0233 57.4858C44.5088 58.4052 44.3481 58.8373 43.6449 59.5148C37.2194 65.7538 39.4469 76.2824 47.8822 79.6318L49.1673 80.1572C48.8103 83.8522 50.0883 86.7592 53.4224 88.4771C57.0314 90.3298 60.3869 89.5797 63.4462 86.8906C66.2769 89.476 69.4647 90.3091 72.9594 88.7675C76.7362 87.1014 78.0927 83.9905 77.7322 80.1088C82.512 78.467 85.6462 75.4045 86.6565 70.6033C87.6667 65.8022 85.889 61.8272 82.2978 58.5608C82.4299 58.3084 82.5085 58.1563 82.5906 58.0043C85.2928 53.0096 83.5437 47.5517 78.4283 44.8694C77.9374 44.5606 77.5688 44.1001 77.3823 43.5628C76.0651 39.8574 72.7524 37.7835 68.7222 38.0877C66.6339 38.2501 64.9597 39.2422 63.4569 40.5522C63.3223 40.4728 63.1924 40.3863 63.0678 40.293C58.0416 36.1451 51.5162 37.8734 49.3636 43.8739C49.1352 44.3528 48.7448 44.7418 48.257 44.9766C43.5307 47.4411 41.6137 52.9162 44.0233 57.4858ZM65.5808 46.2935C65.5808 43.9984 67.0302 42.3807 69.1506 42.2079C69.8177 42.1373 70.4923 42.2334 71.1101 42.4871C71.728 42.7407 72.2683 43.1435 72.6797 43.6569C73.091 44.1703 73.3596 44.7772 73.4599 45.4197C73.5601 46.0622 73.4886 46.7189 73.2522 47.327C73.1379 47.6519 72.9345 47.9492 72.8309 48.2741C72.6461 48.7669 72.6668 49.31 72.8887 49.7882C73.1107 50.2665 73.5164 50.6421 74.0197 50.8354C75.1477 51.2847 76.0116 50.8907 76.6612 49.9713C76.8461 49.6804 77.013 49.3791 77.161 49.0691C79.8062 50.8423 80.3738 53.8564 78.5211 56.4592C77.3324 56.238 76.1329 55.9511 74.9157 55.799C73.2236 55.5847 72.0813 56.3659 71.9921 57.6932C71.9028 59.0205 72.8202 59.7671 74.5158 59.895C78.7995 60.2199 82.0765 63.158 82.6191 67.1848C83.1296 70.987 80.6736 74.6993 76.879 75.9714C76.5636 76.1142 76.2086 76.1537 75.8679 76.0839C75.5272 76.014 75.2192 75.8386 74.9906 75.5842C74.2872 74.9203 73.4552 74.3977 72.5423 74.0465C71.6295 73.6953 70.6539 73.5225 69.6718 73.5379C68.4295 73.5379 67.5656 74.2465 67.4371 75.3146C67.3015 76.4483 68.0261 77.3609 69.2826 77.6132C69.5432 77.6651 69.8145 77.6616 70.0787 77.6962C70.7996 77.8014 71.476 78.099 72.0321 78.5554C72.5883 79.0119 73.0022 79.6092 73.2275 80.2806C73.4528 80.952 73.4807 81.6708 73.308 82.3566C73.1353 83.0425 72.7688 83.6682 72.2496 84.1637C71.7303 84.6593 71.0789 85.0051 70.3682 85.1624C69.6574 85.3197 68.9155 85.2823 68.2255 85.0545C67.5355 84.8266 66.9246 84.4172 66.4613 83.8721C65.998 83.3271 65.7006 82.6679 65.6023 81.9684C65.5737 81.7113 65.563 81.4527 65.5701 81.1942C65.5725 69.5595 65.5761 57.9259 65.5808 46.2935ZM52.7299 55.7817C51.2805 55.8647 49.8455 56.1827 48.3534 56.4039C46.4543 54.1433 47.0326 50.7905 49.7206 49.0795C49.8598 49.3491 49.9776 49.6291 50.1382 49.8848C50.7772 50.9218 51.8232 51.2675 52.8691 50.8319C53.915 50.3964 54.3291 49.318 53.9971 48.122C53.7294 47.1542 53.3867 46.1034 53.533 45.1529C53.8222 43.231 55.5856 42.08 57.6025 42.1941C58.5452 42.2491 59.4359 42.6313 60.1112 43.2706C60.7865 43.9099 61.2012 44.7634 61.2793 45.6748C61.2883 45.8463 61.2883 46.0182 61.2793 46.1898C61.2793 57.8752 61.2793 69.5606 61.2793 81.246C61.2793 83.6449 59.5373 85.342 57.2277 85.2936C56.2375 85.2701 55.2921 84.8896 54.5764 84.2266C53.8607 83.5637 53.4263 82.666 53.3581 81.7092C53.3189 80.7966 53.6104 79.8995 54.1821 79.173C54.7538 78.4465 55.5697 77.9363 56.4888 77.7307C56.5744 77.7134 56.6637 77.71 56.7529 77.6962C58.7948 77.3885 59.648 76.5832 59.4017 75.2005C59.1696 73.9043 57.9738 73.1681 56.1425 73.6416C54.6235 74.0713 53.1864 74.7367 51.8874 75.6119C51.152 76.0854 50.6344 76.2029 49.8527 75.9299C48.0036 75.2982 46.4359 74.0689 45.4133 72.4489C44.3908 70.829 43.9761 68.9173 44.2389 67.0359C44.5016 65.1544 45.4259 63.4182 46.8561 62.1194C48.2863 60.8206 50.135 60.0387 52.0909 59.9054C52.3586 59.8777 52.6263 59.9053 52.8905 59.857C53.4303 59.8268 53.9374 59.5968 54.3068 59.2146C54.6763 58.8324 54.8798 58.3273 54.8753 57.8038C54.8804 57.5325 54.8281 57.263 54.7216 57.012C54.6151 56.7609 54.4566 56.5337 54.2559 56.3443C54.0552 56.1548 53.8167 56.0072 53.5548 55.9104C53.293 55.8137 53.0134 55.7699 52.7334 55.7817H52.7299Z" fill="#430DDE"/>
<path d="M61.3186 18.2437C61.3218 18.5143 61.3805 18.7817 61.4914 19.0301C61.6022 19.2786 61.7629 19.5033 61.9642 19.6911C62.1655 19.8789 62.4033 20.0261 62.6638 20.1242C62.9244 20.2222 63.2024 20.2692 63.4818 20.2623C64.0243 20.2579 64.5436 20.049 64.9296 19.6798C65.3155 19.3106 65.5376 18.8103 65.5487 18.2852C65.613 16.8645 65.613 15.437 65.5487 14.0163C65.5474 13.7453 65.49 13.4773 65.3798 13.2281C65.2696 12.979 65.1089 12.7537 64.9072 12.5658C64.7054 12.3779 64.4668 12.2311 64.2054 12.1341C63.9441 12.0371 63.6652 11.9919 63.3855 12.0012C62.8449 12.0123 62.3292 12.2234 61.9442 12.591C61.5592 12.9587 61.3341 13.4551 61.315 13.9783C61.2615 14.6696 61.315 15.3609 61.315 16.0522C61.315 16.7436 61.2651 17.5144 61.3186 18.2437Z" fill="#430DDE"/>
<path d="M18.5355 63.7075C18.5323 63.1835 18.3204 62.6808 17.9441 62.3042C17.5677 61.9275 17.0559 61.7059 16.515 61.6855C15.8011 61.6302 15.0872 61.6855 14.3732 61.6855C13.6164 61.6855 12.8561 61.6474 12.1029 61.6855C11.8236 61.6859 11.5471 61.7401 11.2897 61.845C11.0322 61.9498 10.7988 62.1032 10.6032 62.2962C10.4075 62.4892 10.2534 62.7179 10.1499 62.9692C10.0464 63.2204 9.99557 63.489 10.0003 63.7594C9.99547 64.2864 10.2052 64.794 10.584 65.1725C10.9628 65.5509 11.4802 65.7697 12.0243 65.7815C13.5343 65.8471 15.0515 65.8506 16.5614 65.7815C17.1063 65.7572 17.6192 65.5258 17.9888 65.1375C18.3584 64.7492 18.5549 64.2353 18.5355 63.7075Z" fill="#430DDE"/>
<path d="M38.3938 25.5819C38.8044 26.0762 40.0324 26.294 40.732 26.1004C41.3639 25.9276 41.8029 25.0254 42.4669 24.2512C41.1854 22.3639 40.1252 20.5872 38.8008 19.0214C38.5045 18.6758 37.173 18.8278 36.5162 19.1389C36.3127 19.2371 36.132 19.3744 35.9849 19.5423C35.8379 19.7102 35.7276 19.9053 35.6609 20.1158C35.5941 20.3262 35.5722 20.5476 35.5965 20.7665C35.6208 20.9854 35.6908 21.1972 35.8023 21.3891C36.5144 22.8696 37.3829 24.2746 38.3938 25.5819Z" fill="#430DDE"/>
<path d="M85.8568 26.052C86.9278 26.6673 88.1557 26.3113 88.9089 25.1291C89.5872 24.068 90.2262 22.9826 90.8438 21.8903C91.0704 21.3894 91.2624 20.8744 91.4185 20.3487C90.8902 19.8544 90.3868 19.1078 89.6764 18.7967C88.7555 18.3923 87.8238 18.7967 87.2669 19.6574C86.5529 20.7946 85.839 21.9456 85.1964 23.114C84.5539 24.2823 84.8216 25.4437 85.8568 26.052Z" fill="#430DDE"/>
<path d="M18.0536 40.7388C19.1852 41.4301 20.3453 42.0627 21.5126 42.6814C22.019 42.8924 22.5403 43.0679 23.0726 43.2068C23.5902 42.7298 24.3042 42.277 24.6611 41.6375C25.1359 40.7423 24.7718 39.8263 23.8901 39.2733C22.6942 38.5267 21.4555 37.8457 20.2061 37.1993C18.9567 36.553 17.8108 36.8537 17.1897 37.8699C16.5686 38.8861 16.8791 40.0268 18.0536 40.7388Z" fill="#430DDE"/>
<path d="M104.18 43.4453C106.147 42.2044 107.986 41.1847 109.606 39.9093C109.963 39.6189 109.827 38.3296 109.51 37.6936C109.411 37.4959 109.271 37.3198 109.099 37.1759C108.928 37.0319 108.728 36.9232 108.511 36.8563C108.295 36.7895 108.067 36.7658 107.841 36.7867C107.615 36.8076 107.396 36.8728 107.197 36.9781C105.662 37.6598 104.205 38.4939 102.849 39.4668C102.335 39.8643 102.103 41.0499 102.292 41.7309C102.481 42.3461 103.384 42.7678 104.18 43.4453Z" fill="#430DDE"/>
<path d="M21.991 84.6023C20.5219 85.3207 19.0921 86.1122 17.7073 86.9735C17.3145 87.2004 17.0266 87.5646 16.903 87.991C16.7794 88.4175 16.8297 88.8736 17.0434 89.2652C17.4003 89.9081 18.1428 90.3436 18.9496 91.0902C20.9486 89.8217 22.812 88.7744 24.4684 87.4782C24.8254 87.1982 24.6397 85.902 24.3113 85.2694C24.208 85.0746 24.065 84.902 23.8909 84.7621C23.7168 84.6223 23.5153 84.518 23.2984 84.4557C23.0816 84.3933 22.8539 84.3742 22.6292 84.3994C22.4045 84.4246 22.1874 84.4936 21.991 84.6023Z" fill="#430DDE"/>
<path d="M108.842 86.7523C107.675 86.061 106.472 85.3939 105.273 84.751C104.809 84.5576 104.332 84.397 103.845 84.2705C103.338 84.7371 102.592 85.1726 102.238 85.8156C101.753 86.7039 102.106 87.6302 102.984 88.1868C104.212 88.9576 105.483 89.6696 106.783 90.3333C107.936 90.9243 109.085 90.6098 109.692 89.642C110.299 88.6741 110.006 87.4574 108.842 86.7523Z" fill="#430DDE"/>
<path d="M44.1839 33.5043C44.4621 33.5093 44.7386 33.4609 44.9973 33.3617C45.256 33.2625 45.4918 33.1146 45.691 32.9265C45.8903 32.7384 46.049 32.5139 46.1579 32.266C46.2669 32.0181 46.3239 31.7517 46.3258 31.4822C46.3623 31.1919 46.335 30.8973 46.2457 30.6179C46.1563 30.3385 46.0069 30.0805 45.8073 29.861C45.6077 29.6414 45.3624 29.4653 45.0875 29.344C44.8126 29.2228 44.5143 29.1592 44.2122 29.1575C43.9102 29.1558 43.6111 29.2159 43.3348 29.3341C43.0584 29.4522 42.811 29.6255 42.6087 29.8428C42.4065 30.0601 42.254 30.3163 42.1613 30.5947C42.0685 30.8731 42.0377 31.1673 42.0707 31.458C42.0683 31.7274 42.1213 31.9945 42.2267 32.2438C42.332 32.4931 42.4876 32.7196 42.6843 32.9101C42.881 33.1006 43.1149 33.2512 43.3724 33.3532C43.6299 33.4553 43.9058 33.5066 44.1839 33.5043Z" fill="#430DDE"/>
</svg>
