<svg width="50" height="63" viewBox="0 0 50 63" fill="none" xmlns="http://www.w3.org/2000/svg">
<g clip-path="url(#clip0_2_8)">
<path d="M49.5903 29.1939C49.5903 29.1939 49.3958 33.3614 49.0535 35.3273C48.3309 38.9838 43.4689 53.9931 25.1119 62.3167C25.0488 62.34 24.9799 62.344 24.9144 62.3281C6.53552 54.0059 1.66763 38.9866 0.94505 35.3273C0.601313 33.3614 0.409698 29.1939 0.409698 29.1939V0L49.5903 0.0099372V29.1939Z" fill="#1D1D1B"/>
<path d="M48.0867 29.1711C48.0867 29.1711 47.9082 33.1229 47.5835 34.9909C46.9033 38.46 42.347 52.5254 25.049 60.5893C24.9897 60.6117 24.9245 60.6146 24.8633 60.5978C7.63109 52.4587 2.98553 38.4558 2.30391 34.9866C1.98065 33.1229 1.8022 29.1669 1.8022 29.1669V1.47481L48.1276 1.489L48.0867 29.1711Z" fill="#FDEB18"/>
<path d="M46.76 2.80199H3.16397V13.7502H46.76V2.80199Z" fill="#1D1D1B"/>
<path d="M46.7307 28.1946C46.7307 28.1946 46.564 32.0739 46.2583 33.9022C45.6191 37.3089 41.3319 51.1045 25.049 59.0137C24.9939 59.0368 24.9321 59.0398 24.8749 59.0222C8.6462 51.0392 4.2727 37.306 3.62911 33.9022C3.32779 32.0739 3.15373 28.1946 3.15373 28.1946V15.313L46.7673 15.3244L46.7307 28.1946Z" fill="#1D1D1B"/>
<path d="M26.7721 29.756L28.3664 55.8966C28.3664 55.8966 26.0261 57.2323 25.09 57.6311C25.0409 57.6526 24.9885 57.666 24.9349 57.6709C24.8843 57.6653 24.8349 57.6519 24.7887 57.6311C23.8584 57.2323 21.5107 55.8966 21.5107 55.8966L23.1095 29.756H26.7721Z" fill="#FDEB18"/>
<path d="M35.0525 50.8816C31.8228 48.7156 32.6288 47.6169 32.6288 47.6169H34.1514V46.4615C37.8989 46.4615 38.5718 44.3564 38.6273 44.0768C38.6888 43.7631 38.4635 43.7006 38.2704 43.7006H28.4293L28.5171 44.6943H37.2846C37.2846 44.6943 36.9569 45.668 33.3221 45.6879V46.6999H32.2733C32.2184 46.701 32.1642 46.7126 32.1139 46.734C31.8638 46.832 31.4323 47.2691 31.618 48.2699C31.8038 49.2706 32.2982 50.0101 34.3665 51.5474C34.6086 51.3389 34.8376 51.1166 35.0525 50.8816Z" fill="#FBE91E"/>
<path d="M14.832 50.8816C18.0646 48.7156 17.2572 47.6169 17.2572 47.6169H15.733V46.4615C11.9841 46.4615 11.3142 44.3564 11.2601 44.0768C11.1957 43.7631 11.4224 43.7006 11.6155 43.7006H21.4566L21.3688 44.6943H12.5955C12.5955 44.6943 12.9202 45.668 16.558 45.6879V46.6999H17.6038C17.6597 46.7009 17.7149 46.7125 17.7662 46.734C18.0163 46.832 18.4478 47.2691 18.2635 48.2699C18.0792 49.2706 17.5833 50.0044 15.5209 51.5417C15.2778 51.3354 15.0477 51.115 14.832 50.8816Z" fill="#FBE91E"/>
<path d="M16.106 4.55076V5.94466H12.028V7.53019H15.7082V8.92409H12.028V10.5508H16.2304V11.9447H10.3093V4.55076H16.106Z" fill="white"/>
<path d="M28.0885 4.55076V5.97021H25.7599V11.9489H24.0397V5.96595H21.7199V4.5465L28.0885 4.55076Z" fill="white"/>
<path d="M38.2675 11.9447L37.0593 9.83254H35.3041V11.9447H33.5854V4.55076H36.894C37.8965 4.55076 38.6678 4.77267 39.208 5.21648C39.7483 5.6603 40.0184 6.29385 40.0184 7.11713C40.0342 7.62762 39.909 8.13292 39.6556 8.58058C39.4097 8.98811 39.0391 9.31111 38.5952 9.50465L40.2158 11.9447H38.2675ZM35.3055 8.43722H36.894C37.3738 8.43722 37.7424 8.33218 37.9998 8.1221C38.2573 7.91202 38.386 7.59643 38.386 7.17533C38.386 6.76227 38.2573 6.45283 37.9998 6.24984C37.7424 6.04686 37.3738 5.94466 36.894 5.94466H35.3055V8.43722Z" fill="white"/>
<path d="M27.8852 32.3379L28.1777 35.9334H44.3363C44.3363 35.9334 44.9214 34.7978 45.1539 32.3365L27.8852 32.3379Z" fill="white"/>
<path d="M21.9393 32.3379L21.6468 35.9334H5.49114C5.49114 35.9334 4.90606 34.7978 4.67203 32.3365L21.9393 32.3379Z" fill="white"/>
<path d="M29.0817 27.1115C29.0817 27.2819 29.0729 27.4706 29.0568 27.6793C29.0247 28.0512 28.7321 28.4174 28.1207 28.4174H27.8603C27.8603 28.4174 27.8603 28.5154 27.8603 28.6701C27.8603 28.9256 27.8282 29.0448 27.7287 29.0959H45.4655C45.4655 29.0959 45.5445 28.0696 45.5299 25.5104H31.8886C31.7716 26.3436 30.698 27.0718 29.6712 27.0945L29.0817 27.1115Z" fill="white"/>
<path d="M20.7355 27.0931C20.7355 27.2662 20.7355 27.4522 20.7618 27.6679C20.7984 28.0342 21.0836 28.4046 21.6936 28.4046H21.9569V28.6573C21.9569 28.91 21.9905 29.0292 22.0885 29.0831H4.3517C4.3517 29.0831 4.2771 28.0597 4.28295 25.4976H17.93C18.0441 26.3294 19.1192 27.059 20.146 27.0817L20.7355 27.0931Z" fill="white"/>
<path d="M26.93 28.4387H22.9354V28.812C22.9356 28.8376 22.941 28.8628 22.9512 28.8863C22.9615 28.9099 22.9764 28.9312 22.9951 28.9491C23.0139 28.967 23.0361 28.9812 23.0604 28.9908C23.0848 29.0004 23.1109 29.0053 23.1372 29.0051H26.7399C26.766 29.0051 26.7918 29.0001 26.8158 28.9903C26.8399 28.9806 26.8617 28.9664 26.88 28.9484C26.8984 28.9305 26.9129 28.9092 26.9228 28.8858C26.9326 28.8624 26.9376 28.8373 26.9374 28.812L26.93 28.4387Z" fill="#FBE91E"/>
<path d="M28.0095 27.1044H21.8662V27.509C21.8688 27.5575 21.891 27.6032 21.9279 27.6361C21.9648 27.669 22.0135 27.6865 22.0636 27.685H27.8208C27.8702 27.6854 27.9178 27.6674 27.9538 27.6346C27.9897 27.6018 28.0113 27.5568 28.0139 27.509L28.0095 27.1044Z" fill="#FBE91E"/>
<path d="M43.4894 17.4578H32.1475C32.0144 17.4578 31.2611 17.4465 30.9203 17.8837C30.9203 17.8837 29.6668 19.4451 28.9764 20.1378C28.602 20.4658 28.1618 20.7152 27.6833 20.8702C27.1846 21.0377 27.0266 21.3116 26.3669 22.1903C26.1768 22.4373 25.8594 22.8546 25.4366 23.059C25.2772 23.1302 25.1045 23.1688 24.9291 23.1725C24.7538 23.1679 24.5812 23.1293 24.4215 23.059C24.0076 22.8546 23.6902 22.4373 23.4942 22.1903C22.8403 21.3116 22.6794 21.0377 22.1777 20.8702C21.6999 20.7139 21.2599 20.4647 20.8847 20.1378C20.1972 19.4507 18.9437 17.8837 18.9437 17.8837C18.6029 17.4479 17.8525 17.4578 17.7135 17.4578H6.38047C5.58183 17.4578 5.77052 18.6786 6.69203 19.4294C7.42219 19.9834 8.31921 20.29 9.24592 20.3024H16.7057C17.0392 20.2825 17.0743 20.5054 16.852 20.7793C16.6341 20.988 16.3971 21.1498 15.7711 21.1938H9.64085C9.72705 21.4654 9.85581 21.7225 10.0226 21.9561C10.1974 22.1763 10.4218 22.3547 10.6787 22.4777C10.9355 22.6007 11.2179 22.6651 11.5043 22.6658H18.8852C19.2099 22.6587 19.2655 22.8333 19.0402 23.0916C18.8135 23.306 18.4888 23.4891 17.9212 23.4891H15.4814C15.5481 23.7272 15.6646 23.9495 15.8237 24.142C16.0164 24.3458 16.2506 24.5085 16.5114 24.6199C16.7723 24.7314 17.0541 24.789 17.3391 24.7893H20.7355C20.7815 24.7856 20.8275 24.7968 20.8663 24.8209C20.9052 24.8451 20.9348 24.881 20.9506 24.9231C20.9664 24.9652 20.9675 25.0112 20.9537 25.0539C20.9399 25.0967 20.9121 25.1339 20.8744 25.1598C20.6711 25.3301 20.4356 25.5019 19.8505 25.5019H19.1777C19.2129 25.6668 19.306 25.8148 19.441 25.9206C19.6048 26.0625 19.8666 26.3124 20.6316 26.3124H29.2499C30.012 26.3124 30.2738 26.0682 30.4406 25.9206C30.5736 25.8138 30.6649 25.666 30.6995 25.5019H30.0208C29.4357 25.5019 29.2075 25.3301 28.9969 25.1598C28.9606 25.1334 28.9339 25.0965 28.9208 25.0544C28.9077 25.0123 28.9089 24.9673 28.9241 24.9258C28.9393 24.8844 28.9678 24.8488 29.0053 24.8242C29.0429 24.7997 29.0876 24.7874 29.1329 24.7893H32.5381C32.8223 24.7884 33.1033 24.7305 33.3634 24.6191C33.6234 24.5077 33.8569 24.3453 34.0491 24.142C34.2081 23.9439 34.3358 23.7238 34.4279 23.4891H31.9881C31.4176 23.4891 31.0564 23.306 30.8296 23.0916C30.6044 22.8319 30.6585 22.6573 30.9861 22.6658H38.364C38.6506 22.6644 38.933 22.5998 39.1899 22.4769C39.4469 22.3539 39.6717 22.1758 39.8472 21.9561C40.0153 21.7236 40.1432 21.4662 40.2261 21.1938H34.109C33.4801 21.1498 33.2416 20.988 33.0252 20.7793C32.7941 20.5054 32.8335 20.2825 33.1714 20.3024H40.6312C41.5582 20.2888 42.4553 19.9824 43.1866 19.4294C44.0964 18.6757 44.2851 17.4578 43.4894 17.4578Z" fill="#FDEB18"/>
<path d="M41.6083 18.5423H32.1724C31.8825 18.537 31.5984 18.6217 31.3615 18.7841C31.1247 18.9465 30.9476 19.1781 30.856 19.4451C30.6643 19.9958 30.4844 20.328 30.3396 20.4798C30.1948 20.6317 29.62 20.8035 29.62 20.8035C29.3857 20.86 29.1624 20.953 28.9588 21.0788C28.5961 21.3698 28.2918 21.9064 28.0168 22.3152C27.1187 23.641 26.5907 24.3933 24.9349 24.3961C23.2791 24.3989 22.7569 23.641 21.8632 22.3152C21.5868 21.9064 21.2869 21.3698 20.9183 21.0788C20.7162 20.9522 20.4937 20.8592 20.2601 20.8035C20.2601 20.8035 19.675 20.6331 19.539 20.4798C19.403 20.3265 19.2172 19.9958 19.027 19.4451C18.934 19.1789 18.7566 18.9482 18.52 18.786C18.2835 18.6238 18.0002 18.5385 17.7106 18.5423H8.26297C7.94264 18.5423 7.94264 18.6729 7.94264 18.8375C7.94755 18.916 7.98373 18.9895 8.04353 19.0425C8.10332 19.0955 8.18203 19.1238 8.26297 19.1214H17.4927C18.1889 19.1214 18.3323 19.587 18.4639 19.9972C18.6467 20.5537 18.7755 20.7524 18.9364 20.9028C19.1028 21.0709 19.3131 21.1921 19.5448 21.2534C19.871 21.3457 20.2308 21.4096 20.4225 21.5373C20.8379 21.8212 21.3396 22.7226 21.6438 23.1612C22.482 24.372 23.0934 24.9369 24.8808 24.9894H25.0007C26.7838 24.9369 27.3996 24.372 28.2362 23.1612C28.5376 22.7226 29.0422 21.8184 29.4561 21.5373C29.6463 21.411 30.0061 21.3471 30.3338 21.2534C30.5642 21.191 30.7733 21.07 30.9393 20.9028C31.0988 20.7524 31.2319 20.5537 31.4132 19.9972C31.5478 19.587 31.6897 19.1214 32.383 19.1214H41.6171C41.6974 19.123 41.7752 19.0943 41.8341 19.0414C41.8931 18.9884 41.9285 18.9154 41.933 18.8375C41.9243 18.6757 41.9228 18.5423 41.6083 18.5423Z" fill="#1D1D1B"/>
</g>
<defs>
<clipPath id="clip0_2_8">
<rect width="50" height="62.3377" fill="white"/>
</clipPath>
</defs>
</svg>
