<svg width="53" height="64" viewBox="0 0 53 64" fill="none" xmlns="http://www.w3.org/2000/svg">
<g clip-path="url(#clip0_10_268)">
<path d="M26.5 63.996C41.1355 63.996 53 49.67 53 31.998C53 14.326 41.1355 0 26.5 0C11.8645 0 0 14.326 0 31.998C0 49.67 11.8645 63.996 26.5 63.996Z" fill="white"/>
<path d="M49.3774 31.9901C49.2972 38.84 47.534 45.1629 43.3665 50.6835C40.2328 54.819 36.2616 57.8488 31.1203 59.0423C24.1517 60.663 18.0767 58.8467 12.8272 54.0566C8.56559 50.1891 5.65049 45.0707 4.5041 39.4427C2.47643 30.0141 3.89901 21.1884 9.71354 13.3126C12.8352 9.07735 16.9266 6.10748 22.136 4.9299C28.2311 3.53279 33.7571 4.90197 38.702 8.65023C43.647 12.3985 46.6044 17.464 48.2474 23.3519C49.0258 26.1649 49.4062 29.0723 49.3774 31.9901ZM19.0064 39.7581C19.8078 38.1414 20.5291 36.6644 21.2264 35.1755C21.3696 34.8595 21.4524 34.5198 21.4708 34.1736C21.5269 32.9761 21.543 31.7785 21.575 30.581H21.8115L21.9437 33.3752H22.0479L23.6909 30.0181C23.8271 30.3814 23.8472 30.6049 23.9714 30.7367C24.4963 31.2915 25.0494 31.8224 25.5743 32.3613L25.398 32.6128L23.3262 31.6428C22.4807 33.2156 21.7233 34.6606 21.9638 36.4329C22.116 37.5466 22.076 38.6883 22.12 39.81H23.6989V35.9779L26.504 36.9199L26.4719 37.1874L24.0475 37.3391V39.806C24.2238 39.7994 24.4003 39.8155 24.5725 39.8539C24.8199 39.9578 25.0607 40.0764 25.2938 40.2091C25.1455 40.4566 25.0213 40.7241 24.849 40.9556C24.6767 41.1871 24.4483 41.2989 24.324 41.5224C23.7986 42.5206 22.9715 43.3291 21.9597 43.8336C21.559 44.0292 21.1583 44.1929 20.6213 44.4444L31.4008 45.9772L31.4369 45.8176C31.2477 45.7454 31.0675 45.6516 30.8999 45.5381C30.2628 44.9873 29.6336 44.4284 29.0245 43.8496C28.7086 43.5462 28.4178 43.2178 28.155 42.8676C27.9974 42.6894 27.9067 42.4623 27.8985 42.225C27.8985 42.0972 28.2191 41.9176 28.4034 41.9096C28.6087 41.8905 28.8075 41.8279 28.9865 41.726C29.1655 41.6241 29.3205 41.4853 29.4413 41.3188C31.1043 39.4667 32.7833 37.6265 34.4544 35.7783C34.6146 35.6026 34.7629 35.411 34.9393 35.1955C34.3622 34.9201 33.8533 34.6845 33.3364 34.433C32.7273 34.1297 32.7152 33.982 33.2522 33.5988C33.7891 33.2156 34.2861 32.9002 34.7669 32.505C34.9623 32.3416 35.0918 32.1134 35.1316 31.8623C35.2839 30.2936 35.2719 30.2896 33.8212 29.619C33.0198 29.2557 33.0198 29.144 33.7571 28.629C33.9005 28.5093 34.0533 28.4012 34.2139 28.3057C35.0474 27.9065 35.3039 27.2798 35.2478 26.3577C35.1596 24.9646 35.2238 23.5635 35.2238 22.0027C35.5403 22.2941 35.6565 22.4857 35.8168 22.5336C36.5542 22.7611 37.2995 22.9328 38.0409 23.1523V23.4517L36.9028 23.5395L35.7287 23.6433C35.7287 24.9127 35.7287 26.0384 35.7287 27.184C35.7644 27.4526 35.8985 27.6986 36.1053 27.8746C36.5272 28.2117 36.9659 28.5275 37.4197 28.8206C37.7604 29.0601 37.7363 29.2797 37.3837 29.4753C37.2584 29.5511 37.1237 29.6102 36.983 29.6509C35.8609 29.9064 35.5483 30.6129 35.7166 31.6947C35.7189 31.8747 35.7653 32.0514 35.852 32.2093C35.9386 32.3673 36.0627 32.5017 36.2135 32.6008C36.7225 32.9202 37.2114 33.2794 37.6963 33.6347C38.121 33.95 38.097 34.1496 37.6321 34.3851C37.0791 34.6606 36.5141 34.92 35.889 35.2194L37.6402 40.5165L41.0663 32.2296C40.5694 32.0021 40.1206 31.8025 39.6758 31.5909C39.1028 31.3195 39.0427 31.084 39.5997 30.8165C41.0263 30.1299 41.403 29.0202 41.2306 27.5432C41.1965 26.8162 41.2179 26.0876 41.2948 25.3638L44.0197 26.3298V26.5453C43.7163 26.6072 43.4101 26.6538 43.102 26.685C42.8336 26.685 42.5611 26.6331 42.3006 26.6451C41.8999 26.6691 41.6234 26.8088 41.6995 27.3397C41.7565 27.8704 41.7565 28.4057 41.6995 28.9364C41.6618 29.1588 41.6967 29.3874 41.7991 29.5886C41.9015 29.7898 42.0661 29.953 42.2685 30.0541C42.7895 30.3615 43.2623 30.7526 43.9075 31.2237L41.7957 32.2376C43.1221 35.3711 44.4244 38.4368 45.7668 41.5983C45.859 41.3348 45.9192 41.1991 45.9592 41.0634C47.671 35.5063 47.7779 29.5814 46.2677 23.9666C45.4338 20.7322 43.997 17.6828 42.0321 14.9772C41.9543 14.8728 41.8544 14.7868 41.7394 14.7254C41.6244 14.664 41.4972 14.6286 41.3669 14.6219C39.7114 14.9514 38.006 14.9432 36.3538 14.598C34.563 14.2048 32.7221 14.089 30.8959 14.2547C30.0464 14.3585 30.0504 14.3784 29.9422 13.4244C30.2267 13.3445 30.5192 13.2527 30.8158 13.1849C32.6553 12.8253 34.5393 12.7499 36.4019 12.9613C37.6012 13.1249 38.8223 12.9275 39.9082 12.3945C39.3913 11.9115 38.8984 11.4963 38.4656 11.0253C37.9767 10.4944 37.556 10.4705 36.8627 10.7898C35.9571 11.1494 35.0173 11.4169 34.0576 11.5882C32.575 11.9434 31.0842 12.2668 29.5374 12.6181L29.1127 11.9594C31.0121 10.5104 33.709 10.7339 35.4281 8.82587L32.8274 7.56446L28.4194 11.3367L27.8264 10.9854C28.2271 9.29689 29.7138 8.33488 30.5794 6.822L27.4817 6.38291L26.9568 10.7739H25.999L25.4661 6.38291L22.3444 6.87789C23.3422 8.35883 24.7488 9.37274 25.1736 11.0173L24.5645 11.3487L20.0924 7.59241L17.4355 8.91768C17.6399 9.06537 17.7601 9.1452 17.8683 9.23701C18.9062 10.0913 20.1805 10.4345 21.4148 10.8537C22.2563 11.1491 23.0618 11.5363 23.9233 11.8955L23.3903 12.6939C22.2122 12.3785 21.1062 12.0233 19.9721 11.7997C18.4253 11.5003 16.8385 11.3806 15.448 10.5224C15.3812 10.4971 15.3088 10.49 15.2383 10.5019C15.1678 10.5139 15.1019 10.5443 15.0472 10.5902C14.374 11.169 13.7168 11.7638 13.0035 12.4025C13.8261 12.8367 14.7504 13.0435 15.6804 13.0012C16.9867 13.0012 18.2971 12.8496 19.6035 12.9054C20.7656 12.9573 21.9197 13.2008 23.1058 13.3645L22.8453 14.3944C20.7335 13.9952 18.6898 14.2347 16.6621 14.6099C15.0811 14.9639 13.4433 14.9857 11.8534 14.6738C11.666 14.603 11.4588 14.6047 11.2726 14.6786C11.0864 14.7525 10.9348 14.8932 10.8476 15.073C9.58667 16.8507 8.54404 18.7724 7.742 20.7972C5.99051 25.2265 5.31493 30.0055 5.77041 34.7444C5.91467 36.3411 6.27933 37.8859 6.57186 39.4507C6.60118 39.5446 6.65296 39.63 6.72277 39.6995C6.79258 39.7691 6.87832 39.8207 6.97259 39.8499C7.14891 39.8858 7.49355 39.786 7.53763 39.6623C7.73799 39.1034 7.85818 38.5206 8.00644 37.9458L7.00463 37.7143V37.5147C7.20902 37.4461 7.42228 37.4071 7.63781 37.3989C7.71804 37.4197 7.80203 37.4213 7.88303 37.4038C7.96402 37.3862 8.03974 37.35 8.10408 37.2979C8.16842 37.2459 8.21957 37.1795 8.25342 37.1041C8.28728 37.0288 8.30288 36.9465 8.29897 36.864C8.36709 36.3331 8.39516 35.7982 8.4713 35.2673C8.53141 34.8682 8.35507 34.6765 8.00243 34.5288C7.50553 34.3173 7.0287 34.0538 6.53581 33.8103C6.62798 33.6387 6.64401 33.5668 6.6921 33.5349C7.17297 33.1756 7.66181 32.8244 8.14669 32.4691C8.2981 32.3839 8.42216 32.2577 8.50432 32.105C8.58648 31.9524 8.62341 31.7796 8.61081 31.6069C8.59821 31.4341 8.53659 31.2685 8.43314 31.1293C8.3297 30.99 8.18868 30.883 8.0265 30.8205L6.65199 30.1259C7.22903 29.6988 7.65382 29.3276 8.12267 29.0482C8.28206 28.9584 8.41215 28.8249 8.49742 28.6635C8.58269 28.5021 8.61952 28.3197 8.60352 28.138C8.60352 27.2399 8.65966 26.3417 8.69172 25.4875L11.1442 26.3178L11.1161 26.5653C10.7434 26.5653 10.3707 26.5653 10.0061 26.6251C9.6414 26.685 9.2888 26.6691 9.09646 26.8607C8.75584 27.204 9.12449 28.7448 9.52922 29.0442C9.93396 29.3435 10.4268 29.7228 10.9798 30.1419C10.4509 30.4053 10.0862 30.593 9.71755 30.7726C8.85198 31.1718 8.79587 31.9701 9.60133 32.537C9.90588 32.7525 10.2225 32.9361 10.511 33.1876C10.703 33.361 10.8825 33.5478 11.048 33.7465C10.8487 33.912 10.6355 34.0602 10.4108 34.1896C9.02028 34.8322 9.01627 34.8282 9.20862 36.2932C9.20862 36.4329 9.29277 36.5686 9.3088 36.6924C9.3609 37.1634 9.53321 37.4668 10.1103 37.383C10.2997 37.3941 10.4851 37.4429 10.6552 37.5267V37.6943L9.67749 37.9298L10.0782 39.3868C10.1904 39.1753 10.2425 39.0954 10.2786 39.0076C11.2323 36.7829 12.182 34.5568 13.1277 32.3294C13.2012 32.1391 13.2431 31.9382 13.252 31.7346C13.3802 30.1738 13.3802 30.1698 11.9897 29.4713C11.589 29.2717 11.4166 29.0122 11.9055 28.7927C13.276 28.1859 13.5325 27.1082 13.3802 25.7629C13.3261 24.9961 13.3261 24.2265 13.3802 23.4597C13.3802 23.0086 13.4643 22.5575 13.5084 22.0785C13.6967 22.2621 13.809 22.4537 13.9652 22.5056C14.6946 22.7372 15.4399 22.9288 16.1813 23.1363V23.4317L15.0392 23.5156L13.8691 23.6234C13.8691 24.8728 13.9011 25.9905 13.8691 27.1042C13.844 27.3265 13.8878 27.5512 13.9945 27.7481C14.1012 27.945 14.2658 28.1048 14.4661 28.2059C14.8909 28.4614 15.2676 28.7887 15.8046 29.1799C15.1875 29.4673 14.7707 29.6868 14.3339 29.8625C14.1873 29.9082 14.0617 30.0044 13.9795 30.1338C13.8973 30.2632 13.8638 30.4174 13.8851 30.569C13.8481 31.4582 14.0282 32.3431 14.41 33.1477C14.8468 34.0219 15.2115 34.936 15.6122 35.8781C16.8705 34.0698 16.0891 32.022 16.6582 30.1778C16.7552 30.892 16.7927 31.613 16.7703 32.3334C16.7703 33.495 16.8024 34.6326 17.3594 35.7184C17.8443 36.6525 18.1609 37.6624 18.5616 38.6404C18.6898 39.0036 18.8221 39.315 19.0064 39.7581ZM9.64144 47.043C10.0822 47.7137 10.3667 48.1967 10.7073 48.6398C10.7789 48.7109 10.8649 48.7659 10.9596 48.801C11.0544 48.8361 11.1555 48.8506 11.2563 48.8433C12.6028 48.7316 13.9412 48.52 15.2917 48.4681C19.1947 48.3244 23.0417 48.9391 26.8846 49.502C29.4573 49.8772 32.022 50.3682 34.6347 50.1047C36.8668 49.8772 39.0867 49.5818 41.3108 49.3064C41.5774 49.2954 41.8315 49.1907 42.0281 49.011C42.545 48.3284 42.9979 47.5939 43.5549 46.7596C43.2062 46.8275 43.0259 46.8554 42.8456 46.8993C39.8166 47.6472 36.7094 48.0357 33.5888 48.0569C30.383 48.0569 27.2614 47.522 24.1197 47.0271C21.2224 46.572 18.3091 46.1968 15.3678 46.4243C13.5124 46.56 11.6771 46.8155 9.64144 47.043ZM12.4986 50.6676L12.3944 50.923C13.0075 51.5058 13.5966 52.0966 14.2498 52.6595C14.4023 52.7554 14.5843 52.7936 14.7627 52.7672C18.1929 52.4399 21.575 52.9748 24.9331 53.4778C28.2912 53.9807 31.6253 54.4837 35.0314 54.4398C35.5989 54.4613 36.1646 54.3661 36.6935 54.16C37.2223 53.954 37.7028 53.6415 38.105 53.2422C38.6179 52.7313 39.1749 52.2643 39.7079 51.7813C39.5694 51.7158 39.4135 51.6962 39.2631 51.7254C35.9329 52.2599 32.5431 52.3163 29.1968 51.893C25.0213 51.3182 20.8738 50.5039 16.6381 50.4999C15.2596 50.5039 13.8771 50.6077 12.4986 50.6676ZM32.5349 56.4197C27.2734 56.1922 22.2683 54.791 17.0428 54.7112C21.3346 57.745 27.7823 58.4395 32.5349 56.4197ZM29.5414 41.8577C30.7196 41.8577 31.7455 41.8577 32.7753 41.8378C32.9076 41.8378 33.0919 41.6182 33.144 41.4665C33.3644 40.8199 33.5447 40.1612 33.7371 39.5066C34.0443 38.4421 34.3502 37.3776 34.6547 36.3132L34.5265 36.2453L29.5414 41.8577ZM40.9982 35.8302C40.3811 38.5805 39.752 41.3747 39.0908 44.3087C39.6959 44.2209 40.2048 44.169 40.6937 44.0572C40.7723 44.0211 40.8402 43.9654 40.8907 43.8955C40.9413 43.8255 40.9728 43.7437 40.9822 43.658C41.0022 41.0514 40.9982 38.4248 40.9982 35.8302ZM40.9261 34.1975L40.8139 34.1656C39.8548 36.4489 38.9011 38.7322 37.9527 41.0155C37.9128 41.0871 37.8986 41.1702 37.9126 41.251C38.1811 42.0014 38.4616 42.7479 38.7942 43.646L40.9261 34.1975ZM45.3982 41.8218L42.0922 34.1896L41.9599 34.2374C42.565 36.7602 43.1621 39.283 43.7752 41.8218H45.3982ZM13.1398 33.8982L13.0516 33.8463C12.9715 34.0099 12.8833 34.1696 12.8111 34.3372C12.0097 36.2001 11.2082 38.0629 10.4068 39.9257C10.2636 40.3166 10.2741 40.7469 10.4361 41.1304C10.5981 41.5139 10.8997 41.8222 11.2804 41.9935C11.9095 39.279 12.5267 36.5926 13.1398 33.8982ZM41.9279 43.3547L42.1162 43.4145C42.4396 43.1011 42.746 42.7706 43.0339 42.4246C43.2052 42.2262 43.2965 41.9716 43.2904 41.71C42.8696 39.778 42.4088 37.858 41.9279 35.7903V43.3547ZM13.1678 35.6226C12.727 37.5746 12.2942 39.4587 11.8775 41.3468C11.625 42.4685 11.6731 42.5443 12.7951 42.8437C12.9181 42.8718 13.0425 42.8931 13.1678 42.9076V35.6226ZM36.6944 43.0632C36.9469 42.2649 37.4398 41.5703 37.3196 40.9835C36.9533 39.5126 36.5065 38.0628 35.9811 36.6405C35.889 38.1893 35.921 39.7102 35.8769 41.231C35.87 41.5775 35.9397 41.9212 36.0809 42.2378C36.2222 42.5544 36.4317 42.8362 36.6944 43.0632ZM17.9565 41.1672C18.6738 40.3688 18.7138 40.1772 18.3251 39.2192C18.0807 38.6084 17.8403 37.9937 17.5918 37.383C17.3875 36.888 17.1911 36.393 16.9026 35.7304C16.8385 37.7462 16.7423 39.5744 17.9565 41.1672ZM14.8829 39.1194C14.4863 39.7037 14.2196 40.3657 14.1007 41.061C13.9819 41.7563 14.0136 42.4689 14.1937 43.1511L15.7966 42.8557L14.8829 39.1194ZM35.0394 41.8378V36.4449L33.5006 41.8378H35.0394ZM21.3386 35.898L19.4993 39.8299H21.3386V35.898ZM15.6002 37.1714C15.4319 37.6744 15.1354 38.0855 15.1995 38.4368C15.4239 39.7182 15.7645 40.9795 16.061 42.2449C16.3375 38.7761 16.3095 38.4567 15.5842 37.1714H15.6002ZM38.3775 44.157L38.4897 44.0133C38.2292 43.3107 37.9688 42.6082 37.6482 41.7579C37.3877 42.3847 37.1833 42.8637 36.9549 43.4105L38.3775 44.157ZM14.0494 39.6263C14.3886 39.0603 14.5677 38.4134 14.5677 37.7542C14.5677 37.095 14.3886 36.4481 14.0494 35.8821V39.6263ZM14.927 37.387L15.0953 37.4269C15.1795 37.0916 15.4078 36.7044 15.3117 36.4249C15.0191 35.5507 14.6064 34.7165 14.2378 33.8702L14.1255 33.9061L14.927 37.387ZM36.6624 34.4251H34.2139C35.0434 35.0717 35.8369 35.1436 36.6464 34.4251H36.6624ZM36.9789 33.7105L37.0351 33.6028L35.8329 32.7645V33.7105H36.9789ZM36.4941 29.4833H34.4424C35.4963 30.098 35.5363 30.098 36.478 29.4833H36.4941ZM35.1115 32.7525L33.7611 33.7026H35.1115V32.7525ZM7.77003 34.0299C8.87603 34.6765 9.1886 34.6646 9.86983 34.0299H7.77003ZM42.4969 31.567H40.4652C41.1505 32.1138 41.7997 32.1378 42.4809 31.567H42.4969ZM12.7631 29.4593C13.5365 30.0341 13.7609 30.0301 14.4421 29.4593H12.7631ZM9.20461 33.4511H10.3788L9.20461 32.6527V33.4511ZM8.65161 32.5888L7.53763 33.3872C7.6902 33.4799 7.8684 33.5219 8.04651 33.507C8.20279 33.507 8.36308 33.483 8.55143 33.467L8.65161 32.5888ZM7.99446 39.8299C8.53544 39.8539 8.67167 39.2511 8.42723 38.1374L7.99446 39.8299ZM34.0737 28.8725H35.2077V28.0742L34.0737 28.8725ZM9.33287 38.1175C9.1846 39.7142 9.24472 39.9257 9.79371 39.778L9.33287 38.1175ZM35.7808 28.8566H36.8788L35.7808 28.0981V28.8566ZM7.98243 30.4094C8.91211 30.9882 9.06036 30.9842 9.66947 30.4094H7.98243ZM17.0468 41.9855C17.676 41.5863 17.676 41.4186 17.0468 40.5804V41.9855ZM42.8856 30.8963L41.7836 30.1219V30.8963H42.8856ZM8.61154 29.1839L7.73799 29.7347L7.78607 29.8385H8.61154V29.1839ZM9.12449 29.1839L9.16054 29.8385H10.1464L9.12449 29.1839ZM40.0405 30.9043H41.1144V30.1539L40.0405 30.9043Z" fill="black"/>
<path d="M19.0064 39.7581C18.8221 39.315 18.6898 39.0036 18.5616 38.6883C18.1608 37.7103 17.8282 36.6924 17.3594 35.7663C16.8024 34.6805 16.7663 33.5429 16.7703 32.3813C16.7927 31.6609 16.7552 30.9399 16.6581 30.2257C16.0891 32.0699 16.8705 34.1177 15.6122 35.926C15.2115 34.9839 14.8508 34.0698 14.41 33.1956C14.0282 32.391 13.8481 31.5061 13.8851 30.6169C13.8638 30.4653 13.8973 30.3111 13.9794 30.1817C14.0616 30.0523 14.1872 29.9562 14.3339 29.9104C14.7707 29.7347 15.1875 29.5112 15.8046 29.2278C15.2716 28.8286 14.8909 28.5093 14.4661 28.2538C14.2657 28.1527 14.1012 27.993 13.9945 27.796C13.8877 27.5991 13.844 27.3744 13.869 27.1521C13.9131 26.0384 13.869 24.9207 13.869 23.6713L15.0392 23.5635L16.1812 23.4796V23.1842C15.4399 22.9767 14.6945 22.7851 13.9652 22.5535C13.8089 22.5016 13.6967 22.3101 13.5084 22.1264C13.4643 22.6055 13.3922 23.0565 13.3802 23.5076C13.3261 24.2744 13.3261 25.044 13.3802 25.8108C13.5324 27.1561 13.2759 28.2338 11.9055 28.8406C11.4166 29.0601 11.5889 29.3196 11.9897 29.5192C13.3802 30.2177 13.3802 30.2217 13.2519 31.7825C13.2431 31.9861 13.2011 32.187 13.1277 32.3773C12.1847 34.6074 11.2349 36.8334 10.2785 39.0555C10.2425 39.1433 10.1904 39.2232 10.0782 39.4347L9.67745 37.9777L10.6552 37.7422V37.5746C10.485 37.4908 10.2997 37.442 10.1102 37.4309C9.54921 37.5147 9.37689 37.2113 9.30877 36.7403C9.30877 36.5966 9.22462 36.4609 9.20859 36.3411C9.01624 34.8761 9.02025 34.8801 10.4108 34.2374C10.6355 34.1081 10.8486 33.9599 11.048 33.7944C10.8825 33.5957 10.703 33.4089 10.5109 33.2355C10.2224 33 9.90584 32.8004 9.60129 32.5849C8.79984 32.014 8.85195 31.2396 9.71752 30.8205C10.0862 30.6409 10.4509 30.4532 10.9798 30.1898C10.4268 29.7906 9.98201 29.4274 9.52919 29.0921C9.07637 28.7567 8.75581 27.2519 9.09642 26.9086C9.28877 26.717 9.69346 26.713 10.006 26.673C10.3186 26.6331 10.7434 26.6331 11.116 26.6132L11.1441 26.3657L8.69169 25.5354C8.65963 26.3896 8.59948 27.2878 8.60349 28.1859C8.61948 28.3676 8.58266 28.55 8.49739 28.7114C8.41212 28.8728 8.28203 29.0063 8.12264 29.096C7.65379 29.3874 7.229 29.7467 6.65196 30.1738L8.02647 30.8684C8.18864 30.9309 8.32967 31.0379 8.43311 31.1772C8.53656 31.3164 8.59818 31.482 8.61078 31.6548C8.62337 31.8275 8.58645 32.0003 8.50428 32.1529C8.42212 32.3056 8.29807 32.4318 8.14666 32.517C7.66178 32.8723 7.17294 33.2235 6.69207 33.5828C6.64398 33.6147 6.62794 33.6866 6.53578 33.8582C7.02867 34.1017 7.5055 34.3652 8.0024 34.5767C8.35504 34.7244 8.53137 34.9121 8.47127 35.3152C8.39513 35.8461 8.36706 36.381 8.29893 36.9119C8.30284 36.9944 8.28725 37.0766 8.25339 37.152C8.21954 37.2274 8.16839 37.2938 8.10405 37.3458C8.03971 37.3979 7.96399 37.4341 7.88299 37.4517C7.802 37.4692 7.71801 37.4676 7.63777 37.4468C7.42225 37.455 7.20899 37.494 7.0046 37.5626V37.7622L8.00641 37.9937C7.85814 38.5685 7.73796 39.1513 7.53759 39.7102C7.49351 39.8339 7.13685 39.9337 6.97256 39.8978C6.87829 39.8686 6.79255 39.817 6.72274 39.7474C6.65293 39.6779 6.60115 39.5925 6.57183 39.4986C6.2793 37.9338 5.91464 36.373 5.77038 34.7923C5.3149 30.0534 5.99048 25.2744 7.74197 20.8451C8.544 18.8203 9.58664 16.8986 10.8476 15.1209C10.9348 14.9411 11.0864 14.8004 11.2726 14.7265C11.4588 14.6526 11.666 14.6509 11.8534 14.7217C13.4433 15.0336 15.0811 15.0118 16.6621 14.6578C18.6898 14.2826 20.7335 14.0591 22.8453 14.4423L23.1058 13.4124C21.9036 13.2487 20.7655 13.0132 19.6034 12.9533C18.2971 12.8975 16.9867 13.0332 15.6803 13.0491C14.7504 13.0914 13.826 12.8846 13.0035 12.4504C13.7168 11.8117 14.374 11.2169 15.0472 10.6381C15.1018 10.5922 15.1678 10.5618 15.2383 10.5498C15.3087 10.5379 15.3811 10.545 15.4479 10.5703C16.8384 11.4285 18.4253 11.5483 19.9721 11.8476C21.1061 12.0712 22.2121 12.4264 23.3903 12.7418L23.9233 11.9434C23.0617 11.5842 22.2563 11.197 21.4147 10.9016C20.1805 10.4665 18.9061 10.1391 17.8683 9.28491C17.7601 9.1931 17.6399 9.11327 17.4355 8.96557L20.0923 7.6403L24.5644 11.3966L25.1735 11.0652C24.7287 9.42064 23.3422 8.40673 22.3444 6.92578L25.4661 6.43081L25.999 10.8218H26.9568L27.4817 6.43081L30.5793 6.86989C29.7138 8.38277 28.2351 9.34479 27.8263 11.0333L28.4194 11.3846L32.8274 7.61236L35.4281 8.87377C33.709 10.7818 31.0201 10.5583 29.1127 12.0073L29.5374 12.6659C31.0842 12.3147 32.5749 11.9913 34.0576 11.6361C35.0172 11.4648 35.9571 11.1973 36.8627 10.8377C37.5479 10.5184 37.9687 10.5423 38.4656 11.0732C38.8984 11.5443 39.3913 11.9594 39.9082 12.4424C38.8223 12.9754 37.6012 13.1727 36.4018 13.0092C34.5393 12.7978 32.6552 12.8732 30.8157 13.2328C30.5192 13.3006 30.2267 13.3924 29.9421 13.4723C30.0503 14.4263 30.0463 14.4063 30.8959 14.3026C32.7221 14.1369 34.563 14.2527 36.3538 14.6458C38.006 14.9911 39.7113 14.9993 41.3668 14.6698C41.4971 14.6765 41.6243 14.7119 41.7393 14.7733C41.8543 14.8347 41.9543 14.9207 42.0321 15.0251C43.997 17.7307 45.4338 20.7801 46.2677 24.0145C47.7779 29.6293 47.671 35.5542 45.9592 41.1113C45.9191 41.247 45.859 41.3827 45.7668 41.6462C44.4244 38.4847 43.122 35.419 41.7956 32.2855L43.9075 31.2716C43.2623 30.8005 42.7894 30.4093 42.2685 30.102C42.066 30.0009 41.9015 29.8377 41.7991 29.6365C41.6966 29.4353 41.6617 29.2067 41.6995 28.9843C41.7564 28.4536 41.7564 27.9183 41.6995 27.3876C41.6233 26.8567 41.8798 26.7169 42.3006 26.693C42.569 26.693 42.8415 26.7529 43.102 26.7329C43.4101 26.7017 43.7163 26.6551 44.0196 26.5932V26.3777L41.2947 25.4117C41.2179 26.1355 41.1964 26.8641 41.2306 27.5911C41.4029 29.0681 41.0263 30.1778 39.5997 30.8644C39.0427 31.1318 39.1027 31.3674 39.6758 31.6388C40.1206 31.8504 40.5694 32.038 41.0663 32.2775L37.6401 40.5644L35.8889 35.2673C36.5141 34.9679 37.0911 34.7085 37.6321 34.433C38.1049 34.1975 38.121 33.9979 37.6962 33.6826C37.2113 33.3273 36.7224 32.9681 36.2135 32.6487C36.0627 32.5496 35.9385 32.4152 35.8519 32.2572C35.7653 32.0993 35.7188 31.9226 35.7166 31.7426C35.5483 30.6608 35.8609 29.9543 36.9829 29.6988C37.1237 29.6581 37.2584 29.599 37.3836 29.5232C37.7363 29.3276 37.7603 29.124 37.4197 28.8685C36.9659 28.5754 36.5272 28.2596 36.1053 27.9225C35.8985 27.7465 35.7643 27.5005 35.7286 27.2319C35.6886 26.0982 35.7286 24.9606 35.7286 23.6912L36.9027 23.5874L38.0408 23.4996V23.2002C37.2995 22.9966 36.5541 22.801 35.8168 22.5815C35.6565 22.5336 35.5403 22.342 35.2237 22.0506C35.2237 23.6074 35.1596 25.0125 35.2477 26.4056C35.3038 27.3277 35.0474 27.9544 34.2139 28.3536C34.0532 28.4491 33.9004 28.5572 33.7571 28.6769C33.0317 29.1919 33.0358 29.3036 33.8212 29.6669C35.2718 30.3375 35.2838 30.3415 35.1316 31.9102C35.0918 32.1613 34.9623 32.3895 34.7669 32.5529C34.286 32.9521 33.7571 33.2834 33.2521 33.6467C32.7472 34.0099 32.7272 34.1776 33.3363 34.4809C33.8332 34.7324 34.3421 34.9679 34.9392 35.2434C34.7629 35.4589 34.6146 35.6425 34.4543 35.8262C32.7833 37.6744 31.1042 39.5146 29.4412 41.3667C29.3205 41.5332 29.1655 41.672 28.9865 41.7739C28.8075 41.8758 28.6086 41.9384 28.4034 41.9575C28.219 41.9575 27.9105 42.1451 27.8984 42.2729C27.9067 42.5102 27.9973 42.7373 28.1549 42.9155C28.4177 43.2657 28.7085 43.5941 29.0245 43.8975C29.6336 44.4763 30.2627 45.0352 30.8999 45.586C31.0674 45.6995 31.2477 45.7933 31.4369 45.8655L31.4008 46.0251L20.6213 44.4923C21.1783 44.2408 21.575 44.0931 21.9597 43.8816C22.9715 43.377 23.7986 42.5685 24.324 41.5703C24.4362 41.3468 24.6967 41.2071 24.8489 41.0035C25.0012 40.7999 25.1455 40.5045 25.2937 40.257C25.0607 40.1243 24.8198 40.0057 24.5725 39.9018C24.4003 39.8634 24.2238 39.8473 24.0475 39.8539V37.363L26.4719 37.2113L26.5039 36.9439L23.6988 36.0018V39.8339H22.1601C22.116 38.7122 22.1601 37.5706 22.0038 36.4569C21.7593 34.6885 22.5207 33.2635 23.3663 31.6667L25.438 32.6367L25.6143 32.3853C25.0693 31.8464 24.5163 31.3155 24.0114 30.7606C23.8872 30.6289 23.8671 30.4053 23.7309 30.0421L22.0879 33.3992H21.9837L21.8515 30.6049H21.6151C21.583 31.8025 21.567 33 21.5109 34.1975C21.4925 34.5437 21.4096 34.8835 21.2665 35.1995C20.5291 36.6645 19.7958 38.1414 19.0064 39.7581ZM25.7345 16.4182C25.1334 16.1348 24.5724 15.8234 23.9793 15.6198C21.9276 14.8654 19.9721 15.2885 18.0686 16.1787C16.5138 16.9052 15.0031 17.7475 13.2599 18.0588C13.1751 18.0789 13.0966 18.1196 13.0315 18.1775C12.9665 18.2353 12.9169 18.3084 12.8873 18.3901C12.8788 18.4871 12.8928 18.5846 12.9283 18.6753C12.9637 18.766 13.0196 18.8473 13.0916 18.913C13.3709 19.1237 13.6989 19.261 14.0454 19.3122C15.2178 19.4212 16.3971 19.4346 17.5717 19.3522C19.4752 19.1406 20.1284 19.3522 21.0941 20.9489C21.2664 21.2323 21.4548 21.5077 21.6191 21.7951C21.9958 22.4617 21.9357 22.7052 21.2985 23.1323C20.6614 23.5595 20.0603 23.9028 19.4952 24.3538C18.7379 24.9566 18.5696 25.5514 18.9142 26.1142C19.2588 26.677 19.8319 26.717 20.7495 26.2579C21.2425 25.9789 21.8114 25.8622 22.3749 25.9246C22.9384 25.9869 23.4677 26.2252 23.8872 26.6052C24.1589 26.8888 24.4553 27.1479 24.7728 27.3796C25.0868 27.5557 25.4491 27.627 25.8067 27.5832C25.9509 27.5512 26.0671 27.0722 26.0952 26.7848C26.1633 26.1262 26.1192 25.4556 26.2034 24.7889C26.2875 24.1223 26.5119 23.9906 27.1851 24.1183C27.5952 24.2203 28.028 24.1787 28.411 24.0007C28.7941 23.8227 29.104 23.5189 29.289 23.1403C29.6416 22.4977 29.9221 21.855 30.7075 21.6314C30.8412 21.569 30.9499 21.4635 31.0161 21.3321C31.8176 20.0307 33.0558 19.8471 34.4022 20.1106C36.6583 20.5537 38.4095 19.6156 40.0124 18.1945C40.0823 18.1271 40.1358 18.0444 40.1684 17.953C40.2011 17.8616 40.2122 17.764 40.2008 17.6676C40.1483 17.5848 40.0792 17.5137 39.9978 17.4587C39.9164 17.4038 39.8245 17.3662 39.7279 17.3483C39.4273 17.2764 39.0947 17.3243 38.8062 17.2365C37.2594 16.7615 35.7327 16.2386 34.1859 15.7755C32.4066 15.2406 30.6114 14.8255 28.7721 15.6079C28.7288 15.3823 28.6713 15.1596 28.5997 14.9413C28.3699 14.2129 28.0818 13.504 27.7381 12.8216C27.1451 11.8037 26.0912 11.7478 25.3098 12.63C25.0595 12.9328 24.8292 13.2515 24.6205 13.584C24.3841 13.9273 24.4402 14.2507 24.8169 14.4103C25.7907 14.8295 25.7025 15.6438 25.7345 16.4182Z" fill="white"/>
<path d="M9.64144 47.043C11.6451 46.8155 13.5124 46.56 15.3678 46.4163C18.3091 46.1888 21.2224 46.564 24.1197 47.0191C27.2613 47.5141 30.399 48.037 33.5888 48.0489C36.7094 48.0277 39.8165 47.6392 42.8456 46.8913C43.0259 46.8474 43.2062 46.8195 43.5549 46.7516C42.9978 47.5859 42.545 48.3204 42.0281 49.003C41.8315 49.1827 41.5774 49.2874 41.3108 49.2984C39.0867 49.5778 36.8667 49.8732 34.6347 50.0967C32.022 50.3602 29.4573 49.8692 26.8846 49.494C23.0417 48.9311 19.1947 48.2964 15.2916 48.4601C13.9412 48.512 12.6028 48.7236 11.2563 48.8353C11.1555 48.8426 11.0544 48.8281 10.9596 48.793C10.8649 48.7579 10.7788 48.7029 10.7073 48.6317C10.3667 48.1966 10.0742 47.7137 9.64144 47.043Z" fill="white"/>
<path d="M12.4986 50.6676C13.8771 50.6077 15.2596 50.5039 16.6421 50.5039C20.8778 50.5039 25.0253 51.3022 29.2008 51.897C32.5471 52.3203 35.9369 52.2639 39.2671 51.7294C39.4175 51.7002 39.5734 51.7198 39.7119 51.7853C39.1749 52.2683 38.6179 52.7353 38.109 53.2462C37.7068 53.6455 37.2263 53.958 36.6975 54.164C36.1686 54.37 35.6028 54.4653 35.0354 54.4438C31.6292 54.4877 28.2872 53.9807 24.9371 53.4818C21.587 52.9828 18.1969 52.4439 14.7667 52.7712C14.5883 52.7976 14.4063 52.7594 14.2538 52.6635C13.6206 52.1006 13.0115 51.5098 12.3984 50.927L12.4986 50.6676Z" fill="white"/>
<path d="M32.5349 56.4197C27.7823 58.4435 21.3146 57.745 17.0428 54.7112C22.2683 54.791 27.2734 56.1922 32.5349 56.4197Z" fill="white"/>
<path d="M29.5414 41.8577L34.5265 36.2693L34.6547 36.3371C34.3502 37.4016 34.0443 38.4661 33.7371 39.5305C33.5447 40.1852 33.3644 40.8438 33.144 41.4905C33.0919 41.6422 32.9076 41.8577 32.7753 41.8617C31.7455 41.8697 30.7196 41.8577 29.5414 41.8577Z" fill="white"/>
<path d="M40.9982 35.8302C40.9982 38.4248 40.9982 41.0514 40.9982 43.674C40.9888 43.7597 40.9573 43.8415 40.9067 43.9114C40.8562 43.9814 40.7883 44.0371 40.7097 44.0732C40.2168 44.1849 39.7078 44.2368 39.1068 44.3246C39.7519 41.3747 40.3811 38.5805 40.9982 35.8302Z" fill="white"/>
<path d="M40.9301 34.1975L38.7942 43.67C38.4616 42.7679 38.1811 42.0214 37.9126 41.2749C37.8986 41.1942 37.9127 41.1111 37.9526 41.0394C38.9037 38.7561 39.8574 36.4728 40.8138 34.1895L40.9301 34.1975Z" fill="white"/>
<path d="M45.3982 41.8218H43.7752C43.1701 39.283 42.5731 36.7602 41.9599 34.2374L42.0922 34.1896L45.3982 41.8218Z" fill="white"/>
<path d="M13.1398 33.8982C12.5267 36.5926 11.9095 39.283 11.2924 41.9895C10.9117 41.8182 10.6101 41.5099 10.4481 41.1264C10.2861 40.7429 10.2756 40.3126 10.4188 39.9217C11.2203 38.0589 12.0217 36.1961 12.8232 34.3332C12.8953 34.1656 12.9835 34.0059 13.0636 33.8423L13.1398 33.8982Z" fill="white"/>
<path d="M41.9279 43.3547L41.9279 35.7703C42.4088 37.838 42.8696 39.762 43.2904 41.6901C43.2965 41.9516 43.2051 42.2062 43.0339 42.4046C42.7459 42.7507 42.4396 43.0811 42.1162 43.3946L41.9279 43.3547Z" fill="white"/>
<path d="M13.1678 35.6226V42.9076C13.0425 42.8931 12.9181 42.8718 12.7951 42.8437C11.6731 42.5403 11.625 42.4685 11.8775 41.3468C12.2942 39.4587 12.727 37.5746 13.1678 35.6226Z" fill="white"/>
<path d="M36.6944 43.0632C36.4346 42.8347 36.2281 42.5522 36.0897 42.2357C35.9512 41.9191 35.8841 41.5762 35.893 41.231C35.9371 39.7102 35.8929 38.1893 35.9971 36.6405C36.5225 38.0628 36.9694 39.5126 37.3356 40.9835C37.4398 41.5703 36.9469 42.2848 36.6944 43.0632Z" fill="white"/>
<path d="M17.9565 41.1672C16.7543 39.5704 16.8385 37.7462 16.9026 35.7304C17.1791 36.393 17.3875 36.888 17.5918 37.383C17.8403 37.9937 18.0807 38.6084 18.3251 39.2192C18.7138 40.1772 18.6738 40.3848 17.9565 41.1672Z" fill="white"/>
<path d="M14.8829 39.1194L15.8006 42.8557L14.1977 43.1511C14.017 42.4692 13.9847 41.7568 14.1028 41.0614C14.221 40.3661 14.487 39.704 14.8829 39.1194Z" fill="white"/>
<path d="M35.0234 41.8378H33.4846L35.0234 36.4449V41.8378Z" fill="white"/>
<path d="M21.3225 35.898V39.8299H19.4832L21.3225 35.898Z" fill="white"/>
<path d="M15.5842 37.1714C16.3095 38.4567 16.3375 38.7681 16.041 42.2449C15.7445 40.9795 15.4038 39.7182 15.1794 38.4368C15.1193 38.0815 15.4159 37.6823 15.5842 37.1714Z" fill="white"/>
<path d="M38.3614 44.157L36.9389 43.4105C37.1673 42.8636 37.3716 42.3847 37.6321 41.7579C37.9527 42.6082 38.2132 43.3107 38.4736 44.0133L38.3614 44.157Z" fill="white"/>
<path d="M14.0334 39.6263V35.8821C14.3726 36.4481 14.5516 37.095 14.5516 37.7542C14.5516 38.4134 14.3726 39.0603 14.0334 39.6263Z" fill="white"/>
<path d="M14.9109 37.387L14.1095 33.9061L14.2217 33.8702C14.5904 34.7165 15.0232 35.5507 15.2957 36.4249C15.3918 36.7043 15.1634 37.0916 15.0793 37.4269L14.9109 37.387Z" fill="white"/>
<path d="M36.6464 34.4251C35.8449 35.1436 35.0434 35.0717 34.1979 34.4251H36.6464Z" fill="white"/>
<path d="M36.9629 33.7105H35.8128V32.7645L37.015 33.6028L36.9629 33.7105Z" fill="white"/>
<path d="M36.478 29.4833C35.5363 30.102 35.4962 30.106 34.4263 29.4833L36.478 29.4833Z" fill="white"/>
<path d="M35.0955 32.7525V33.6906H33.745L35.0955 32.7525Z" fill="white"/>
<path d="M7.75397 34.0299H9.85377C9.17254 34.6646 8.872 34.6765 7.75397 34.0299Z" fill="white"/>
<path d="M42.4809 31.567C41.7997 32.1378 41.1505 32.1138 40.4492 31.567L42.4809 31.567Z" fill="white"/>
<path d="M12.7471 29.4593H14.4261C13.7448 30.0301 13.5205 30.0341 12.7471 29.4593Z" fill="white"/>
<path d="M9.1886 33.4431V32.6447L10.3627 33.4431H9.1886Z" fill="white"/>
<path d="M8.6356 32.5809L8.53542 33.4471C8.34708 33.4471 8.18678 33.479 8.0305 33.487C7.8524 33.5019 7.67414 33.46 7.52157 33.3672L8.6356 32.5809Z" fill="white"/>
<path d="M7.9784 39.8219L8.41117 38.1294C8.65561 39.2431 8.51938 39.8459 7.9784 39.8219Z" fill="white"/>
<path d="M34.0576 28.8645L35.1917 28.0662V28.8645H34.0576Z" fill="white"/>
<path d="M9.31682 38.1095L9.77766 39.77C9.22867 39.9177 9.16855 39.7142 9.31682 38.1095Z" fill="white"/>
<path d="M35.7607 28.8486V28.1021L36.8587 28.8606L35.7607 28.8486Z" fill="white"/>
<path d="M7.96236 30.4014H9.6494C9.0403 30.9762 8.89204 30.9802 7.96236 30.4014Z" fill="white"/>
<path d="M17.0268 41.9935V40.5884C17.6559 41.4266 17.6559 41.6102 17.0268 41.9935Z" fill="white"/>
<path d="M42.8856 30.8963H41.7836V30.1219L42.8856 30.8963Z" fill="white"/>
<path d="M8.61153 29.1919V29.8465H7.78606L7.73798 29.7427L8.61153 29.1919Z" fill="white"/>
<path d="M9.12449 29.1839L10.1464 29.8385H9.16054L9.12449 29.1839Z" fill="white"/>
<path d="M40.0405 30.8963L41.1144 30.1459V30.8963H40.0405Z" fill="white"/>
<path d="M25.7345 16.4182C25.7105 15.6438 25.7906 14.8215 24.8289 14.4223C24.4522 14.2626 24.3961 13.9393 24.6325 13.596C24.8412 13.2634 25.0715 12.9447 25.3218 12.642C26.1233 11.7598 27.1571 11.8157 27.7502 12.8336C28.0939 13.516 28.382 14.2248 28.6118 14.9532C28.6833 15.1716 28.7409 15.3942 28.7841 15.6198C30.6234 14.8215 32.4186 15.2526 34.1979 15.7875C35.7447 16.2505 37.2714 16.7735 38.8182 17.2485C39.1068 17.3363 39.4394 17.2884 39.7399 17.3603C39.8366 17.3782 39.9285 17.4157 40.0099 17.4707C40.0912 17.5257 40.1603 17.5968 40.2128 17.6796C40.2242 17.7759 40.2131 17.8736 40.1804 17.965C40.1478 18.0564 40.0944 18.139 40.0244 18.2065C38.4215 19.6276 36.6744 20.5656 34.4143 20.1226C33.0678 19.8591 31.8376 20.0427 31.0282 21.344C30.962 21.4755 30.8533 21.581 30.7196 21.6434C29.9181 21.867 29.6536 22.5096 29.301 23.1523C29.116 23.5309 28.8061 23.8346 28.4231 24.0127C28.0401 24.1907 27.6073 24.2322 27.1972 24.1303C26.524 24.0025 26.2996 24.1303 26.2154 24.8009C26.1313 25.4715 26.1754 26.1222 26.1072 26.7968C26.0792 27.0842 25.963 27.5632 25.8187 27.5951C25.4611 27.639 25.0988 27.5676 24.7848 27.3915C24.4673 27.1599 24.171 26.9008 23.8992 26.6172C23.4798 26.2371 22.9504 25.9989 22.3869 25.9365C21.8234 25.8741 21.2545 25.9908 20.7616 26.2699C19.8439 26.7289 19.2668 26.669 18.9262 26.1262C18.5856 25.5833 18.7499 24.9686 19.5073 24.3658C20.0723 23.9147 20.7095 23.5675 21.3106 23.1443C21.9116 22.7212 22.0078 22.4737 21.6311 21.8071C21.4668 21.5197 21.2785 21.2442 21.1062 20.9608C20.1404 19.3641 19.5033 19.1486 17.5838 19.3641C16.4092 19.4465 15.2298 19.4332 14.0574 19.3242C13.7109 19.2729 13.383 19.1357 13.1037 18.925C13.0317 18.8593 12.9758 18.778 12.9403 18.6873C12.9049 18.5966 12.8909 18.499 12.8993 18.4021C12.9289 18.3204 12.9785 18.2473 13.0435 18.1895C13.1086 18.1316 13.1871 18.0908 13.272 18.0708C14.9991 17.7594 16.5098 16.9171 18.0807 16.1906C19.9881 15.3005 21.9397 14.8774 23.9914 15.6318C24.5724 15.8234 25.1334 16.1268 25.7345 16.4182ZM25.0814 26.4535C25.1855 25.6551 25.2256 24.9366 25.3779 24.262C25.3922 24.1158 25.4359 23.9739 25.5065 23.8449C25.577 23.7159 25.673 23.6024 25.7885 23.5111C25.9041 23.4198 26.0369 23.3527 26.1791 23.3137C26.3213 23.2746 26.47 23.2646 26.6162 23.284C28.2551 23.2521 28.8602 22.6174 28.8842 20.9528C28.9203 18.8013 28.2471 16.7934 27.622 14.7816C27.4583 14.2704 27.235 13.78 26.9568 13.3206C26.6923 12.8695 26.3517 12.8535 25.991 13.2328C25.8441 13.4148 25.7102 13.6069 25.5903 13.8076L25.8147 13.7716C26.0792 14.2786 26.5079 14.7656 26.5841 15.2965C26.9247 17.6916 26.3957 19.911 24.5364 21.5875C23.234 22.7851 21.7874 23.791 20.4089 24.8847C20.1725 25.0763 19.9561 25.2839 19.7317 25.4915L19.8078 25.707C21.7313 24.6173 23.4985 24.7051 25.0814 26.4535ZM15.2516 18.47L15.2796 18.6376C16.2534 18.5578 17.2231 18.47 18.1929 18.4061C19.6435 18.3063 20.8657 18.6935 21.6351 20.0387C21.8762 20.4738 22.1438 20.8937 22.4366 21.2961C22.8133 21.7951 23.0978 21.843 23.4985 21.368C24.1381 20.6386 24.7121 19.8545 25.2136 19.0248C25.7827 18.0349 25.5582 17.4281 24.5524 16.8732C23.8226 16.4494 23.0051 16.1977 22.1625 16.1375C21.3199 16.0773 20.4746 16.2102 19.6916 16.526C18.1769 17.1048 16.7263 17.8153 15.2516 18.462V18.47ZM38.4616 18.2464C36.8587 17.6876 35.3119 17.1367 33.7651 16.6258C32.5424 16.2091 31.2412 16.0726 29.9582 16.2266C29.321 16.3064 29.0966 16.5898 29.2129 17.1806C29.4533 18.446 29.7137 19.7114 29.9902 21.0806C30.2412 20.8458 30.478 20.5966 30.6995 20.3341C31.0178 19.9095 31.4405 19.5737 31.9269 19.3591C32.4133 19.1444 32.947 19.0582 33.4766 19.1086C33.9344 19.1157 34.3905 19.1652 34.8391 19.2563C36.2176 19.5438 37.3556 19.0488 38.4616 18.2384V18.2464Z" fill="black"/>
<path d="M25.0814 26.4535C23.4784 24.7051 21.7313 24.6173 19.7958 25.707L19.7196 25.4915C19.944 25.2919 20.1605 25.0923 20.3969 24.8847C21.7754 23.791 23.202 22.7651 24.5244 21.5875C26.3838 19.911 26.9287 17.7035 26.5721 15.2965C26.496 14.7656 26.0672 14.2786 25.8027 13.7717L25.5783 13.8076C25.6982 13.6069 25.8321 13.4148 25.979 13.2328C26.3396 12.8336 26.6803 12.8695 26.9447 13.3206C27.223 13.78 27.4462 14.2704 27.61 14.7816C28.2351 16.7775 28.9083 18.8013 28.8723 20.9529C28.8482 22.6174 28.2431 23.2521 26.6041 23.284C26.4579 23.2646 26.3093 23.2747 26.1671 23.3137C26.0249 23.3527 25.8921 23.4198 25.7765 23.5111C25.6609 23.6024 25.5651 23.7159 25.4945 23.8449C25.424 23.974 25.3802 24.1158 25.3659 24.262C25.2256 24.9366 25.1855 25.6352 25.0814 26.4535Z" fill="white"/>
<path d="M15.2516 18.462C16.7263 17.8153 18.1769 17.1048 19.6836 16.534C20.4665 16.2145 21.3126 16.0782 22.1567 16.1357C23.0008 16.1931 23.8204 16.4427 24.5524 16.8653C25.5582 17.4321 25.7827 18.0269 25.2136 19.0168C24.7121 19.8465 24.1381 20.6306 23.4985 21.36C23.0978 21.835 22.8133 21.7871 22.4366 21.2881C22.1439 20.8857 21.8762 20.4658 21.6351 20.0308C20.8657 18.6855 19.6315 18.2983 18.1929 18.3981C17.2231 18.462 16.2534 18.5498 15.2796 18.6296L15.2516 18.462Z" fill="white"/>
<path d="M38.4616 18.2384C37.3556 19.0368 36.2175 19.5438 34.8551 19.2444C34.4065 19.1532 33.9503 19.1037 33.4926 19.0967C32.963 19.0462 32.4293 19.1325 31.9429 19.3471C31.4565 19.5617 31.0339 19.8975 30.7156 20.3222C30.494 20.5846 30.2572 20.8339 30.0063 21.0686C29.7298 19.6994 29.4693 18.434 29.2289 17.1687C29.1127 16.5779 29.3371 16.2945 29.9742 16.2146C31.2572 16.0607 32.5585 16.1971 33.7811 16.6138C35.3199 17.1287 36.8467 17.6796 38.4616 18.2384Z" fill="white"/>
</g>
<defs>
<clipPath id="clip0_10_268">
<rect width="53" height="64" fill="white"/>
</clipPath>
</defs>
</svg>
