<svg width="214" height="214" viewBox="0 0 214 214" fill="none" xmlns="http://www.w3.org/2000/svg">
<circle cx="107" cy="107" r="107" fill="white"/>
<g clip-path="url(#clip0_169_281)">
<path d="M150.964 67.3687C147.819 68.1163 143.467 69.1509 142.528 67.5867C141.54 65.9417 144.913 62.3953 144.193 61.7446C143.621 61.2283 141.669 63.6153 139.14 63.2077C137.771 62.9862 136.173 61.9355 135.962 60.6172C135.644 58.6329 138.711 57.5516 138.404 55.3784C138.265 54.3751 137.42 53.2603 136.421 53.075C134.291 52.68 133.365 56.8695 129.948 57.5739C127.801 58.017 125.255 56.9642 123.916 55.3053C121.689 52.5476 123.568 49.0569 121.819 47.9463C120.404 47.0496 118.651 48.9914 115.612 49.7014C110.889 50.8008 105.238 48.4041 102.12 44.7838C97.9097 39.8934 97.7246 32.0766 100.728 27.32C107.437 16.6856 131.991 18.3041 138.173 27.9024C140.138 30.9521 142.941 38.9855 144.22 46.0644C144.582 48.0647 144.941 50.649 147.011 52.3511C149.672 54.5382 152.246 52.873 155.734 54.9123C158.603 56.5908 161.212 60.2619 160.386 62.9457C159.659 65.3014 156.549 66.0407 150.964 67.3687Z" fill="url(#paint0_linear_169_281)"/>
<path d="M116.8 79.4655C116.9 80.064 108.143 90.0323 106.708 94.8279L123.465 99.9141C123.465 99.9141 133.835 92.2862 137.138 92.2862L116.8 79.4655Z" fill="url(#paint1_linear_169_281)"/>
<path d="M116.885 78.0323C116.593 78.0406 113.411 83.0913 113.178 84.3726C113.178 84.3726 127.009 91.3742 129.747 95.6738L139.645 91.6229C139.645 91.6229 123.15 77.8637 116.885 78.0323Z" fill="url(#paint2_linear_169_281)"/>
<path d="M105.367 96.8833C105.367 96.8833 107.868 90.7025 109.419 89.6908C110.969 88.6792 120.113 91.9364 125.833 98.4001L123.095 100.669L105.367 96.8833Z" fill="url(#paint3_linear_169_281)"/>
<path d="M83.8902 47.2328C83.8902 47.2328 79.788 46.033 77.3521 46.6329C74.9161 47.2328 75.8028 50.2783 76.2315 51.2001C76.6602 52.1219 82.6221 50.1013 82.6221 50.1013L83.8902 47.2328Z" fill="url(#paint4_linear_169_281)"/>
<path d="M175.414 79.2578C175.254 77.7579 175.261 76.2448 175.436 74.7464C175.624 73.1641 175.904 72.4883 176.417 72.2897C176.815 72.1357 177.225 72.3176 177.35 72.3733C178.734 72.9872 179.102 75.3951 178.976 76.9265C178.827 78.7534 177.914 80.0814 177.35 80.7628L175.414 79.2578Z" fill="url(#paint5_linear_169_281)"/>
<path d="M83.4058 45.7195C82.6723 47.6054 81.9389 49.4917 81.2058 51.3784C83.8088 53.2959 87.7482 55.584 92.8289 56.1971C98.1658 56.8423 99.7262 55.0287 103.911 56.4403C108.465 57.9773 108.141 60.6409 114.344 64.1142C119.246 66.8586 121.908 66.5723 122.148 68.2103C122.464 70.3486 118.081 71.8891 112.134 78.7834C109.893 81.3822 109.559 82.2671 109.808 82.975C110.591 85.2157 116.243 82.915 122.136 85.4198C130.037 88.7767 131.774 97.9654 135.627 97.178C136.412 97.0178 136.601 96.583 139.232 93.5689C141.654 90.7945 143.732 88.5984 145.167 87.1213C147.715 88.2939 150.089 89.812 152.223 91.6327C157.732 96.3517 158.286 100.342 163.538 102.767C165.228 103.546 167.894 104.777 170.323 103.742C171.808 103.109 173.256 101.607 175.758 92.2179C176.937 87.7936 177.707 84.0431 178.194 81.3362L174.468 78.5493C172.965 80.1894 170.947 82.8133 169.7 86.4656C168.367 90.3674 168.838 92.7509 167.49 93.3348C165.82 94.0594 163.557 91.0669 158.2 85.9494C150.887 78.9652 149.484 79.1742 144.811 73.8936C140.496 69.0164 140.647 67.6564 137.833 64.3483C136.19 62.4148 131.129 56.9858 107.228 50.6845C99.3785 48.6169 91.4271 46.9597 83.4058 45.7195Z" fill="url(#paint6_linear_169_281)"/>
<path style="mix-blend-mode:multiply" opacity="0.3" d="M121.625 79.3665C120.973 74.8133 133.043 71.1157 132.251 67.2579C131.834 65.2143 128.229 65.1899 122.249 62.9499C111.331 58.8594 112.394 54.8371 104.456 52.7043C95.8802 50.4009 91.7195 54.3103 85.4994 50.4929C84.3983 49.8125 83.3894 48.9928 82.4976 48.0543C82.0665 49.1612 81.6359 50.2685 81.2058 51.3764C83.8088 53.2938 87.7482 55.5819 92.8289 56.195C98.1658 56.8402 99.7262 55.0266 103.911 56.4382C108.465 57.9752 108.141 60.6388 114.344 64.1121C119.246 66.8565 121.908 66.5702 122.148 68.2082C122.464 70.3465 118.081 71.887 112.134 78.7813C109.893 81.3801 109.559 82.265 109.808 82.9729C110.591 85.2136 116.243 82.913 122.136 85.4177C130.037 88.7746 131.774 97.9633 135.627 97.1759C135.695 97.1623 135.763 97.1449 135.829 97.1237C135.74 94.0288 135.032 90.6099 132.836 87.7463C128.68 82.3333 122.098 82.6705 121.625 79.3665Z" fill="url(#paint7_linear_169_281)"/>
<path style="mix-blend-mode:multiply" opacity="0.3" d="M168.769 101.835C165.585 101.713 164.709 97.5654 157.604 91.593C154.772 89.2101 148.684 84.0438 145.72 85.8908C145.447 86.0608 144.726 86.5799 144.266 88.0556C144.587 87.7198 144.888 87.4083 145.164 87.1241C147.712 88.2967 150.086 89.8147 152.22 91.6355C157.73 96.3545 158.283 100.345 163.536 102.769C165.225 103.549 167.891 104.78 170.32 103.745C171.346 103.307 172.355 102.454 173.705 98.8725C171.686 101.294 170.035 101.884 168.769 101.835Z" fill="url(#paint8_linear_169_281)"/>
<path d="M149.795 65.8449C149.795 65.8449 143.74 70.4301 139.645 66.7625C139.645 66.7625 138.222 73.4923 146.987 78.0323C146.987 78.0323 143.71 74.9917 150.894 70.4413L149.795 65.8449Z" fill="url(#paint9_linear_169_281)"/>
<path d="M157.532 62.1417C157.532 62.1417 157.368 68.7287 154.768 71.9658C154.59 72.1893 154.348 72.3539 154.075 72.438C153.802 72.5222 153.51 72.522 153.237 72.4374C151.831 71.9957 149.184 70.6956 148.581 67.0725C148.581 67.0725 147.183 65.1398 147.383 64.2939C147.583 63.4481 149.081 63.756 149.563 64.8221C150.045 65.8881 150.699 63.9978 150.486 63.6418C150.273 63.2857 152.198 59.6153 157.532 62.1417Z" fill="url(#paint10_linear_169_281)"/>
<path d="M106.549 96.1301C94.6267 100.729 93.1031 104.651 92.8261 106.143C92.7746 106.422 92.5039 108.024 92.2693 110.1C91.8121 114.109 92.0473 114.913 91.5733 116.294C90.7528 118.677 88.987 119.369 86.8545 121.214C80.6922 126.544 82.579 131.88 76.9944 135.768C74.3628 137.6 72.1391 137.671 70.3824 138.159C64.8966 139.686 58.302 146.875 53.7523 172.154L57.1244 175.997C62.9561 162.898 70.1395 155.074 75.5091 150.393C86.4174 140.879 95.0081 139.83 105.506 129.078C112.586 121.826 116.564 114.225 118.764 109.17L106.549 96.1301Z" fill="url(#paint11_linear_169_281)"/>
<path style="mix-blend-mode:multiply" opacity="0.3" d="M110.976 100.858C102.638 102.05 99.7353 104.825 98.6412 107.191C96.9465 110.854 99.5822 113.531 98.8737 120.929C98.7345 122.382 98.0719 129.302 94.2216 134.201C88.5145 141.462 80.0129 138.93 73.0557 142.932C68.378 145.624 63.5478 151.761 61.9999 166.636C66.6449 158.966 71.5656 153.83 75.507 150.393C86.4154 140.879 95.006 139.83 105.504 129.078C112.584 121.826 116.562 114.225 118.762 109.17L110.976 100.858Z" fill="url(#paint12_linear_169_281)"/>
<path d="M104.284 97.0478C100.627 98.929 97.1031 103.207 97.417 107.81C97.7065 112.046 101.172 115.481 104.476 117.047C110.259 119.788 113.984 116.056 125.854 115.998C132.749 115.964 139.008 117.182 139.113 118.6C139.211 119.947 133.614 119.841 130.273 124.305C129.007 125.996 128.628 127.592 127.715 134.084C127.224 137.576 126.648 141.985 126.087 147.124L128.274 149.566C134.946 142.041 144.945 130.088 152.171 118.011C153.241 116.222 154.643 113.776 153.921 111.24C152.52 106.313 144.648 106.477 128.943 101.984C113.779 97.6456 109.742 94.2378 104.284 97.0478Z" fill="url(#paint13_linear_169_281)"/>
<path d="M137.136 111.265L141.904 108.633C126.895 103.232 110.035 101.408 99.8139 100.794C98.6029 102.348 97.7259 104.176 97.4712 106.114C117.277 105.775 137.136 111.265 137.136 111.265Z" fill="url(#paint14_linear_169_281)"/>
<path d="M133.675 113.478L135.826 112.432C120.285 108.072 104.163 108.6 97.6077 109.101C98.1902 111.697 99.9295 113.92 101.955 115.49C114.625 111.461 133.675 113.478 133.675 113.478Z" fill="url(#paint15_linear_169_281)"/>
<path d="M53.1712 169.45C53.1712 169.45 51.4221 170.531 50.7394 170.504C50.0566 170.478 47.615 170.031 47.9199 172.366C48.2247 174.701 50.1617 184.578 51.1799 186.973C52.1982 189.367 52.9032 190.058 55.4478 189.645C56.5119 189.473 54.7664 186.848 55.0385 185.405C55.3106 183.962 58.3598 174.954 58.3598 174.954C58.3598 174.954 55.7784 172.039 55.5452 171.113C55.312 170.188 54.7845 168.397 53.1712 169.45Z" fill="url(#paint16_linear_169_281)"/>
<path d="M52.1397 182.703V175.104C52.1399 173.865 51.8541 172.644 51.3045 171.534L50.7922 170.502C50.7755 170.502 50.7567 170.502 50.7407 170.502C50.058 170.475 46.6573 169.126 47.3547 172.618C47.8162 174.926 49.9417 185.202 50.96 187.598C51.9782 189.993 53.2519 190.245 55.7964 189.836C56.2481 189.763 55.8459 189.055 55.6572 188.373L54.3293 187.293C53.6464 186.739 53.0955 186.04 52.7167 185.246C52.338 184.452 52.1408 183.583 52.1397 182.703Z" fill="#B2B8C1"/>
<path d="M124.303 144.719C124.303 144.719 122.663 145.733 122.023 145.707C121.383 145.682 119.094 145.264 119.378 147.449C119.663 149.634 121.48 158.899 122.435 161.144C123.389 163.39 124.051 164.037 126.436 163.653C127.435 163.491 125.798 161.03 126.052 159.676C126.307 158.323 129.167 149.878 129.167 149.878C129.167 149.878 126.746 147.145 126.528 146.277C126.309 145.41 125.82 143.731 124.303 144.719Z" fill="url(#paint17_linear_169_281)"/>
<path d="M123.336 157.144V150.02C123.335 148.859 123.067 147.715 122.551 146.675L122.071 145.707C122.055 145.707 122.038 145.707 122.023 145.707C121.383 145.681 118.195 144.416 118.849 147.69C119.281 149.854 121.274 159.49 122.229 161.735C123.184 163.981 124.378 164.221 126.764 163.835C127.187 163.765 126.809 163.102 126.631 162.465L125.385 161.453C124.745 160.933 124.229 160.276 123.874 159.53C123.52 158.785 123.336 157.97 123.336 157.144Z" fill="white"/>
<mask id="mask0_169_281" style="mask-type:luminance" maskUnits="userSpaceOnUse" x="34" y="51" width="116" height="57">
<path d="M143.751 88.6604C143.751 88.6604 138.579 94.513 136.629 95.9762L122.859 92.6214L106.706 86.853C106.706 86.853 110.488 79.9922 114.223 76.4974C117.958 73.0025 118.759 72.2305 118.759 72.2305L62.3012 51.6159L64.1825 70.9429L35.3308 66.6464L34 92.188L141.062 107.297L148.927 104.779L149.713 93.6045L143.751 88.6604Z" fill="white"/>
</mask>
<g mask="url(#mask0_169_281)">
<path d="M140.776 105.193C140.06 105.193 139.275 105.161 138.415 105.097C135.365 104.869 131.378 104.244 126.228 103.19C117.881 101.48 106.63 98.6496 92.7851 94.7785C76.5789 90.2496 50.893 82.2261 42.413 79.5799L38.9615 69.1762C39.1703 69.2458 69.898 79.0739 92.1225 85.362C105.131 89.0415 115.96 91.8417 124.307 93.6936C129.188 94.7743 133.237 95.531 136.34 95.9427L136.629 95.9803C136.125 95.586 135.554 95.1582 134.907 94.6956C132.277 92.8144 129.857 91.4028 129.833 91.3888L129.785 91.361C129.72 91.3219 123.11 87.3853 113.383 82.768C106.284 79.3972 82.0621 72.3401 71.538 69.1762L65.4132 58.3537C71.6987 59.7987 92.7399 64.6535 99.8488 67.3324C105.499 69.4631 111.367 71.9699 117.288 74.7876C127.178 79.4878 133.802 83.4125 134.318 83.7205C134.635 83.9051 137.57 85.633 140.636 87.8759C145.791 91.6459 148.348 94.6419 148.927 97.5947C149.285 99.4167 148.878 101.205 147.781 102.629C146.224 104.649 143.769 104.966 142.962 105.067C142.237 105.155 141.507 105.197 140.776 105.193Z" fill="#FF3E5F"/>
</g>
</g>
<defs>
<linearGradient id="paint0_linear_169_281" x1="99.1966" y1="-6.43925" x2="158.613" y2="103.189" gradientUnits="userSpaceOnUse">
<stop stop-color="#444B8C"/>
<stop offset="1" stop-color="#26264F"/>
</linearGradient>
<linearGradient id="paint1_linear_169_281" x1="113.66" y1="81.3125" x2="137.886" y2="117.147" gradientUnits="userSpaceOnUse">
<stop stop-color="#FFC444"/>
<stop offset="1" stop-color="#F36F56"/>
</linearGradient>
<linearGradient id="paint2_linear_169_281" x1="126.118" y1="66.7186" x2="126.429" y2="89.2268" gradientUnits="userSpaceOnUse">
<stop stop-color="#311944"/>
<stop offset="1" stop-color="#A03976"/>
</linearGradient>
<linearGradient id="paint3_linear_169_281" x1="105.367" y1="95.0892" x2="125.833" y2="95.0892" gradientUnits="userSpaceOnUse">
<stop stop-color="#311944"/>
<stop offset="1" stop-color="#A03976"/>
</linearGradient>
<linearGradient id="paint4_linear_169_281" x1="79.6676" y1="53.376" x2="78.2692" y2="108.327" gradientUnits="userSpaceOnUse">
<stop stop-color="#FFC444"/>
<stop offset="1" stop-color="#F36F56"/>
</linearGradient>
<linearGradient id="paint5_linear_169_281" x1="177.678" y1="55.8327" x2="176.277" y2="110.868" gradientUnits="userSpaceOnUse">
<stop stop-color="#FFC444"/>
<stop offset="1" stop-color="#F36F56"/>
</linearGradient>
<linearGradient id="paint6_linear_169_281" x1="81.2058" y1="74.929" x2="178.193" y2="74.929" gradientUnits="userSpaceOnUse">
<stop stop-color="#E38DDD"/>
<stop offset="1" stop-color="#9571F6"/>
</linearGradient>
<linearGradient id="paint7_linear_169_281" x1="81.2058" y1="72.6409" x2="135.826" y2="72.6409" gradientUnits="userSpaceOnUse">
<stop stop-color="#E38DDD"/>
<stop offset="1" stop-color="#9571F6"/>
</linearGradient>
<linearGradient id="paint8_linear_169_281" x1="144.266" y1="94.8175" x2="173.705" y2="94.8175" gradientUnits="userSpaceOnUse">
<stop stop-color="#E38DDD"/>
<stop offset="1" stop-color="#9571F6"/>
</linearGradient>
<linearGradient id="paint9_linear_169_281" x1="139.56" y1="71.9386" x2="150.894" y2="71.9386" gradientUnits="userSpaceOnUse">
<stop stop-color="#FFC444"/>
<stop offset="1" stop-color="#F36F56"/>
</linearGradient>
<linearGradient id="paint10_linear_169_281" x1="158.323" y1="77.987" x2="139.915" y2="32.5955" gradientUnits="userSpaceOnUse">
<stop stop-color="#FFC444"/>
<stop offset="1" stop-color="#F36F56"/>
</linearGradient>
<linearGradient id="paint11_linear_169_281" x1="53.7502" y1="136.064" x2="118.761" y2="136.064" gradientUnits="userSpaceOnUse">
<stop stop-color="#E38DDD"/>
<stop offset="1" stop-color="#9571F6"/>
</linearGradient>
<linearGradient id="paint12_linear_169_281" x1="61.9999" y1="133.747" x2="118.761" y2="133.747" gradientUnits="userSpaceOnUse">
<stop stop-color="#E38DDD"/>
<stop offset="1" stop-color="#9571F6"/>
</linearGradient>
<linearGradient id="paint13_linear_169_281" x1="97.3975" y1="122.795" x2="154.12" y2="122.795" gradientUnits="userSpaceOnUse">
<stop stop-color="#E38DDD"/>
<stop offset="1" stop-color="#9571F6"/>
</linearGradient>
<linearGradient id="paint14_linear_169_281" x1="100.122" y1="136.076" x2="118.603" y2="108.153" gradientUnits="userSpaceOnUse">
<stop offset="0.49" stop-color="#EBEFF2"/>
<stop offset="1" stop-color="white"/>
</linearGradient>
<linearGradient id="paint15_linear_169_281" x1="100.037" y1="136.02" x2="118.518" y2="108.097" gradientUnits="userSpaceOnUse">
<stop offset="0.49" stop-color="#EBEFF2"/>
<stop offset="1" stop-color="white"/>
</linearGradient>
<linearGradient id="paint16_linear_169_281" x1="47.8934" y1="179.443" x2="58.3598" y2="179.443" gradientUnits="userSpaceOnUse">
<stop stop-color="#311944"/>
<stop offset="1" stop-color="#A03976"/>
</linearGradient>
<linearGradient id="paint17_linear_169_281" x1="119.355" y1="154.088" x2="129.168" y2="154.088" gradientUnits="userSpaceOnUse">
<stop stop-color="#311944"/>
<stop offset="1" stop-color="#A03976"/>
</linearGradient>
<clipPath id="clip0_169_281">
<rect width="145" height="170" fill="white" transform="translate(34 20)"/>
</clipPath>
</defs>
</svg>
