<svg width="46" height="149" viewBox="0 0 46 149" fill="none" xmlns="http://www.w3.org/2000/svg">
<path d="M44.1106 148.11C44.9058 148.11 45.5506 147.465 45.5506 146.67C45.5506 145.875 44.9058 145.23 44.1106 145.23C43.3153 145.23 42.6706 145.875 42.6706 146.67C42.6706 147.465 43.3153 148.11 44.1106 148.11Z" fill="black"/>
<path d="M28.4406 146.67C28.4406 146.385 28.5253 146.106 28.684 145.869C28.8426 145.632 29.0681 145.447 29.3318 145.339C29.5955 145.23 29.8856 145.202 30.1652 145.258C30.4448 145.315 30.7013 145.453 30.9023 145.655C31.1033 145.858 31.2397 146.115 31.2941 146.395C31.3485 146.675 31.3186 146.965 31.208 147.228C31.0975 147.491 30.9114 147.715 30.6733 147.872C30.4352 148.029 30.1558 148.112 29.8706 148.11C29.6819 148.11 29.4951 148.073 29.321 148C29.1468 147.928 28.9888 147.822 28.8558 147.688C28.7229 147.554 28.6178 147.395 28.5465 147.22C28.4752 147.046 28.4392 146.859 28.4406 146.67Z" fill="black"/>
<path d="M14.2206 146.67C14.2206 146.385 14.305 146.107 14.4632 145.87C14.6215 145.633 14.8464 145.449 15.1095 145.34C15.3726 145.231 15.6621 145.202 15.9415 145.258C16.2208 145.313 16.4774 145.45 16.6788 145.652C16.8802 145.853 17.0173 146.11 17.0729 146.389C17.1284 146.668 17.0999 146.958 16.9909 147.221C16.8819 147.484 16.6974 147.709 16.4606 147.867C16.2238 148.026 15.9454 148.11 15.6606 148.11C15.2786 148.11 14.9124 147.958 14.6423 147.688C14.3723 147.418 14.2206 147.052 14.2206 146.67Z" fill="black"/>
<path d="M0.000554016 146.67C0.000554016 146.385 0.0850006 146.107 0.24323 145.87C0.401459 145.633 0.626375 145.449 0.889501 145.34C1.15263 145.231 1.44217 145.202 1.7215 145.258C2.00083 145.313 2.25739 145.45 2.45878 145.652C2.66016 145.853 2.79732 146.11 2.85288 146.389C2.90844 146.668 2.87993 146.958 2.77094 147.221C2.66195 147.484 2.47738 147.709 2.24057 147.867C2.00377 148.026 1.72536 148.11 1.44056 148.11C1.25108 148.111 1.06322 148.075 0.887914 148.003C0.712604 147.931 0.553329 147.825 0.419347 147.691C0.285365 147.557 0.179353 147.398 0.107457 147.223C0.0355612 147.047 -0.000775679 146.86 0.000554016 146.67Z" fill="black"/>
<path d="M44.1106 136.01C44.9058 136.01 45.5506 135.365 45.5506 134.57C45.5506 133.775 44.9058 133.13 44.1106 133.13C43.3153 133.13 42.6706 133.775 42.6706 134.57C42.6706 135.365 43.3153 136.01 44.1106 136.01Z" fill="black"/>
<path d="M28.4406 134.57C28.4386 134.284 28.5216 134.005 28.6791 133.766C28.8365 133.528 29.0613 133.342 29.3249 133.232C29.5884 133.121 29.8787 133.092 30.159 133.147C30.4393 133.203 30.6968 133.34 30.8987 133.542C31.1007 133.744 31.2381 134.001 31.2933 134.282C31.3486 134.562 31.3192 134.852 31.209 135.116C31.0988 135.379 30.9127 135.604 30.6743 135.762C30.436 135.919 30.1562 136.002 29.8705 136C29.4921 135.997 29.1299 135.846 28.8623 135.578C28.5947 135.311 28.4432 134.948 28.4406 134.57Z" fill="black"/>
<path d="M15.6606 136.01C16.4558 136.01 17.1006 135.365 17.1006 134.57C17.1006 133.775 16.4558 133.13 15.6606 133.13C14.8653 133.13 14.2206 133.775 14.2206 134.57C14.2206 135.365 14.8653 136.01 15.6606 136.01Z" fill="black"/>
<path d="M1.44055 136.01C2.23584 136.01 2.88055 135.365 2.88055 134.57C2.88055 133.775 2.23584 133.13 1.44055 133.13C0.645262 133.13 0.000551758 133.775 0.000551758 134.57C0.000551758 135.365 0.645262 136.01 1.44055 136.01Z" fill="black"/>
<path d="M44.1106 123.91C44.9058 123.91 45.5506 123.265 45.5506 122.47C45.5506 121.675 44.9058 121.03 44.1106 121.03C43.3153 121.03 42.6706 121.675 42.6706 122.47C42.6706 123.265 43.3153 123.91 44.1106 123.91Z" fill="black"/>
<path d="M28.4406 122.47C28.4386 122.184 28.5216 121.905 28.6791 121.666C28.8365 121.428 29.0613 121.242 29.3249 121.132C29.5884 121.021 29.8787 120.992 30.159 121.047C30.4393 121.102 30.6968 121.24 30.8987 121.442C31.1007 121.644 31.2381 121.901 31.2933 122.182C31.3486 122.462 31.3192 122.752 31.209 123.016C31.0988 123.279 30.9127 123.504 30.6743 123.662C30.436 123.819 30.1562 123.902 29.8705 123.9C29.4913 123.9 29.1276 123.749 28.8594 123.481C28.5912 123.213 28.4406 122.849 28.4406 122.47Z" fill="black"/>
<path d="M15.6606 123.91C16.4558 123.91 17.1006 123.265 17.1006 122.47C17.1006 121.675 16.4558 121.03 15.6606 121.03C14.8653 121.03 14.2206 121.675 14.2206 122.47C14.2206 123.265 14.8653 123.91 15.6606 123.91Z" fill="black"/>
<path d="M0.00055353 122.47C-0.00142723 122.185 0.0813567 121.905 0.238377 121.667C0.395397 121.429 0.619597 121.243 0.882542 121.133C1.14549 121.022 1.43532 120.992 1.71531 121.046C1.99529 121.101 2.25282 121.237 2.4552 121.438C2.65759 121.639 2.79574 121.896 2.85212 122.175C2.90849 122.455 2.88058 122.745 2.77189 123.009C2.6632 123.272 2.47863 123.498 2.24161 123.657C2.00459 123.815 1.72579 123.9 1.44056 123.9C1.25193 123.901 1.06488 123.865 0.890233 123.794C0.715581 123.723 0.556766 123.618 0.422917 123.485C0.289068 123.352 0.182845 123.194 0.110356 123.02C0.037867 122.845 0.000548918 122.659 0.00055353 122.47Z" fill="black"/>
<path d="M42.6706 110.38C42.6706 110.095 42.755 109.817 42.9132 109.58C43.0715 109.343 43.2964 109.159 43.5595 109.05C43.8226 108.941 44.1121 108.912 44.3915 108.968C44.6708 109.023 44.9274 109.16 45.1288 109.362C45.3302 109.563 45.4673 109.82 45.5229 110.099C45.5785 110.378 45.5499 110.668 45.4409 110.931C45.332 111.194 45.1474 111.419 44.9106 111.577C44.6738 111.736 44.3954 111.82 44.1106 111.82C43.7287 111.82 43.3624 111.668 43.0923 111.398C42.8223 111.128 42.6706 110.762 42.6706 110.38Z" fill="black"/>
<path d="M28.4406 110.38C28.4406 110.095 28.5253 109.816 28.684 109.579C28.8426 109.342 29.0681 109.157 29.3318 109.049C29.5955 108.94 29.8856 108.912 30.1652 108.968C30.4448 109.025 30.7013 109.163 30.9023 109.365C31.1033 109.568 31.2397 109.825 31.2941 110.105C31.3485 110.385 31.3186 110.675 31.208 110.938C31.0975 111.201 30.9114 111.425 30.6733 111.582C30.4352 111.739 30.1558 111.822 29.8706 111.82C29.6819 111.82 29.4951 111.783 29.321 111.71C29.1468 111.638 28.9888 111.532 28.8558 111.398C28.7229 111.264 28.6178 111.105 28.5465 110.93C28.4752 110.756 28.4392 110.569 28.4406 110.38Z" fill="black"/>
<path d="M14.2206 110.38C14.2206 110.095 14.305 109.817 14.4632 109.58C14.6215 109.343 14.8464 109.159 15.1095 109.05C15.3726 108.941 15.6621 108.912 15.9415 108.968C16.2208 109.023 16.4774 109.16 16.6788 109.362C16.8802 109.563 17.0173 109.82 17.0729 110.099C17.1284 110.378 17.0999 110.668 16.9909 110.931C16.8819 111.194 16.6974 111.419 16.4606 111.577C16.2238 111.736 15.9454 111.82 15.6606 111.82C15.2786 111.82 14.9124 111.668 14.6423 111.398C14.3723 111.128 14.2206 110.762 14.2206 110.38Z" fill="black"/>
<path d="M0.000535666 110.38C-0.00343171 110.094 0.0776477 109.814 0.233446 109.575C0.389244 109.335 0.612723 109.148 0.875475 109.035C1.13823 108.923 1.42836 108.892 1.709 108.945C1.98964 108.999 2.2481 109.134 2.45149 109.335C2.65489 109.535 2.79404 109.792 2.85124 110.072C2.90845 110.352 2.8811 110.642 2.77272 110.906C2.66434 111.171 2.47982 111.397 2.2426 111.556C2.00538 111.715 1.72619 111.8 1.44054 111.8C1.25275 111.801 1.06653 111.766 0.892534 111.695C0.718534 111.624 0.560156 111.52 0.426439 111.388C0.292722 111.256 0.186282 111.1 0.113207 110.927C0.0401307 110.754 0.0018443 110.568 0.000535666 110.38Z" fill="black"/>
<path d="M44.1106 99.7C44.9058 99.7 45.5506 99.0553 45.5506 98.26C45.5506 97.4648 44.9058 96.82 44.1106 96.82C43.3153 96.82 42.6706 97.4648 42.6706 98.26C42.6706 99.0553 43.3153 99.7 44.1106 99.7Z" fill="black"/>
<path d="M29.8806 99.7C30.6758 99.7 31.3206 99.0553 31.3206 98.26C31.3206 97.4648 30.6758 96.82 29.8806 96.82C29.0853 96.82 28.4406 97.4648 28.4406 98.26C28.4406 99.0553 29.0853 99.7 29.8806 99.7Z" fill="black"/>
<path d="M15.6606 99.7C16.4558 99.7 17.1006 99.0553 17.1006 98.26C17.1006 97.4648 16.4558 96.82 15.6606 96.82C14.8653 96.82 14.2206 97.4648 14.2206 98.26C14.2206 99.0553 14.8653 99.7 15.6606 99.7Z" fill="black"/>
<path d="M0.00055353 98.26C-0.00142723 97.9748 0.0813567 97.6954 0.238377 97.4573C0.395397 97.2192 0.619597 97.0331 0.882542 96.9225C1.14549 96.812 1.43532 96.7821 1.71531 96.8365C1.99529 96.8909 2.25282 97.0273 2.4552 97.2283C2.65759 97.4292 2.79574 97.6858 2.85212 97.9654C2.90849 98.245 2.88058 98.5351 2.77189 98.7988C2.6632 99.0625 2.47863 99.288 2.24161 99.4466C2.00459 99.6053 1.72579 99.69 1.44056 99.69C1.06037 99.69 0.695613 99.5397 0.425846 99.2718C0.15608 99.0039 0.00319371 98.6402 0.00055353 98.26Z" fill="black"/>
<path d="M44.1106 87.6C44.9058 87.6 45.5506 86.9553 45.5506 86.16C45.5506 85.3648 44.9058 84.72 44.1106 84.72C43.3153 84.72 42.6706 85.3648 42.6706 86.16C42.6706 86.9553 43.3153 87.6 44.1106 87.6Z" fill="black"/>
<path d="M29.8806 87.6C30.6758 87.6 31.3206 86.9553 31.3206 86.16C31.3206 85.3648 30.6758 84.72 29.8806 84.72C29.0853 84.72 28.4406 85.3648 28.4406 86.16C28.4406 86.9553 29.0853 87.6 29.8806 87.6Z" fill="black"/>
<path d="M15.6606 87.6C16.4558 87.6 17.1006 86.9553 17.1006 86.16C17.1006 85.3648 16.4558 84.72 15.6606 84.72C14.8653 84.72 14.2206 85.3648 14.2206 86.16C14.2206 86.9553 14.8653 87.6 15.6606 87.6Z" fill="black"/>
<path d="M0.00055353 86.16C-0.00142723 85.8748 0.0813567 85.5954 0.238377 85.3573C0.395397 85.1192 0.619597 84.9331 0.882542 84.8225C1.14549 84.712 1.43532 84.6821 1.71531 84.7365C1.99529 84.7909 2.25282 84.9273 2.4552 85.1283C2.65759 85.3292 2.79574 85.5858 2.85212 85.8654C2.90849 86.145 2.88058 86.4351 2.77189 86.6988C2.6632 86.9625 2.47863 87.188 2.24161 87.3466C2.00459 87.5053 1.72579 87.59 1.44056 87.59C1.25193 87.5914 1.06488 87.5553 0.890233 87.4841C0.715581 87.4128 0.556766 87.3077 0.422917 87.1748C0.289068 87.0418 0.182845 86.8837 0.110356 86.7096C0.037867 86.5354 0.000548918 86.3487 0.00055353 86.16Z" fill="black"/>
<path d="M44.1106 75.49C44.9058 75.49 45.5506 74.8453 45.5506 74.05C45.5506 73.2548 44.9058 72.61 44.1106 72.61C43.3153 72.61 42.6706 73.2548 42.6706 74.05C42.6706 74.8453 43.3153 75.49 44.1106 75.49Z" fill="black"/>
<path d="M29.8806 75.49C30.6758 75.49 31.3206 74.8453 31.3206 74.05C31.3206 73.2548 30.6758 72.61 29.8806 72.61C29.0853 72.61 28.4406 73.2548 28.4406 74.05C28.4406 74.8453 29.0853 75.49 29.8806 75.49Z" fill="black"/>
<path d="M15.6606 75.49C16.4558 75.49 17.1006 74.8453 17.1006 74.05C17.1006 73.2548 16.4558 72.61 15.6606 72.61C14.8653 72.61 14.2206 73.2548 14.2206 74.05C14.2206 74.8453 14.8653 75.49 15.6606 75.49Z" fill="black"/>
<path d="M0.000554016 74.05C0.000554016 73.7652 0.0850006 73.4868 0.24323 73.25C0.401459 73.0132 0.626375 72.8286 0.889501 72.7197C1.15263 72.6107 1.44217 72.5821 1.7215 72.6377C2.00083 72.6933 2.25739 72.8304 2.45878 73.0318C2.66016 73.2332 2.79732 73.4898 2.85288 73.7691C2.90844 74.0484 2.87993 74.338 2.77094 74.6011C2.66195 74.8642 2.47738 75.0891 2.24057 75.2474C2.00377 75.4056 1.72536 75.49 1.44056 75.49C1.25108 75.4914 1.06322 75.455 0.887914 75.3831C0.712604 75.3112 0.553329 75.2052 0.419347 75.0712C0.285365 74.9373 0.179353 74.778 0.107457 74.6027C0.0355612 74.4274 -0.000775679 74.2395 0.000554016 74.05Z" fill="black"/>
<path d="M42.6706 61.95C42.654 61.7515 42.6788 61.5517 42.7433 61.3633C42.8079 61.1748 42.9109 61.0018 43.0458 60.8552C43.1806 60.7086 43.3445 60.5916 43.5269 60.5115C43.7093 60.4315 43.9063 60.3901 44.1056 60.3901C44.3048 60.3901 44.5018 60.4315 44.6842 60.5115C44.8666 60.5916 45.0304 60.7086 45.1653 60.8552C45.3002 61.0018 45.4032 61.1748 45.4678 61.3633C45.5324 61.5517 45.5571 61.7515 45.5406 61.95C45.5105 62.3099 45.3463 62.6454 45.0805 62.8899C44.8147 63.1344 44.4667 63.2701 44.1056 63.2701C43.7444 63.2701 43.3964 63.1344 43.1306 62.8899C42.8648 62.6454 42.7006 62.3099 42.6706 61.95Z" fill="black"/>
<path d="M28.4406 61.95C28.4386 61.6648 28.5213 61.3854 28.6783 61.1473C28.8354 60.9092 29.0596 60.7231 29.3225 60.6125C29.5855 60.502 29.8753 60.4721 30.1553 60.5265C30.4353 60.5809 30.6928 60.7173 30.8952 60.9183C31.0976 61.1192 31.2357 61.3758 31.2921 61.6554C31.3485 61.935 31.3205 62.2251 31.2119 62.4888C31.1032 62.7525 30.9186 62.978 30.6816 63.1366C30.4446 63.2953 30.1658 63.38 29.8806 63.38C29.5004 63.38 29.1356 63.2297 28.8658 62.9618C28.5961 62.6939 28.4432 62.3302 28.4406 61.95Z" fill="black"/>
<path d="M14.2206 61.95C14.2186 61.6648 14.3014 61.3854 14.4584 61.1473C14.6154 60.9092 14.8396 60.7231 15.1025 60.6125C15.3655 60.502 15.6553 60.4721 15.9353 60.5265C16.2153 60.5809 16.4728 60.7173 16.6752 60.9183C16.8776 61.1192 17.0157 61.3758 17.0721 61.6554C17.1285 61.935 17.1006 62.2251 16.9919 62.4888C16.8832 62.7525 16.6986 62.978 16.4616 63.1366C16.2246 63.2953 15.9458 63.38 15.6606 63.38C15.2812 63.3775 14.9179 63.2263 14.6487 62.9589C14.3795 62.6916 14.2258 62.3294 14.2206 61.95Z" fill="black"/>
<path d="M0.00055353 61.95C-0.00142723 61.6648 0.0813567 61.3854 0.238377 61.1473C0.395397 60.9092 0.619597 60.7231 0.882542 60.6125C1.14549 60.502 1.43532 60.4721 1.71531 60.5265C1.99529 60.5809 2.25282 60.7173 2.4552 60.9183C2.65759 61.1192 2.79574 61.3758 2.85212 61.6554C2.90849 61.935 2.88058 62.2251 2.77189 62.4888C2.6632 62.7525 2.47863 62.978 2.24161 63.1366C2.00459 63.2953 1.72579 63.38 1.44056 63.38C1.06037 63.38 0.695613 63.2297 0.425846 62.9618C0.15608 62.6939 0.00319371 62.3302 0.00055353 61.95Z" fill="black"/>
<path d="M42.6706 49.85C42.6666 49.6584 42.7009 49.4679 42.7714 49.2898C42.842 49.1116 42.9475 48.9493 43.0816 48.8124C43.2157 48.6754 43.3758 48.5667 43.5525 48.4924C43.7292 48.4182 43.9189 48.38 44.1106 48.38C44.2992 48.38 44.486 48.4173 44.6601 48.4898C44.8343 48.5623 44.9924 48.6686 45.1253 48.8024C45.2582 48.9363 45.3633 49.0951 45.4346 49.2697C45.5059 49.4444 45.5419 49.6314 45.5406 49.82C45.5406 50.1993 45.3899 50.563 45.1217 50.8312C44.8535 51.0994 44.4898 51.25 44.1106 51.25C43.7355 51.2502 43.3751 51.104 43.1062 50.8425C42.8373 50.581 42.681 50.225 42.6706 49.85Z" fill="black"/>
<path d="M29.8806 51.29C30.6758 51.29 31.3206 50.6453 31.3206 49.85C31.3206 49.0547 30.6758 48.41 29.8806 48.41C29.0853 48.41 28.4406 49.0547 28.4406 49.85C28.4406 50.6453 29.0853 51.29 29.8806 51.29Z" fill="black"/>
<path d="M15.6606 51.29C16.4558 51.29 17.1006 50.6453 17.1006 49.85C17.1006 49.0547 16.4558 48.41 15.6606 48.41C14.8653 48.41 14.2206 49.0547 14.2206 49.85C14.2206 50.6453 14.8653 51.29 15.6606 51.29Z" fill="black"/>
<path d="M0.000560662 49.85C-0.00481658 49.6581 0.0285317 49.467 0.0986136 49.2882C0.168696 49.1094 0.274066 48.9465 0.408459 48.8093C0.542851 48.6721 0.703517 48.5634 0.88084 48.4896C1.05816 48.4159 1.24852 48.3786 1.44056 48.38C1.6292 48.38 1.81597 48.4173 1.99012 48.4898C2.16427 48.5623 2.32235 48.6686 2.45527 48.8024C2.58819 48.9363 2.69333 49.0951 2.7646 49.2697C2.83587 49.4444 2.87188 49.6314 2.87056 49.82C2.87455 50.0103 2.84053 50.1995 2.77046 50.3765C2.70038 50.5535 2.59566 50.7147 2.46247 50.8506C2.32929 50.9866 2.1703 51.0947 1.99482 51.1684C1.81934 51.2421 1.6309 51.2801 1.44056 51.28C1.25193 51.2814 1.06489 51.2453 0.89024 51.1741C0.715588 51.1028 0.556773 50.9977 0.422924 50.8647C0.289075 50.7318 0.182852 50.5737 0.110363 50.3996C0.0378742 50.2254 0.00055605 50.0387 0.000560662 49.85Z" fill="black"/>
<path d="M42.6706 37.74C42.6732 37.3599 42.8261 36.9962 43.0958 36.7283C43.3656 36.4604 43.7304 36.31 44.1106 36.31C44.4898 36.31 44.8535 36.4607 45.1217 36.7289C45.3899 36.9971 45.5406 37.3608 45.5406 37.74C45.5419 37.9287 45.5058 38.1157 45.4346 38.2903C45.3633 38.465 45.2582 38.6238 45.1253 38.7577C44.9924 38.8915 44.8342 38.9977 44.6601 39.0702C44.4859 39.1427 44.2992 39.18 44.1106 39.18C43.7287 39.18 43.3624 39.0283 43.0923 38.7583C42.8223 38.4882 42.6706 38.1219 42.6706 37.74Z" fill="black"/>
<path d="M29.8806 39.18C30.6758 39.18 31.3206 38.5353 31.3206 37.74C31.3206 36.9447 30.6758 36.3 29.8806 36.3C29.0853 36.3 28.4406 36.9447 28.4406 37.74C28.4406 38.5353 29.0853 39.18 29.8806 39.18Z" fill="black"/>
<path d="M15.6606 39.18C16.4558 39.18 17.1006 38.5353 17.1006 37.74C17.1006 36.9447 16.4558 36.3 15.6606 36.3C14.8653 36.3 14.2206 36.9447 14.2206 37.74C14.2206 38.5353 14.8653 39.18 15.6606 39.18Z" fill="black"/>
<path d="M0.000554016 37.74C0.000549403 37.5514 0.0378675 37.3646 0.110356 37.1905C0.182845 37.0163 0.289069 36.8582 0.422917 36.7253C0.556766 36.5924 0.715581 36.4873 0.890233 36.416C1.06488 36.3447 1.25193 36.3087 1.44056 36.31C1.81982 36.31 2.18355 36.4607 2.45173 36.7289C2.7199 36.9971 2.87055 37.3608 2.87055 37.74C2.87187 37.9287 2.83587 38.1157 2.76459 38.2903C2.69332 38.465 2.58819 38.6238 2.45527 38.7577C2.32235 38.8915 2.16427 38.9977 1.99012 39.0702C1.81597 39.1427 1.62919 39.18 1.44056 39.18C1.25108 39.1814 1.06322 39.145 0.887914 39.0731C0.712604 39.0012 0.553329 38.8952 0.419347 38.7612C0.285365 38.6273 0.179353 38.468 0.107457 38.2927C0.0355612 38.1174 -0.000775679 37.9295 0.000554016 37.74Z" fill="black"/>
<path d="M42.6706 25.64C42.6732 25.2589 42.8257 24.8942 43.0952 24.6247C43.3647 24.3552 43.7295 24.2027 44.1106 24.2C44.4907 24.2027 44.8544 24.3556 45.1223 24.6253C45.3902 24.8951 45.5406 25.2598 45.5406 25.64C45.5406 26.0202 45.3902 26.385 45.1223 26.6548C44.8544 26.9245 44.4907 27.0774 44.1106 27.08C43.7295 27.0774 43.3647 26.9249 43.0952 26.6554C42.8257 26.3859 42.6732 26.0211 42.6706 25.64Z" fill="black"/>
<path d="M29.8806 27.08C30.6758 27.08 31.3206 26.4353 31.3206 25.64C31.3206 24.8447 30.6758 24.2 29.8806 24.2C29.0853 24.2 28.4406 24.8447 28.4406 25.64C28.4406 26.4353 29.0853 27.08 29.8806 27.08Z" fill="black"/>
<path d="M15.6606 27.08C16.4558 27.08 17.1006 26.4353 17.1006 25.64C17.1006 24.8447 16.4558 24.2 15.6606 24.2C14.8653 24.2 14.2206 24.8447 14.2206 25.64C14.2206 26.4353 14.8653 27.08 15.6606 27.08Z" fill="black"/>
<path d="M0.000549316 25.64C0.000549316 25.2581 0.15228 24.8919 0.422333 24.6218C0.692385 24.3518 1.05864 24.2 1.44055 24.2C1.82073 24.2027 2.18444 24.3556 2.45233 24.6253C2.72022 24.8951 2.87055 25.2598 2.87054 25.64C2.87055 26.0202 2.72022 26.385 2.45233 26.6548C2.18444 26.9245 1.82073 27.0774 1.44055 27.08C1.05864 27.08 0.692385 26.9283 0.422333 26.6583C0.15228 26.3882 0.000549316 26.0219 0.000549316 25.64Z" fill="black"/>
<path d="M42.6706 13.54C42.6706 13.1581 42.8223 12.7919 43.0923 12.5218C43.3624 12.2517 43.7287 12.1 44.1106 12.1C44.2992 12.1 44.4859 12.1373 44.6601 12.2098C44.8342 12.2823 44.9924 12.3886 45.1253 12.5224C45.2582 12.6563 45.3633 12.8151 45.4346 12.9897C45.5058 13.1644 45.5419 13.3514 45.5406 13.54C45.5406 13.9193 45.3899 14.283 45.1217 14.5512C44.8535 14.8194 44.4898 14.97 44.1106 14.97C43.7304 14.97 43.3656 14.8197 43.0958 14.5518C42.8261 14.2839 42.6732 13.9202 42.6706 13.54Z" fill="black"/>
<path d="M28.4406 13.54C28.4392 13.3514 28.4752 13.1644 28.5465 12.9897C28.6178 12.8151 28.7229 12.6563 28.8558 12.5224C28.9888 12.3886 29.1468 12.2823 29.321 12.2098C29.4951 12.1373 29.6819 12.1 29.8706 12.1C30.06 12.0987 30.2479 12.135 30.4232 12.2069C30.5985 12.2788 30.7578 12.3849 30.8918 12.5188C31.0257 12.6528 31.1318 12.8121 31.2036 12.9874C31.2755 13.1627 31.3119 13.3506 31.3106 13.54C31.3106 13.7287 31.2732 13.9154 31.2008 14.0896C31.1283 14.2637 31.022 14.4218 30.8882 14.5547C30.7543 14.6877 30.5955 14.7928 30.4209 14.8641C30.2462 14.9353 30.0592 14.9714 29.8706 14.97C29.4913 14.97 29.1276 14.8194 28.8594 14.5512C28.5912 14.283 28.4406 13.9193 28.4406 13.54Z" fill="black"/>
<path d="M14.2206 13.54C14.2206 13.1581 14.3723 12.7919 14.6423 12.5218C14.9124 12.2517 15.2786 12.1 15.6606 12.1C16.0425 12.1 16.4087 12.2517 16.6788 12.5218C16.9488 12.7919 17.1006 13.1581 17.1006 13.54C17.0979 13.9202 16.945 14.2839 16.6753 14.5518C16.4055 14.8197 16.0407 14.97 15.6606 14.97C15.2804 14.97 14.9156 14.8197 14.6458 14.5518C14.3761 14.2839 14.2232 13.9202 14.2206 13.54Z" fill="black"/>
<path d="M0.000554016 13.54C-0.000775679 13.3506 0.0355612 13.1627 0.107457 12.9874C0.179353 12.8121 0.285365 12.6528 0.419347 12.5188C0.553329 12.3849 0.712604 12.2788 0.887914 12.2069C1.06322 12.135 1.25108 12.0987 1.44056 12.1C1.62919 12.1 1.81597 12.1373 1.99012 12.2098C2.16427 12.2823 2.32235 12.3886 2.45527 12.5224C2.58819 12.6563 2.69332 12.8151 2.76459 12.9897C2.83587 13.1644 2.87187 13.3514 2.87055 13.54C2.87055 13.9193 2.7199 14.283 2.45173 14.5512C2.18355 14.8194 1.81982 14.97 1.44056 14.97C1.25193 14.9714 1.06488 14.9353 0.890233 14.8641C0.715581 14.7928 0.556766 14.6877 0.422917 14.5547C0.289069 14.4218 0.182845 14.2637 0.110356 14.0896C0.0378675 13.9154 0.000549403 13.7287 0.000554016 13.54Z" fill="black"/>
<path d="M42.6706 1.43003C42.6732 1.04986 42.8261 0.686152 43.0958 0.418259C43.3656 0.150365 43.7304 2.51653e-05 44.1106 3.43327e-05C44.4898 3.43327e-05 44.8535 0.150696 45.1217 0.418873C45.3899 0.68705 45.5406 1.05078 45.5406 1.43003C45.5419 1.61866 45.5058 1.80569 45.4346 1.98034C45.3633 2.15499 45.2582 2.31382 45.1253 2.44767C44.9924 2.58152 44.8342 2.68775 44.6601 2.76023C44.4859 2.83272 44.2992 2.87004 44.1106 2.87004C43.7287 2.87004 43.3624 2.71832 43.0923 2.44827C42.8223 2.17822 42.6706 1.81195 42.6706 1.43003Z" fill="black"/>
<path d="M29.8806 2.88004C30.6758 2.88004 31.3206 2.23533 31.3206 1.44004C31.3206 0.644745 30.6758 3.54004e-05 29.8806 3.54004e-05C29.0853 3.54004e-05 28.4406 0.644745 28.4406 1.44004C28.4406 2.23533 29.0853 2.88004 29.8806 2.88004Z" fill="black"/>
<path d="M14.2206 1.43003C14.2232 1.04986 14.3761 0.686152 14.6458 0.418259C14.9156 0.150365 15.2804 2.51653e-05 15.6606 3.43327e-05C16.0407 2.51653e-05 16.4055 0.150365 16.6753 0.418259C16.945 0.686152 17.0979 1.04986 17.1006 1.43003C17.1006 1.81195 16.9488 2.17822 16.6788 2.44827C16.4087 2.71832 16.0425 2.87004 15.6606 2.87004C15.2786 2.87004 14.9124 2.71832 14.6423 2.44827C14.3723 2.17822 14.2206 1.81195 14.2206 1.43003Z" fill="black"/>
<path d="M0.000554016 1.43004C0.000549403 1.2414 0.0378675 1.05463 0.110356 0.880479C0.182845 0.706328 0.289069 0.548241 0.422917 0.415322C0.556766 0.282403 0.715581 0.177277 0.890233 0.106003C1.06488 0.03473 1.25193 -0.00128416 1.44056 3.49686e-05C1.81982 3.49686e-05 2.18355 0.150696 2.45173 0.418873C2.7199 0.68705 2.87055 1.05078 2.87055 1.43004C2.87187 1.61867 2.83587 1.80569 2.76459 1.98034C2.69332 2.15499 2.58819 2.31382 2.45527 2.44767C2.32235 2.58152 2.16427 2.68775 1.99012 2.76024C1.81597 2.83272 1.62919 2.87004 1.44056 2.87004C1.25108 2.87137 1.06322 2.83503 0.887914 2.76313C0.712604 2.69124 0.553329 2.58522 0.419347 2.45123C0.285365 2.31725 0.179353 2.15798 0.107457 1.98267C0.0355612 1.80736 -0.000775679 1.61951 0.000554016 1.43004Z" fill="black"/>
</svg>
