<svg width="58" height="174" viewBox="0 0 58 174" fill="none" xmlns="http://www.w3.org/2000/svg">
<path d="M-163.217 8.94059L-165.629 0L-168.041 8.94059L-177 11.3478L-168.041 13.7551L-165.629 22.6957L-163.217 13.7551L-154.258 11.3478L-163.217 8.94059Z" fill="#A4A4A4"/>
<path d="M-132.894 8.94059L-135.306 0L-137.719 8.94059L-146.677 11.3478L-137.719 13.7551L-135.306 22.6957L-132.894 13.7551L-123.935 11.3478L-132.894 8.94059Z" fill="#A4A4A4"/>
<path d="M-104.984 0L-102.572 8.94059L-93.6129 11.3478L-102.572 13.7551L-104.984 22.6957L-107.396 13.7551L-116.355 11.3478L-107.396 8.94059L-104.984 0Z" fill="#A4A4A4"/>
<path d="M-72.2491 8.94059L-74.6613 0L-77.0734 8.94059L-86.0323 11.3478L-77.0734 13.7551L-74.6613 22.6957L-72.2491 13.7551L-63.2903 11.3478L-72.2491 8.94059Z" fill="#A4A4A4"/>
<path d="M-44.3387 0L-41.9266 8.94059L-32.9677 11.3478L-41.9266 13.7551L-44.3387 22.6957L-46.7509 13.7551L-55.7097 11.3478L-46.7509 8.94059L-44.3387 0Z" fill="#A4A4A4"/>
<path d="M-11.604 8.94059L-14.0161 0L-16.4283 8.94059L-25.3871 11.3478L-16.4283 13.7551L-14.0161 22.6957L-11.604 13.7551L-2.64516 11.3478L-11.604 8.94059Z" fill="#A4A4A4"/>
<path d="M16.3064 0L18.7186 8.94059L27.6774 11.3478L18.7186 13.7551L16.3064 22.6957L13.8943 13.7551L4.93548 11.3478L13.8943 8.94059L16.3064 0Z" fill="#A4A4A4"/>
<path d="M49.0412 8.94059L46.629 0L44.2169 8.94059L35.2581 11.3478L44.2169 13.7551L46.629 22.6957L49.0412 13.7551L58 11.3478L49.0412 8.94059Z" fill="#A4A4A4"/>
<path d="M-165.629 30.2609L-163.217 39.2015L-154.258 41.6087L-163.217 44.0159L-165.629 52.9565L-168.041 44.0159L-177 41.6087L-168.041 39.2015L-165.629 30.2609Z" fill="#A4A4A4"/>
<path d="M-132.894 39.2015L-135.306 30.2609L-137.719 39.2015L-146.677 41.6087L-137.719 44.0159L-135.306 52.9565L-132.894 44.0159L-123.935 41.6087L-132.894 39.2015Z" fill="#A4A4A4"/>
<path d="M-104.984 30.2609L-102.572 39.2015L-93.6129 41.6087L-102.572 44.0159L-104.984 52.9565L-107.396 44.0159L-116.355 41.6087L-107.396 39.2015L-104.984 30.2609Z" fill="#A4A4A4"/>
<path d="M-72.2491 39.2015L-74.6613 30.2609L-77.0734 39.2015L-86.0323 41.6087L-77.0734 44.0159L-74.6613 52.9565L-72.2491 44.0159L-63.2903 41.6087L-72.2491 39.2015Z" fill="#A4A4A4"/>
<path d="M-44.3387 30.2609L-41.9266 39.2015L-32.9677 41.6087L-41.9266 44.0159L-44.3387 52.9565L-46.7509 44.0159L-55.7097 41.6087L-46.7509 39.2015L-44.3387 30.2609Z" fill="#A4A4A4"/>
<path d="M-11.604 39.2015L-14.0161 30.2609L-16.4283 39.2015L-25.3871 41.6087L-16.4283 44.0159L-14.0161 52.9565L-11.604 44.0159L-2.64516 41.6087L-11.604 39.2015Z" fill="#A4A4A4"/>
<path d="M16.3064 30.2609L18.7186 39.2015L27.6774 41.6087L18.7186 44.0159L16.3064 52.9565L13.8943 44.0159L4.93548 41.6087L13.8943 39.2015L16.3064 30.2609Z" fill="#A4A4A4"/>
<path d="M49.0412 39.2015L46.629 30.2609L44.2169 39.2015L35.2581 41.6087L44.2169 44.0159L46.629 52.9565L49.0412 44.0159L58 41.6087L49.0412 39.2015Z" fill="#A4A4A4"/>
<path d="M-165.629 60.5217L-163.217 69.4623L-154.258 71.8696L-163.217 74.2768L-165.629 83.2174L-168.041 74.2768L-177 71.8696L-168.041 69.4623L-165.629 60.5217Z" fill="#A4A4A4"/>
<path d="M-132.894 69.4623L-135.306 60.5217L-137.719 69.4623L-146.677 71.8696L-137.719 74.2768L-135.306 83.2174L-132.894 74.2768L-123.935 71.8696L-132.894 69.4623Z" fill="#A4A4A4"/>
<path d="M-104.984 60.5217L-102.572 69.4623L-93.6129 71.8696L-102.572 74.2768L-104.984 83.2174L-107.396 74.2768L-116.355 71.8696L-107.396 69.4623L-104.984 60.5217Z" fill="#A4A4A4"/>
<path d="M-72.2491 69.4623L-74.6613 60.5217L-77.0734 69.4623L-86.0323 71.8696L-77.0734 74.2768L-74.6613 83.2174L-72.2491 74.2768L-63.2903 71.8696L-72.2491 69.4623Z" fill="#A4A4A4"/>
<path d="M-44.3387 60.5217L-41.9266 69.4623L-32.9677 71.8696L-41.9266 74.2768L-44.3387 83.2174L-46.7509 74.2768L-55.7097 71.8696L-46.7509 69.4623L-44.3387 60.5217Z" fill="#A4A4A4"/>
<path d="M-11.604 69.4623L-14.0161 60.5217L-16.4283 69.4623L-25.3871 71.8696L-16.4283 74.2768L-14.0161 83.2174L-11.604 74.2768L-2.64516 71.8696L-11.604 69.4623Z" fill="#A4A4A4"/>
<path d="M16.3064 60.5217L18.7186 69.4623L27.6774 71.8696L18.7186 74.2768L16.3064 83.2174L13.8943 74.2768L4.93548 71.8696L13.8943 69.4623L16.3064 60.5217Z" fill="#A4A4A4"/>
<path d="M49.0412 69.4623L46.629 60.5217L44.2169 69.4623L35.2581 71.8696L44.2169 74.2768L46.629 83.2174L49.0412 74.2768L58 71.8696L49.0412 69.4623Z" fill="#A4A4A4"/>
<path d="M-165.629 90.7826L-163.217 99.7232L-154.258 102.13L-163.217 104.538L-165.629 113.478L-168.041 104.538L-177 102.13L-168.041 99.7232L-165.629 90.7826Z" fill="#A4A4A4"/>
<path d="M-132.894 99.7232L-135.306 90.7826L-137.719 99.7232L-146.677 102.13L-137.719 104.538L-135.306 113.478L-132.894 104.538L-123.935 102.13L-132.894 99.7232Z" fill="#A4A4A4"/>
<path d="M-104.984 90.7826L-102.572 99.7232L-93.6129 102.13L-102.572 104.538L-104.984 113.478L-107.396 104.538L-116.355 102.13L-107.396 99.7232L-104.984 90.7826Z" fill="#A4A4A4"/>
<path d="M-72.2491 99.7232L-74.6613 90.7826L-77.0734 99.7232L-86.0323 102.13L-77.0734 104.538L-74.6613 113.478L-72.2491 104.538L-63.2903 102.13L-72.2491 99.7232Z" fill="#A4A4A4"/>
<path d="M-44.3387 90.7826L-41.9266 99.7232L-32.9677 102.13L-41.9266 104.538L-44.3387 113.478L-46.7509 104.538L-55.7097 102.13L-46.7509 99.7232L-44.3387 90.7826Z" fill="#A4A4A4"/>
<path d="M-11.604 99.7232L-14.0161 90.7826L-16.4283 99.7232L-25.3871 102.13L-16.4283 104.538L-14.0161 113.478L-11.604 104.538L-2.64516 102.13L-11.604 99.7232Z" fill="#A4A4A4"/>
<path d="M16.3064 90.7826L18.7186 99.7232L27.6774 102.13L18.7186 104.538L16.3064 113.478L13.8943 104.538L4.93548 102.13L13.8943 99.7232L16.3064 90.7826Z" fill="#A4A4A4"/>
<path d="M49.0412 99.7232L46.629 90.7826L44.2169 99.7232L35.2581 102.13L44.2169 104.538L46.629 113.478L49.0412 104.538L58 102.13L49.0412 99.7232Z" fill="#A4A4A4"/>
<path d="M-165.629 121.043L-163.217 129.984L-154.258 132.391L-163.217 134.799L-165.629 143.739L-168.041 134.799L-177 132.391L-168.041 129.984L-165.629 121.043Z" fill="#A4A4A4"/>
<path d="M-132.894 129.984L-135.306 121.043L-137.719 129.984L-146.677 132.391L-137.719 134.799L-135.306 143.739L-132.894 134.799L-123.935 132.391L-132.894 129.984Z" fill="#A4A4A4"/>
<path d="M-104.984 121.043L-102.572 129.984L-93.6129 132.391L-102.572 134.799L-104.984 143.739L-107.396 134.799L-116.355 132.391L-107.396 129.984L-104.984 121.043Z" fill="#A4A4A4"/>
<path d="M-72.2491 129.984L-74.6613 121.043L-77.0734 129.984L-86.0323 132.391L-77.0734 134.799L-74.6613 143.739L-72.2491 134.799L-63.2903 132.391L-72.2491 129.984Z" fill="#A4A4A4"/>
<path d="M-44.3387 121.043L-41.9266 129.984L-32.9677 132.391L-41.9266 134.799L-44.3387 143.739L-46.7509 134.799L-55.7097 132.391L-46.7509 129.984L-44.3387 121.043Z" fill="#A4A4A4"/>
<path d="M-11.604 129.984L-14.0161 121.043L-16.4283 129.984L-25.3871 132.391L-16.4283 134.799L-14.0161 143.739L-11.604 134.799L-2.64516 132.391L-11.604 129.984Z" fill="#A4A4A4"/>
<path d="M16.3064 121.043L18.7186 129.984L27.6774 132.391L18.7186 134.799L16.3064 143.739L13.8943 134.799L4.93548 132.391L13.8943 129.984L16.3064 121.043Z" fill="#A4A4A4"/>
<path d="M49.0412 129.984L46.629 121.043L44.2169 129.984L35.2581 132.391L44.2169 134.799L46.629 143.739L49.0412 134.799L58 132.391L49.0412 129.984Z" fill="#A4A4A4"/>
<path d="M-165.629 151.304L-163.217 160.245L-154.258 162.652L-163.217 165.059L-165.629 174L-168.041 165.059L-177 162.652L-168.041 160.245L-165.629 151.304Z" fill="#A4A4A4"/>
<path d="M-132.894 160.245L-135.306 151.304L-137.719 160.245L-146.677 162.652L-137.719 165.059L-135.306 174L-132.894 165.059L-123.935 162.652L-132.894 160.245Z" fill="#A4A4A4"/>
<path d="M-104.984 151.304L-102.572 160.245L-93.6129 162.652L-102.572 165.059L-104.984 174L-107.396 165.059L-116.355 162.652L-107.396 160.245L-104.984 151.304Z" fill="#A4A4A4"/>
<path d="M-72.2491 160.245L-74.6613 151.304L-77.0734 160.245L-86.0323 162.652L-77.0734 165.059L-74.6613 174L-72.2491 165.059L-63.2903 162.652L-72.2491 160.245Z" fill="#A4A4A4"/>
<path d="M-44.3387 151.304L-41.9266 160.245L-32.9677 162.652L-41.9266 165.059L-44.3387 174L-46.7509 165.059L-55.7097 162.652L-46.7509 160.245L-44.3387 151.304Z" fill="#A4A4A4"/>
<path d="M-11.604 160.245L-14.0161 151.304L-16.4283 160.245L-25.3871 162.652L-16.4283 165.059L-14.0161 174L-11.604 165.059L-2.64516 162.652L-11.604 160.245Z" fill="#A4A4A4"/>
<path d="M16.3064 151.304L18.7186 160.245L27.6774 162.652L18.7186 165.059L16.3064 174L13.8943 165.059L4.93548 162.652L13.8943 160.245L16.3064 151.304Z" fill="#A4A4A4"/>
<path d="M49.0412 160.245L46.629 151.304L44.2169 160.245L35.2581 162.652L44.2169 165.059L46.629 174L49.0412 165.059L58 162.652L49.0412 160.245Z" fill="#A4A4A4"/>
</svg>
