<svg width="141" height="46" viewBox="0 0 141 46" fill="none" xmlns="http://www.w3.org/2000/svg">
<path d="M-7.99993 44.1105C-7.99993 44.9058 -7.35521 45.5505 -6.55992 45.5505C-5.76464 45.5505 -5.11992 44.9058 -5.11992 44.1105C-5.11992 43.3153 -5.76464 42.6705 -6.55992 42.6705C-7.35521 42.6705 -7.99993 43.3153 -7.99993 44.1105Z" fill="black"/>
<path d="M-6.55992 28.4406C-6.27469 28.4406 -5.9959 28.5253 -5.75888 28.684C-5.52187 28.8426 -5.3373 29.0681 -5.22861 29.3318C-5.11992 29.5955 -5.09198 29.8856 -5.14836 30.1652C-5.20474 30.4448 -5.34288 30.7013 -5.54527 30.9023C-5.74767 31.1033 -6.00519 31.2397 -6.28517 31.2941C-6.56516 31.3485 -6.85501 31.3186 -7.11795 31.208C-7.38089 31.0975 -7.6051 30.9114 -7.76212 30.6733C-7.91913 30.4352 -8.00191 30.1558 -7.99993 29.8705C-7.99993 29.6819 -7.96262 29.4951 -7.89012 29.321C-7.81763 29.1468 -7.71141 28.9888 -7.57756 28.8558C-7.44371 28.7229 -7.28488 28.6178 -7.11023 28.5465C-6.93558 28.4752 -6.74855 28.4392 -6.55992 28.4406Z" fill="black"/>
<path d="M-6.55992 14.2205C-6.27512 14.2205 -5.9967 14.305 -5.7599 14.4632C-5.5231 14.6214 -5.33853 14.8464 -5.22954 15.1095C-5.12055 15.3726 -5.09204 15.6621 -5.1476 15.9415C-5.20316 16.2208 -5.3403 16.4774 -5.54169 16.6788C-5.74307 16.8802 -5.99967 17.0173 -6.27899 17.0729C-6.55832 17.1284 -6.84787 17.0999 -7.11099 16.9909C-7.37412 16.8819 -7.59902 16.6974 -7.75725 16.4606C-7.91548 16.2238 -7.99992 15.9454 -7.99992 15.6605C-7.99992 15.2786 -7.84821 14.9123 -7.57816 14.6423C-7.30811 14.3722 -6.94183 14.2205 -6.55992 14.2205Z" fill="black"/>
<path d="M-6.55992 0.000547605C-6.27512 0.000547617 -5.9967 0.0849942 -5.7599 0.243223C-5.5231 0.401453 -5.33853 0.626369 -5.22954 0.889494C-5.12054 1.15262 -5.09204 1.44216 -5.1476 1.72149C-5.20316 2.00083 -5.3403 2.25738 -5.54169 2.45877C-5.74307 2.66016 -5.99966 2.79731 -6.27899 2.85287C-6.55832 2.90844 -6.84787 2.87992 -7.11099 2.77093C-7.37412 2.66194 -7.59901 2.47738 -7.75725 2.24057C-7.91548 2.00376 -7.99992 1.72535 -7.99992 1.44055C-8.00125 1.25108 -7.96492 1.06322 -7.89302 0.887907C-7.82112 0.712598 -7.7151 0.553322 -7.58112 0.41934C-7.44713 0.285358 -7.28787 0.179347 -7.11256 0.107451C-6.93726 0.0355548 -6.74939 -0.000782099 -6.55992 0.000547605Z" fill="black"/>
<path d="M4.10008 44.1105C4.10008 44.9058 4.74478 45.5505 5.54007 45.5505C6.33536 45.5505 6.98007 44.9058 6.98007 44.1105C6.98007 43.3153 6.33536 42.6705 5.54007 42.6705C4.74478 42.6705 4.10008 43.3153 4.10008 44.1105Z" fill="black"/>
<path d="M5.54007 28.4405C5.82571 28.4386 6.1055 28.5216 6.34383 28.6791C6.58215 28.8365 6.76828 29.0613 6.87851 29.3249C6.98874 29.5884 7.01808 29.8787 6.96284 30.159C6.90761 30.4393 6.77025 30.6968 6.56827 30.8987C6.36629 31.1007 6.10878 31.2381 5.82852 31.2933C5.54826 31.3486 5.2579 31.3192 4.99437 31.209C4.73083 31.0988 4.50606 30.9126 4.34859 30.6743C4.19112 30.436 4.10808 30.1562 4.11006 29.8705C4.11268 29.4921 4.26419 29.1299 4.5318 28.8623C4.79941 28.5947 5.16162 28.4432 5.54007 28.4405Z" fill="black"/>
<path d="M4.10008 15.6605C4.10008 16.4558 4.74478 17.1005 5.54007 17.1005C6.33536 17.1005 6.98007 16.4558 6.98007 15.6605C6.98007 14.8653 6.33536 14.2205 5.54007 14.2205C4.74478 14.2205 4.10008 14.8653 4.10008 15.6605Z" fill="black"/>
<path d="M4.10008 1.44055C4.10008 2.23584 4.74478 2.88055 5.54007 2.88055C6.33536 2.88055 6.98007 2.23584 6.98007 1.44055C6.98007 0.645256 6.33536 0.00054591 5.54007 0.000545876C4.74478 0.000545841 4.10008 0.645256 4.10008 1.44055Z" fill="black"/>
<path d="M16.2001 44.1105C16.2001 44.9058 16.8448 45.5505 17.6401 45.5505C18.4354 45.5505 19.0801 44.9058 19.0801 44.1105C19.0801 43.3153 18.4354 42.6705 17.6401 42.6705C16.8448 42.6705 16.2001 43.3153 16.2001 44.1105Z" fill="black"/>
<path d="M17.6401 28.4406C17.9257 28.4386 18.2055 28.5216 18.4438 28.6791C18.6822 28.8365 18.8683 29.0613 18.9785 29.3249C19.0887 29.5884 19.1181 29.8787 19.0628 30.159C19.0076 30.4393 18.8703 30.6968 18.6683 30.8987C18.4663 31.1007 18.2088 31.2381 17.9285 31.2933C17.6483 31.3486 17.3579 31.3192 17.0944 31.209C16.8308 31.0988 16.606 30.9126 16.4486 30.6743C16.2911 30.436 16.2081 30.1562 16.2101 29.8705C16.2101 29.4913 16.3607 29.1276 16.6289 28.8594C16.8971 28.5912 17.2608 28.4406 17.6401 28.4406Z" fill="black"/>
<path d="M16.2001 15.6605C16.2001 16.4558 16.8448 17.1005 17.6401 17.1005C18.4354 17.1005 19.0801 16.4558 19.0801 15.6605C19.0801 14.8653 18.4354 14.2205 17.6401 14.2205C16.8448 14.2205 16.2001 14.8653 16.2001 15.6605Z" fill="black"/>
<path d="M17.6401 0.000548177C17.9253 -0.00143257 18.2047 0.0813514 18.4428 0.238372C18.6809 0.395392 18.867 0.619592 18.9776 0.882537C19.0881 1.14548 19.118 1.43531 19.0636 1.7153C19.0092 1.99529 18.8728 2.25281 18.6719 2.4552C18.4709 2.65759 18.2143 2.79573 17.9347 2.85211C17.6551 2.90849 17.3651 2.88057 17.1013 2.77188C16.8376 2.66319 16.6122 2.47863 16.4535 2.24161C16.2948 2.00459 16.2101 1.72578 16.2101 1.44055C16.2088 1.25192 16.2448 1.06488 16.316 0.890227C16.3873 0.715576 16.4924 0.55676 16.6254 0.422911C16.7583 0.289063 16.9164 0.182839 17.0905 0.11035C17.2647 0.0378617 17.4514 0.000543556 17.6401 0.000548177Z" fill="black"/>
<path d="M29.7301 42.6706C30.0149 42.6706 30.2933 42.755 30.5301 42.9132C30.7669 43.0715 30.9515 43.2963 31.0605 43.5595C31.1695 43.8226 31.198 44.1121 31.1424 44.3915C31.0868 44.6708 30.9497 44.9274 30.7483 45.1288C30.5469 45.3302 30.2903 45.4673 30.011 45.5229C29.7317 45.5784 29.4421 45.5499 29.179 45.4409C28.9159 45.332 28.691 45.1474 28.5328 44.9106C28.3745 44.6738 28.2901 44.3954 28.2901 44.1106C28.2901 43.7286 28.4418 43.3624 28.7118 43.0923C28.9819 42.8223 29.3482 42.6706 29.7301 42.6706Z" fill="black"/>
<path d="M29.7301 28.4406C30.0153 28.4406 30.2941 28.5253 30.5311 28.684C30.7681 28.8426 30.9527 29.0681 31.0614 29.3318C31.1701 29.5955 31.198 29.8856 31.1416 30.1652C31.0852 30.4448 30.9471 30.7013 30.7447 30.9023C30.5423 31.1033 30.2848 31.2397 30.0048 31.2941C29.7248 31.3485 29.435 31.3186 29.172 31.208C28.9091 31.0975 28.6849 30.9114 28.5279 30.6733C28.3709 30.4352 28.2881 30.1558 28.2901 29.8705C28.2901 29.6819 28.3274 29.4951 28.3999 29.321C28.4724 29.1468 28.5786 28.9888 28.7124 28.8558C28.8463 28.7229 29.0051 28.6178 29.1798 28.5465C29.3544 28.4752 29.5414 28.4392 29.7301 28.4406Z" fill="black"/>
<path d="M29.7301 14.2205C30.0149 14.2205 30.2933 14.305 30.5301 14.4632C30.7669 14.6215 30.9515 14.8464 31.0605 15.1095C31.1695 15.3726 31.198 15.6621 31.1424 15.9415C31.0868 16.2208 30.9497 16.4774 30.7483 16.6788C30.5469 16.8802 30.2903 17.0173 30.011 17.0729C29.7317 17.1284 29.4421 17.0999 29.179 16.9909C28.9159 16.8819 28.691 16.6974 28.5328 16.4606C28.3745 16.2238 28.2901 15.9454 28.2901 15.6605C28.2901 15.2786 28.4418 14.9124 28.7118 14.6423C28.9819 14.3722 29.3482 14.2205 29.7301 14.2205Z" fill="black"/>
<path d="M29.7301 0.000530841C30.0157 -0.00343652 30.296 0.0776429 30.5355 0.233441C30.7749 0.389239 30.9626 0.612719 31.0746 0.87547C31.1867 1.13822 31.2181 1.42836 31.1648 1.709C31.1115 1.98963 30.976 2.2481 30.7754 2.45149C30.5748 2.65488 30.3183 2.79404 30.0384 2.85124C29.7586 2.90844 29.468 2.88109 29.2037 2.77272C28.9394 2.66434 28.7133 2.47982 28.5542 2.2426C28.3951 2.00538 28.3101 1.72618 28.3101 1.44053C28.3088 1.25274 28.3444 1.06653 28.4151 0.892529C28.4857 0.718529 28.59 0.560151 28.7218 0.426434C28.8537 0.292717 29.0106 0.186278 29.1836 0.113202C29.3566 0.0401259 29.5423 0.00183947 29.7301 0.000530841Z" fill="black"/>
<path d="M40.4101 44.1105C40.4101 44.9058 41.0548 45.5505 41.8501 45.5505C42.6454 45.5505 43.2901 44.9058 43.2901 44.1105C43.2901 43.3153 42.6454 42.6705 41.8501 42.6705C41.0548 42.6705 40.4101 43.3153 40.4101 44.1105Z" fill="black"/>
<path d="M40.4101 29.8805C40.4101 30.6758 41.0548 31.3205 41.8501 31.3205C42.6454 31.3205 43.2901 30.6758 43.2901 29.8805C43.2901 29.0853 42.6454 28.4405 41.8501 28.4405C41.0548 28.4405 40.4101 29.0853 40.4101 29.8805Z" fill="black"/>
<path d="M40.4101 15.6605C40.4101 16.4558 41.0548 17.1005 41.8501 17.1005C42.6454 17.1005 43.2901 16.4558 43.2901 15.6605C43.2901 14.8653 42.6454 14.2205 41.8501 14.2205C41.0548 14.2205 40.4101 14.8653 40.4101 15.6605Z" fill="black"/>
<path d="M41.8501 0.000549235C42.1353 -0.00143151 42.4147 0.0813525 42.6528 0.238373C42.8909 0.395393 43.077 0.619593 43.1876 0.882538C43.2981 1.14548 43.328 1.43531 43.2736 1.7153C43.2192 1.99529 43.0828 2.25281 42.8819 2.4552C42.6809 2.65759 42.4243 2.79573 42.1447 2.85211C41.8651 2.90849 41.5751 2.88057 41.3113 2.77188C41.0476 2.66319 40.8221 2.47863 40.6635 2.24161C40.5048 2.00459 40.4201 1.72578 40.4201 1.44055C40.4201 1.06037 40.5704 0.695609 40.8383 0.425842C41.1062 0.156075 41.4699 0.00318939 41.8501 0.000549235Z" fill="black"/>
<path d="M52.5101 44.1105C52.5101 44.9058 53.1548 45.5505 53.9501 45.5505C54.7454 45.5505 55.3901 44.9058 55.3901 44.1106C55.3901 43.3153 54.7454 42.6705 53.9501 42.6705C53.1548 42.6705 52.5101 43.3153 52.5101 44.1105Z" fill="black"/>
<path d="M52.5101 29.8805C52.5101 30.6758 53.1548 31.3205 53.9501 31.3205C54.7454 31.3205 55.3901 30.6758 55.3901 29.8805C55.3901 29.0853 54.7454 28.4405 53.9501 28.4405C53.1548 28.4405 52.5101 29.0853 52.5101 29.8805Z" fill="black"/>
<path d="M52.5101 15.6605C52.5101 16.4558 53.1548 17.1005 53.9501 17.1005C54.7454 17.1005 55.3901 16.4558 55.3901 15.6605C55.3901 14.8653 54.7454 14.2205 53.9501 14.2205C53.1548 14.2205 52.5101 14.8653 52.5101 15.6605Z" fill="black"/>
<path d="M53.9501 0.000549764C54.2353 -0.00143098 54.5147 0.081353 54.7528 0.238373C54.9909 0.395394 55.177 0.619593 55.2876 0.882538C55.3981 1.14548 55.428 1.43531 55.3736 1.7153C55.3192 1.99529 55.1828 2.25281 54.9818 2.4552C54.7809 2.65759 54.5243 2.79573 54.2447 2.85211C53.9651 2.90849 53.6751 2.88057 53.4113 2.77188C53.1476 2.66319 52.9221 2.47863 52.7635 2.24161C52.6048 2.00459 52.5201 1.72578 52.5201 1.44055C52.5188 1.25192 52.5548 1.06488 52.626 0.890229C52.6973 0.715577 52.8024 0.556762 52.9354 0.422913C53.0683 0.289064 53.2264 0.182841 53.4005 0.110352C53.5747 0.0378633 53.7614 0.000545143 53.9501 0.000549764Z" fill="black"/>
<path d="M64.6201 44.1106C64.6201 44.9058 65.2648 45.5505 66.0601 45.5505C66.8554 45.5505 67.5001 44.9058 67.5001 44.1106C67.5001 43.3153 66.8554 42.6705 66.0601 42.6705C65.2648 42.6705 64.6201 43.3153 64.6201 44.1106Z" fill="black"/>
<path d="M64.6201 29.8805C64.6201 30.6758 65.2648 31.3205 66.0601 31.3205C66.8554 31.3205 67.5001 30.6758 67.5001 29.8805C67.5001 29.0853 66.8554 28.4405 66.0601 28.4405C65.2648 28.4405 64.6201 29.0853 64.6201 29.8805Z" fill="black"/>
<path d="M64.6201 15.6605C64.6201 16.4558 65.2648 17.1005 66.0601 17.1005C66.8554 17.1005 67.5001 16.4558 67.5001 15.6605C67.5001 14.8653 66.8554 14.2205 66.0601 14.2205C65.2648 14.2205 64.6201 14.8653 64.6201 15.6605Z" fill="black"/>
<path d="M66.0601 0.000550779C66.3449 0.000550791 66.6233 0.0849973 66.8601 0.243227C67.0969 0.401456 67.2815 0.626372 67.3905 0.889497C67.4995 1.15262 67.528 1.44217 67.4724 1.7215C67.4168 2.00083 67.2797 2.25738 67.0783 2.45877C66.8769 2.66016 66.6203 2.79731 66.341 2.85288C66.0617 2.90844 65.7721 2.87993 65.509 2.77094C65.2459 2.66195 65.021 2.47738 64.8628 2.24057C64.7045 2.00376 64.6201 1.72536 64.6201 1.44055C64.6187 1.25108 64.6551 1.06322 64.727 0.88791C64.7989 0.712601 64.9049 0.553325 65.0389 0.419343C65.1729 0.285361 65.3321 0.17935 65.5074 0.107454C65.6827 0.035558 65.8706 -0.000778924 66.0601 0.000550779Z" fill="black"/>
<path d="M78.1601 42.6706C78.3586 42.654 78.5584 42.6788 78.7468 42.7433C78.9353 42.8079 79.1083 42.9109 79.2549 43.0458C79.4015 43.1806 79.5185 43.3445 79.5986 43.5269C79.6786 43.7093 79.72 43.9063 79.72 44.1056C79.72 44.3048 79.6786 44.5018 79.5986 44.6842C79.5185 44.8666 79.4015 45.0304 79.2549 45.1653C79.1083 45.3002 78.9353 45.4032 78.7468 45.4678C78.5584 45.5323 78.3586 45.5571 78.1601 45.5405C77.8002 45.5105 77.4647 45.3463 77.2202 45.0805C76.9757 44.8147 76.84 44.4667 76.84 44.1055C76.84 43.7444 76.9757 43.3964 77.2202 43.1306C77.4647 42.8648 77.8002 42.7006 78.1601 42.6706Z" fill="black"/>
<path d="M78.1601 28.4406C78.4453 28.4386 78.7247 28.5213 78.9628 28.6783C79.2009 28.8354 79.387 29.0596 79.4976 29.3225C79.6081 29.5855 79.638 29.8753 79.5836 30.1553C79.5292 30.4353 79.3928 30.6928 79.1918 30.8952C78.9909 31.0976 78.7343 31.2357 78.4547 31.2921C78.1751 31.3485 77.8851 31.3205 77.6213 31.2119C77.3576 31.1032 77.1321 30.9186 76.9735 30.6816C76.8148 30.4446 76.7301 30.1658 76.7301 29.8806C76.7301 29.5004 76.8804 29.1356 77.1483 28.8658C77.4162 28.5961 77.7799 28.4432 78.1601 28.4406Z" fill="black"/>
<path d="M78.1601 14.2206C78.4453 14.2186 78.7247 14.3014 78.9628 14.4584C79.2009 14.6154 79.387 14.8396 79.4976 15.1025C79.6081 15.3655 79.638 15.6553 79.5836 15.9353C79.5292 16.2153 79.3928 16.4728 79.1918 16.6752C78.9909 16.8776 78.7343 17.0157 78.4547 17.0721C78.1751 17.1285 77.8851 17.1006 77.6213 16.9919C77.3576 16.8832 77.1321 16.6986 76.9735 16.4616C76.8148 16.2246 76.7301 15.9458 76.7301 15.6606C76.7327 15.2812 76.8838 14.9179 77.1512 14.6487C77.4185 14.3795 77.7807 14.2258 78.1601 14.2206Z" fill="black"/>
<path d="M78.1601 0.000550822C78.4453 -0.00142993 78.7247 0.0813541 78.9628 0.238374C79.2009 0.395395 79.387 0.619594 79.4976 0.882539C79.6081 1.14548 79.638 1.43531 79.5836 1.7153C79.5292 1.99529 79.3928 2.25281 79.1918 2.4552C78.9909 2.65759 78.7343 2.79574 78.4547 2.85211C78.1751 2.90849 77.8851 2.88057 77.6213 2.77188C77.3576 2.66319 77.1321 2.47863 76.9735 2.24161C76.8148 2.00459 76.7301 1.72578 76.7301 1.44055C76.7301 1.06037 76.8804 0.695611 77.1483 0.425844C77.4162 0.156077 77.7799 0.00319098 78.1601 0.000550822Z" fill="black"/>
<path d="M90.2601 42.6706C90.4517 42.6666 90.6422 42.7009 90.8203 42.7714C90.9985 42.842 91.1608 42.9475 91.2978 43.0816C91.4347 43.2157 91.5434 43.3758 91.6177 43.5525C91.6919 43.7292 91.7301 43.9189 91.7301 44.1106C91.7301 44.2992 91.6928 44.4859 91.6203 44.6601C91.5478 44.8343 91.4416 44.9924 91.3077 45.1253C91.1739 45.2582 91.015 45.3633 90.8404 45.4346C90.6657 45.5058 90.4787 45.5419 90.2901 45.5406C89.9108 45.5406 89.5471 45.3899 89.2789 45.1217C89.0107 44.8535 88.8601 44.4898 88.8601 44.1106C88.8599 43.7355 89.0061 43.3751 89.2676 43.1062C89.5291 42.8373 89.8851 42.681 90.2601 42.6706Z" fill="black"/>
<path d="M88.8201 29.8805C88.8201 30.6758 89.4648 31.3205 90.2601 31.3205C91.0554 31.3205 91.7001 30.6758 91.7001 29.8805C91.7001 29.0853 91.0554 28.4405 90.2601 28.4405C89.4648 28.4405 88.8201 29.0853 88.8201 29.8805Z" fill="black"/>
<path d="M88.8201 15.6605C88.8201 16.4558 89.4648 17.1005 90.2601 17.1005C91.0554 17.1005 91.7001 16.4558 91.7001 15.6605C91.7001 14.8653 91.0554 14.2206 90.2601 14.2206C89.4648 14.2206 88.8201 14.8653 88.8201 15.6605Z" fill="black"/>
<path d="M90.2601 0.000558483C90.452 -0.00481875 90.6431 0.0285296 90.8219 0.0986115C91.0008 0.168693 91.1636 0.274064 91.3008 0.408456C91.438 0.542849 91.5467 0.703515 91.6205 0.880838C91.6942 1.05816 91.7315 1.24852 91.7301 1.44056C91.7301 1.6292 91.6928 1.81597 91.6203 1.99012C91.5478 2.16427 91.4416 2.32235 91.3077 2.45527C91.1739 2.58819 91.015 2.69332 90.8404 2.7646C90.6657 2.83587 90.4787 2.87187 90.2901 2.87055C90.0998 2.87455 89.9106 2.84053 89.7336 2.77046C89.5566 2.70038 89.3954 2.59566 89.2595 2.46247C89.1235 2.32929 89.0155 2.1703 88.9417 1.99482C88.868 1.81934 88.83 1.6309 88.8301 1.44056C88.8288 1.25193 88.8648 1.06489 88.936 0.890237C89.0073 0.715586 89.1124 0.556771 89.2454 0.422922C89.3783 0.289073 89.5364 0.182849 89.7105 0.110361C89.8847 0.037872 90.0714 0.000553862 90.2601 0.000558483Z" fill="black"/>
<path d="M102.37 42.6706C102.75 42.6732 103.114 42.8261 103.382 43.0958C103.65 43.3656 103.8 43.7304 103.8 44.1106C103.8 44.4898 103.649 44.8535 103.381 45.1217C103.113 45.3899 102.749 45.5406 102.37 45.5406C102.181 45.5419 101.994 45.5058 101.82 45.4346C101.645 45.3633 101.486 45.2582 101.352 45.1253C101.219 44.9924 101.112 44.8342 101.04 44.6601C100.967 44.4859 100.93 44.2992 100.93 44.1106C100.93 43.7287 101.082 43.3624 101.352 43.0923C101.622 42.8223 101.988 42.6706 102.37 42.6706Z" fill="black"/>
<path d="M100.93 29.8805C100.93 30.6758 101.575 31.3205 102.37 31.3205C103.165 31.3205 103.81 30.6758 103.81 29.8805C103.81 29.0853 103.165 28.4406 102.37 28.4406C101.575 28.4406 100.93 29.0853 100.93 29.8805Z" fill="black"/>
<path d="M100.93 15.6606C100.93 16.4558 101.575 17.1005 102.37 17.1005C103.165 17.1005 103.81 16.4558 103.81 15.6606C103.81 14.8653 103.165 14.2206 102.37 14.2206C101.575 14.2206 100.93 14.8653 100.93 15.6606Z" fill="black"/>
<path d="M102.37 0.000552366C102.559 0.000547762 102.745 0.0378659 102.92 0.110355C103.094 0.182843 103.252 0.289067 103.385 0.422916C103.518 0.556764 103.623 0.71558 103.694 0.890231C103.765 1.06488 103.801 1.25192 103.8 1.44055C103.8 1.81981 103.649 2.18355 103.381 2.45172C103.113 2.7199 102.749 2.87055 102.37 2.87055C102.181 2.87187 101.994 2.83586 101.82 2.76459C101.645 2.69332 101.486 2.58818 101.352 2.45526C101.219 2.32234 101.112 2.16427 101.04 1.99012C100.967 1.81596 100.93 1.62919 100.93 1.44055C100.929 1.25108 100.965 1.06322 101.037 0.887912C101.109 0.712603 101.215 0.553327 101.349 0.419345C101.483 0.285363 101.642 0.179351 101.817 0.107455C101.993 0.0355596 102.181 -0.000777337 102.37 0.000552366Z" fill="black"/>
<path d="M114.47 42.6706C114.851 42.6732 115.216 42.8257 115.485 43.0952C115.755 43.3647 115.907 43.7295 115.91 44.1106C115.907 44.4907 115.755 44.8544 115.485 45.1223C115.215 45.3902 114.85 45.5406 114.47 45.5406C114.09 45.5406 113.725 45.3902 113.455 45.1223C113.186 44.8544 113.033 44.4907 113.03 44.1106C113.033 43.7295 113.185 43.3647 113.455 43.0952C113.724 42.8257 114.089 42.6732 114.47 42.6706Z" fill="black"/>
<path d="M113.03 29.8805C113.03 30.6758 113.675 31.3205 114.47 31.3205C115.265 31.3205 115.91 30.6758 115.91 29.8805C115.91 29.0853 115.265 28.4406 114.47 28.4406C113.675 28.4406 113.03 29.0853 113.03 29.8805Z" fill="black"/>
<path d="M113.03 15.6606C113.03 16.4558 113.675 17.1006 114.47 17.1006C115.265 17.1006 115.91 16.4558 115.91 15.6606C115.91 14.8653 115.265 14.2206 114.47 14.2206C113.675 14.2206 113.03 14.8653 113.03 15.6606Z" fill="black"/>
<path d="M114.47 0.000548196C114.852 0.000548212 115.218 0.152279 115.488 0.422332C115.758 0.692384 115.91 1.05864 115.91 1.44055C115.907 1.82073 115.755 2.18444 115.485 2.45233C115.215 2.72022 114.85 2.87055 114.47 2.87054C114.09 2.87055 113.725 2.72022 113.455 2.45233C113.186 2.18444 113.033 1.82073 113.03 1.44055C113.03 1.05864 113.182 0.692384 113.452 0.422332C113.722 0.152279 114.088 0.000548179 114.47 0.000548196Z" fill="black"/>
<path d="M126.57 42.6706C126.952 42.6706 127.318 42.8223 127.588 43.0923C127.858 43.3624 128.01 43.7287 128.01 44.1106C128.01 44.2992 127.973 44.4859 127.9 44.6601C127.828 44.8342 127.722 44.9924 127.588 45.1253C127.454 45.2582 127.295 45.3633 127.12 45.4346C126.946 45.5058 126.759 45.5419 126.57 45.5406C126.191 45.5406 125.827 45.3899 125.559 45.1217C125.291 44.8535 125.14 44.4898 125.14 44.1106C125.14 43.7304 125.29 43.3656 125.558 43.0958C125.826 42.8261 126.19 42.6732 126.57 42.6706Z" fill="black"/>
<path d="M126.57 28.4406C126.759 28.4392 126.946 28.4752 127.12 28.5465C127.295 28.6178 127.454 28.7229 127.588 28.8558C127.722 28.9888 127.828 29.1468 127.9 29.321C127.973 29.4951 128.01 29.6819 128.01 29.8705C128.011 30.06 127.975 30.2479 127.903 30.4232C127.831 30.5985 127.725 30.7578 127.591 30.8918C127.457 31.0257 127.298 31.1318 127.123 31.2036C126.947 31.2755 126.76 31.3119 126.57 31.3106C126.381 31.3106 126.195 31.2732 126.021 31.2007C125.846 31.1283 125.688 31.022 125.555 30.8882C125.422 30.7543 125.317 30.5955 125.246 30.4209C125.175 30.2462 125.139 30.0592 125.14 29.8705C125.14 29.4913 125.291 29.1276 125.559 28.8594C125.827 28.5912 126.191 28.4406 126.57 28.4406Z" fill="black"/>
<path d="M126.57 14.2205C126.952 14.2205 127.318 14.3723 127.588 14.6423C127.858 14.9124 128.01 15.2786 128.01 15.6606C128.01 16.0425 127.858 16.4087 127.588 16.6788C127.318 16.9488 126.952 17.1006 126.57 17.1006C126.19 17.0979 125.826 16.945 125.558 16.6753C125.29 16.4055 125.14 16.0407 125.14 15.6606C125.14 15.2804 125.29 14.9156 125.558 14.6458C125.826 14.3761 126.19 14.2232 126.57 14.2205Z" fill="black"/>
<path d="M126.57 0.000553424C126.76 -0.000776263 126.947 0.0355607 127.123 0.107457C127.298 0.179352 127.457 0.285364 127.591 0.419346C127.725 0.553328 127.831 0.712604 127.903 0.887913C127.975 1.06322 128.011 1.25108 128.01 1.44056C128.01 1.62919 127.973 1.81597 127.9 1.99012C127.828 2.16427 127.722 2.32235 127.588 2.45527C127.454 2.58818 127.295 2.69332 127.12 2.76459C126.946 2.83586 126.759 2.87187 126.57 2.87055C126.191 2.87055 125.827 2.7199 125.559 2.45173C125.291 2.18355 125.14 1.81982 125.14 1.44056C125.139 1.25193 125.175 1.06488 125.246 0.890232C125.317 0.715581 125.422 0.556765 125.555 0.422917C125.688 0.289068 125.846 0.182844 126.021 0.110356C126.195 0.0378669 126.381 0.000548803 126.57 0.000553424Z" fill="black"/>
<path d="M138.68 42.6706C139.06 42.6732 139.424 42.8261 139.692 43.0958C139.96 43.3656 140.11 43.7304 140.11 44.1106C140.11 44.4898 139.959 44.8535 139.691 45.1217C139.423 45.3899 139.059 45.5406 138.68 45.5406C138.491 45.5419 138.304 45.5058 138.13 45.4346C137.955 45.3633 137.796 45.2582 137.662 45.1253C137.529 44.9924 137.422 44.8342 137.35 44.6601C137.277 44.4859 137.24 44.2992 137.24 44.1106C137.24 43.7287 137.392 43.3624 137.662 43.0923C137.932 42.8223 138.298 42.6706 138.68 42.6706Z" fill="black"/>
<path d="M137.23 29.8806C137.23 30.6758 137.875 31.3206 138.67 31.3206C139.465 31.3206 140.11 30.6758 140.11 29.8806C140.11 29.0853 139.465 28.4406 138.67 28.4406C137.875 28.4406 137.23 29.0853 137.23 29.8806Z" fill="black"/>
<path d="M138.68 14.2206C139.06 14.2232 139.424 14.3761 139.692 14.6458C139.96 14.9156 140.11 15.2804 140.11 15.6606C140.11 16.0407 139.96 16.4055 139.692 16.6753C139.424 16.945 139.06 17.0979 138.68 17.1006C138.298 17.1006 137.932 16.9488 137.662 16.6788C137.392 16.4087 137.24 16.0425 137.24 15.6606C137.24 15.2786 137.392 14.9124 137.662 14.6423C137.932 14.3723 138.298 14.2206 138.68 14.2206Z" fill="black"/>
<path d="M138.68 0.000553953C138.869 0.000549349 139.055 0.0378675 139.23 0.110356C139.404 0.182845 139.562 0.289068 139.695 0.422917C139.828 0.556766 139.933 0.715581 140.004 0.890233C140.075 1.06488 140.111 1.25193 140.11 1.44056C140.11 1.81982 139.959 2.18355 139.691 2.45173C139.423 2.7199 139.059 2.87055 138.68 2.87055C138.491 2.87187 138.304 2.83587 138.13 2.76459C137.955 2.69332 137.796 2.58819 137.662 2.45527C137.529 2.32235 137.422 2.16427 137.35 1.99012C137.277 1.81597 137.24 1.62919 137.24 1.44056C137.239 1.25108 137.275 1.06322 137.347 0.887914C137.419 0.712604 137.525 0.553329 137.659 0.419347C137.793 0.285365 137.952 0.179353 138.127 0.107457C138.303 0.0355612 138.491 -0.00077575 138.68 0.000553953Z" fill="black"/>
</svg>
