<svg width="91" height="150" viewBox="0 0 91 150" fill="none" xmlns="http://www.w3.org/2000/svg">
<path d="M44.1108 148.11C44.9061 148.11 45.5508 147.465 45.5508 146.67C45.5508 145.875 44.9061 145.23 44.1108 145.23C43.3155 145.23 42.6708 145.875 42.6708 146.67C42.6708 147.465 43.3155 148.11 44.1108 148.11Z" fill="black"/>
<path d="M28.4408 146.67C28.4408 146.385 28.5255 146.106 28.6842 145.869C28.8429 145.632 29.0684 145.447 29.3321 145.339C29.5958 145.23 29.8858 145.202 30.1654 145.258C30.445 145.315 30.7016 145.453 30.9026 145.655C31.1035 145.858 31.2399 146.115 31.2943 146.395C31.3488 146.675 31.3188 146.965 31.2083 147.228C31.0978 147.491 30.9116 147.715 30.6735 147.872C30.4354 148.029 30.156 148.112 29.8708 148.11C29.6822 148.11 29.4954 148.073 29.3212 148C29.1471 147.928 28.989 147.822 28.8561 147.688C28.7232 147.554 28.618 147.395 28.5468 147.22C28.4755 147.046 28.4395 146.859 28.4408 146.67Z" fill="black"/>
<path d="M14.2208 146.67C14.2208 146.385 14.3052 146.107 14.4635 145.87C14.6217 145.633 14.8466 145.449 15.1097 145.34C15.3729 145.231 15.6624 145.202 15.9417 145.258C16.221 145.313 16.4776 145.45 16.679 145.652C16.8804 145.853 17.0176 146.11 17.0731 146.389C17.1287 146.668 17.1002 146.958 16.9912 147.221C16.8822 147.484 16.6976 147.709 16.4608 147.867C16.224 148.026 15.9456 148.11 15.6608 148.11C15.2789 148.11 14.9126 147.958 14.6425 147.688C14.3725 147.418 14.2208 147.052 14.2208 146.67Z" fill="black"/>
<path d="M0.000798156 146.67C0.000798156 146.385 0.0852447 146.107 0.243474 145.87C0.401703 145.633 0.626619 145.449 0.889745 145.34C1.15287 145.231 1.44241 145.202 1.72175 145.258C2.00108 145.313 2.25763 145.45 2.45902 145.652C2.66041 145.853 2.79756 146.11 2.85312 146.389C2.90869 146.668 2.88017 146.958 2.77118 147.221C2.66219 147.484 2.47763 147.709 2.24082 147.867C2.00401 148.026 1.72561 148.11 1.4408 148.11C1.25133 148.111 1.06347 148.075 0.888158 148.003C0.712848 147.931 0.553573 147.825 0.419591 147.691C0.285609 147.557 0.179597 147.398 0.107701 147.223C0.0358054 147.047 -0.000531539 146.859 0.000798156 146.67Z" fill="black"/>
<path d="M44.1108 136.01C44.9061 136.01 45.5508 135.365 45.5508 134.57C45.5508 133.775 44.9061 133.13 44.1108 133.13C43.3155 133.13 42.6708 133.775 42.6708 134.57C42.6708 135.365 43.3155 136.01 44.1108 136.01Z" fill="black"/>
<path d="M28.4408 134.57C28.4388 134.284 28.5219 134.005 28.6793 133.766C28.8368 133.528 29.0616 133.342 29.3251 133.232C29.5886 133.121 29.879 133.092 30.1592 133.147C30.4395 133.202 30.697 133.34 30.899 133.542C31.101 133.744 31.2383 134.001 31.2936 134.282C31.3488 134.562 31.3195 134.852 31.2092 135.116C31.099 135.379 30.9129 135.604 30.6746 135.762C30.4362 135.919 30.1564 136.002 29.8708 136C29.4923 135.997 29.1301 135.846 28.8625 135.578C28.5949 135.311 28.4434 134.948 28.4408 134.57Z" fill="black"/>
<path d="M15.6608 136.01C16.4561 136.01 17.1008 135.365 17.1008 134.57C17.1008 133.775 16.4561 133.13 15.6608 133.13C14.8655 133.13 14.2208 133.775 14.2208 134.57C14.2208 135.365 14.8655 136.01 15.6608 136.01Z" fill="black"/>
<path d="M1.4408 136.01C2.23609 136.01 2.8808 135.365 2.8808 134.57C2.8808 133.775 2.23609 133.13 1.4408 133.13C0.645506 133.13 0.000795898 133.775 0.000795898 134.57C0.000795898 135.365 0.645506 136.01 1.4408 136.01Z" fill="black"/>
<path d="M44.1108 123.91C44.9061 123.91 45.5508 123.265 45.5508 122.47C45.5508 121.675 44.9061 121.03 44.1108 121.03C43.3155 121.03 42.6708 121.675 42.6708 122.47C42.6708 123.265 43.3155 123.91 44.1108 123.91Z" fill="black"/>
<path d="M28.4408 122.47C28.4388 122.184 28.5219 121.905 28.6793 121.666C28.8368 121.428 29.0616 121.242 29.3251 121.132C29.5886 121.021 29.879 120.992 30.1592 121.047C30.4395 121.103 30.697 121.24 30.899 121.442C31.101 121.644 31.2383 121.901 31.2936 122.182C31.3488 122.462 31.3195 122.752 31.2092 123.016C31.099 123.279 30.9129 123.504 30.6746 123.662C30.4362 123.819 30.1564 123.902 29.8708 123.9C29.4915 123.9 29.1278 123.749 28.8596 123.481C28.5914 123.213 28.4408 122.849 28.4408 122.47Z" fill="black"/>
<path d="M15.6608 123.91C16.4561 123.91 17.1008 123.265 17.1008 122.47C17.1008 121.675 16.4561 121.03 15.6608 121.03C14.8655 121.03 14.2208 121.675 14.2208 122.47C14.2208 123.265 14.8655 123.91 15.6608 123.91Z" fill="black"/>
<path d="M0.000797671 122.47C-0.00118309 122.185 0.0816009 121.905 0.238621 121.667C0.395641 121.429 0.619841 121.243 0.882786 121.133C1.14573 121.022 1.43556 120.992 1.71555 121.046C1.99554 121.101 2.25306 121.237 2.45545 121.438C2.65784 121.639 2.79598 121.896 2.85236 122.175C2.90874 122.455 2.88082 122.745 2.77213 123.009C2.66344 123.272 2.47887 123.498 2.24186 123.657C2.00484 123.815 1.72603 123.9 1.4408 123.9C1.25217 123.901 1.06513 123.865 0.890477 123.794C0.715825 123.723 0.55701 123.618 0.423161 123.485C0.289312 123.352 0.183089 123.194 0.1106 123.02C0.0381112 122.845 0.000793058 122.659 0.000797671 122.47Z" fill="black"/>
<path d="M42.6708 110.38C42.6708 110.095 42.7553 109.817 42.9135 109.58C43.0717 109.343 43.2966 109.159 43.5597 109.05C43.8228 108.941 44.1124 108.912 44.3917 108.968C44.6711 109.023 44.9276 109.16 45.129 109.362C45.3304 109.563 45.4676 109.82 45.5231 110.099C45.5787 110.378 45.5502 110.668 45.4412 110.931C45.3322 111.194 45.1476 111.419 44.9108 111.577C44.674 111.736 44.3956 111.82 44.1108 111.82C43.7289 111.82 43.3626 111.668 43.0926 111.398C42.8225 111.128 42.6708 110.762 42.6708 110.38Z" fill="black"/>
<path d="M28.4408 110.38C28.4408 110.095 28.5255 109.816 28.6842 109.579C28.8429 109.342 29.0684 109.157 29.3321 109.049C29.5958 108.94 29.8858 108.912 30.1654 108.968C30.445 109.025 30.7016 109.163 30.9026 109.365C31.1035 109.568 31.2399 109.825 31.2943 110.105C31.3488 110.385 31.3188 110.675 31.2083 110.938C31.0978 111.201 30.9116 111.425 30.6735 111.582C30.4354 111.739 30.156 111.822 29.8708 111.82C29.6822 111.82 29.4954 111.783 29.3212 111.71C29.1471 111.638 28.989 111.532 28.8561 111.398C28.7232 111.264 28.618 111.105 28.5468 110.93C28.4755 110.756 28.4395 110.569 28.4408 110.38Z" fill="black"/>
<path d="M14.2208 110.38C14.2208 110.095 14.3052 109.817 14.4635 109.58C14.6217 109.343 14.8466 109.159 15.1097 109.05C15.3729 108.941 15.6624 108.912 15.9417 108.968C16.221 109.023 16.4776 109.16 16.679 109.362C16.8804 109.563 17.0176 109.82 17.0731 110.099C17.1287 110.378 17.1002 110.668 16.9912 110.931C16.8822 111.194 16.6976 111.419 16.4608 111.577C16.224 111.736 15.9456 111.82 15.6608 111.82C15.2789 111.82 14.9126 111.668 14.6425 111.398C14.3725 111.128 14.2208 110.762 14.2208 110.38Z" fill="black"/>
<path d="M0.000779807 110.38C-0.00318757 110.094 0.0778918 109.814 0.23369 109.575C0.389488 109.335 0.612967 109.148 0.875719 109.035C1.13847 108.923 1.42861 108.892 1.70925 108.945C1.98988 108.999 2.24834 109.134 2.45174 109.335C2.65513 109.535 2.79428 109.792 2.85149 110.072C2.90869 110.352 2.88134 110.642 2.77297 110.906C2.66459 111.171 2.48007 111.397 2.24285 111.556C2.00562 111.715 1.72643 111.8 1.44078 111.8C1.25299 111.801 1.06678 111.766 0.892778 111.695C0.718778 111.624 0.5604 111.52 0.426683 111.388C0.292966 111.256 0.186527 111.1 0.113451 110.927C0.0403748 110.754 0.00208844 110.568 0.000779807 110.38Z" fill="black"/>
<path d="M44.1108 99.7C44.9061 99.7 45.5508 99.0553 45.5508 98.26C45.5508 97.4648 44.9061 96.82 44.1108 96.82C43.3155 96.82 42.6708 97.4648 42.6708 98.26C42.6708 99.0553 43.3155 99.7 44.1108 99.7Z" fill="black"/>
<path d="M29.8808 99.7C30.6761 99.7 31.3208 99.0553 31.3208 98.26C31.3208 97.4648 30.6761 96.82 29.8808 96.82C29.0855 96.82 28.4408 97.4648 28.4408 98.26C28.4408 99.0553 29.0855 99.7 29.8808 99.7Z" fill="black"/>
<path d="M15.6608 99.7C16.4561 99.7 17.1008 99.0553 17.1008 98.26C17.1008 97.4648 16.4561 96.82 15.6608 96.82C14.8655 96.82 14.2208 97.4648 14.2208 98.26C14.2208 99.0553 14.8655 99.7 15.6608 99.7Z" fill="black"/>
<path d="M0.000797671 98.26C-0.00118309 97.9748 0.0816009 97.6954 0.238621 97.4573C0.395641 97.2192 0.619841 97.0331 0.882786 96.9225C1.14573 96.812 1.43556 96.7821 1.71555 96.8365C1.99554 96.8909 2.25306 97.0273 2.45545 97.2283C2.65784 97.4292 2.79598 97.6858 2.85236 97.9654C2.90874 98.245 2.88082 98.535 2.77213 98.7988C2.66344 99.0625 2.47887 99.288 2.24186 99.4466C2.00484 99.6053 1.72603 99.69 1.4408 99.69C1.06061 99.69 0.695857 99.5397 0.426091 99.2718C0.156324 99.0039 0.00343785 98.6402 0.000797671 98.26Z" fill="black"/>
<path d="M44.1108 87.6C44.9061 87.6 45.5508 86.9553 45.5508 86.16C45.5508 85.3648 44.9061 84.72 44.1108 84.72C43.3155 84.72 42.6708 85.3648 42.6708 86.16C42.6708 86.9553 43.3155 87.6 44.1108 87.6Z" fill="black"/>
<path d="M29.8808 87.6C30.6761 87.6 31.3208 86.9553 31.3208 86.16C31.3208 85.3648 30.6761 84.72 29.8808 84.72C29.0855 84.72 28.4408 85.3648 28.4408 86.16C28.4408 86.9553 29.0855 87.6 29.8808 87.6Z" fill="black"/>
<path d="M15.6608 87.6C16.4561 87.6 17.1008 86.9553 17.1008 86.16C17.1008 85.3648 16.4561 84.72 15.6608 84.72C14.8655 84.72 14.2208 85.3648 14.2208 86.16C14.2208 86.9553 14.8655 87.6 15.6608 87.6Z" fill="black"/>
<path d="M0.000797671 86.16C-0.00118309 85.8748 0.0816009 85.5954 0.238621 85.3573C0.395641 85.1192 0.619841 84.9331 0.882786 84.8225C1.14573 84.712 1.43556 84.6821 1.71555 84.7365C1.99554 84.7909 2.25306 84.9273 2.45545 85.1283C2.65784 85.3292 2.79598 85.5858 2.85236 85.8654C2.90874 86.145 2.88082 86.4351 2.77213 86.6988C2.66344 86.9625 2.47887 87.188 2.24186 87.3466C2.00484 87.5053 1.72603 87.59 1.4408 87.59C1.25217 87.5914 1.06513 87.5553 0.890477 87.4841C0.715825 87.4128 0.55701 87.3077 0.423161 87.1748C0.289312 87.0418 0.183089 86.8837 0.1106 86.7096C0.0381112 86.5354 0.000793058 86.3487 0.000797671 86.16Z" fill="black"/>
<path d="M44.1108 75.49C44.9061 75.49 45.5508 74.8453 45.5508 74.05C45.5508 73.2548 44.9061 72.61 44.1108 72.61C43.3155 72.61 42.6708 73.2548 42.6708 74.05C42.6708 74.8453 43.3155 75.49 44.1108 75.49Z" fill="black"/>
<path d="M29.8808 75.49C30.6761 75.49 31.3208 74.8453 31.3208 74.05C31.3208 73.2548 30.6761 72.61 29.8808 72.61C29.0855 72.61 28.4408 73.2548 28.4408 74.05C28.4408 74.8453 29.0855 75.49 29.8808 75.49Z" fill="black"/>
<path d="M15.6608 75.49C16.4561 75.49 17.1008 74.8453 17.1008 74.05C17.1008 73.2548 16.4561 72.61 15.6608 72.61C14.8655 72.61 14.2208 73.2548 14.2208 74.05C14.2208 74.8453 14.8655 75.49 15.6608 75.49Z" fill="black"/>
<path d="M0.000798156 74.05C0.000798156 73.7652 0.0852447 73.4868 0.243474 73.25C0.401703 73.0132 0.626619 72.8286 0.889745 72.7197C1.15287 72.6107 1.44241 72.5821 1.72175 72.6377C2.00108 72.6933 2.25763 72.8304 2.45902 73.0318C2.66041 73.2332 2.79756 73.4898 2.85312 73.7691C2.90869 74.0484 2.88017 74.338 2.77118 74.6011C2.66219 74.8642 2.47763 75.0891 2.24082 75.2474C2.00401 75.4056 1.72561 75.49 1.4408 75.49C1.25133 75.4914 1.06347 75.455 0.888158 75.3831C0.712848 75.3112 0.553573 75.2052 0.419591 75.0712C0.285609 74.9373 0.179597 74.778 0.107701 74.6027C0.0358054 74.4274 -0.000531539 74.2395 0.000798156 74.05Z" fill="black"/>
<path d="M42.6708 61.95C42.6542 61.7515 42.679 61.5517 42.7436 61.3633C42.8082 61.1748 42.9111 61.0018 43.046 60.8552C43.1809 60.7086 43.3447 60.5916 43.5271 60.5115C43.7095 60.4315 43.9066 60.3901 44.1058 60.3901C44.305 60.3901 44.502 60.4315 44.6844 60.5115C44.8669 60.5916 45.0307 60.7086 45.1656 60.8552C45.3004 61.0018 45.4034 61.1748 45.468 61.3633C45.5326 61.5517 45.5574 61.7515 45.5408 61.95C45.5107 62.3099 45.3465 62.6454 45.0807 62.8899C44.8149 63.1344 44.467 63.2701 44.1058 63.2701C43.7446 63.2701 43.3966 63.1344 43.1309 62.8899C42.8651 62.6454 42.7009 62.3099 42.6708 61.95Z" fill="black"/>
<path d="M28.4408 61.95C28.4388 61.6648 28.5216 61.3854 28.6786 61.1473C28.8356 60.9092 29.0598 60.7231 29.3228 60.6125C29.5857 60.502 29.8756 60.4721 30.1556 60.5265C30.4355 60.5809 30.6931 60.7173 30.8955 60.9183C31.0978 61.1192 31.236 61.3758 31.2924 61.6554C31.3487 61.935 31.3208 62.2251 31.2121 62.4888C31.1034 62.7525 30.9189 62.978 30.6819 63.1366C30.4448 63.2953 30.166 63.38 29.8808 63.38C29.5006 63.38 29.1359 63.2297 28.8661 62.9618C28.5963 62.6939 28.4434 62.3302 28.4408 61.95Z" fill="black"/>
<path d="M14.2208 61.95C14.2188 61.6648 14.3016 61.3854 14.4586 61.1473C14.6156 60.9092 14.8398 60.7231 15.1028 60.6125C15.3657 60.502 15.6556 60.4721 15.9356 60.5265C16.2155 60.5809 16.4731 60.7173 16.6754 60.9183C16.8778 61.1192 17.016 61.3758 17.0724 61.6554C17.1287 61.935 17.1008 62.2251 16.9921 62.4888C16.8834 62.7525 16.6989 62.978 16.4619 63.1366C16.2248 63.2953 15.946 63.38 15.6608 63.38C15.2814 63.3775 14.9181 63.2263 14.6489 62.9589C14.3797 62.6916 14.226 62.3294 14.2208 61.95Z" fill="black"/>
<path d="M0.000797671 61.95C-0.00118309 61.6648 0.0816009 61.3854 0.238621 61.1473C0.395641 60.9092 0.619841 60.7231 0.882786 60.6125C1.14573 60.502 1.43556 60.4721 1.71555 60.5265C1.99554 60.5809 2.25306 60.7173 2.45545 60.9183C2.65784 61.1192 2.79598 61.3758 2.85236 61.6554C2.90874 61.935 2.88082 62.2251 2.77213 62.4888C2.66344 62.7525 2.47887 62.978 2.24186 63.1366C2.00484 63.2953 1.72603 63.38 1.4408 63.38C1.06061 63.38 0.695857 63.2297 0.426091 62.9618C0.156324 62.6939 0.00343785 62.3302 0.000797671 61.95Z" fill="black"/>
<path d="M42.6708 49.85C42.6668 49.6584 42.7011 49.4679 42.7717 49.2898C42.8423 49.1116 42.9477 48.9493 43.0818 48.8124C43.2159 48.6754 43.376 48.5667 43.5527 48.4924C43.7294 48.4182 43.9192 48.38 44.1108 48.38C44.2994 48.38 44.4862 48.4174 44.6603 48.4898C44.8345 48.5623 44.9926 48.6686 45.1255 48.8024C45.2584 48.9363 45.3635 49.0951 45.4348 49.2697C45.5061 49.4444 45.5421 49.6314 45.5408 49.82C45.5408 50.1993 45.3901 50.563 45.122 50.8312C44.8538 51.0994 44.4901 51.25 44.1108 51.25C43.7357 51.2502 43.3754 51.104 43.1065 50.8425C42.8375 50.5811 42.6812 50.225 42.6708 49.85Z" fill="black"/>
<path d="M29.8808 51.29C30.6761 51.29 31.3208 50.6453 31.3208 49.85C31.3208 49.0547 30.6761 48.41 29.8808 48.41C29.0855 48.41 28.4408 49.0547 28.4408 49.85C28.4408 50.6453 29.0855 51.29 29.8808 51.29Z" fill="black"/>
<path d="M15.6608 51.29C16.4561 51.29 17.1008 50.6453 17.1008 49.85C17.1008 49.0547 16.4561 48.41 15.6608 48.41C14.8655 48.41 14.2208 49.0547 14.2208 49.85C14.2208 50.6453 14.8655 51.29 15.6608 51.29Z" fill="black"/>
<path d="M0.000804803 49.85C-0.00457244 49.6581 0.0287759 49.467 0.0988578 49.2882C0.16894 49.1094 0.274311 48.9465 0.408703 48.8093C0.543095 48.6721 0.703762 48.5634 0.881084 48.4896C1.05841 48.4159 1.24876 48.3786 1.44081 48.38C1.62944 48.38 1.81622 48.4173 1.99037 48.4898C2.16452 48.5623 2.3226 48.6686 2.45552 48.8024C2.58844 48.9363 2.69357 49.0951 2.76484 49.2697C2.83612 49.4444 2.87212 49.6314 2.8708 49.82C2.87479 50.0103 2.84078 50.1995 2.7707 50.3765C2.70063 50.5535 2.59591 50.7147 2.46272 50.8506C2.32953 50.9866 2.17055 51.0947 1.99507 51.1684C1.81959 51.2421 1.63115 51.2801 1.44081 51.28C1.25218 51.2814 1.06514 51.2453 0.890484 51.1741C0.715832 51.1028 0.557017 50.9977 0.423168 50.8647C0.289319 50.7318 0.183096 50.5737 0.110607 50.3996C0.0381183 50.2254 0.00080019 50.0387 0.000804803 49.85Z" fill="black"/>
<path d="M42.6708 37.74C42.6734 37.3599 42.8263 36.9962 43.0961 36.7283C43.3658 36.4604 43.7306 36.31 44.1108 36.31C44.4901 36.31 44.8538 36.4607 45.1219 36.7289C45.3901 36.9971 45.5408 37.3608 45.5408 37.74C45.5421 37.9287 45.5061 38.1157 45.4348 38.2903C45.3635 38.465 45.2584 38.6238 45.1255 38.7577C44.9926 38.8915 44.8345 38.9977 44.6603 39.0702C44.4862 39.1427 44.2994 39.18 44.1108 39.18C43.7289 39.18 43.3626 39.0283 43.0926 38.7583C42.8225 38.4882 42.6708 38.1219 42.6708 37.74Z" fill="black"/>
<path d="M29.8808 39.18C30.6761 39.18 31.3208 38.5353 31.3208 37.74C31.3208 36.9447 30.6761 36.3 29.8808 36.3C29.0855 36.3 28.4408 36.9447 28.4408 37.74C28.4408 38.5353 29.0855 39.18 29.8808 39.18Z" fill="black"/>
<path d="M15.6608 39.18C16.4561 39.18 17.1008 38.5353 17.1008 37.74C17.1008 36.9447 16.4561 36.3 15.6608 36.3C14.8655 36.3 14.2208 36.9447 14.2208 37.74C14.2208 38.5353 14.8655 39.18 15.6608 39.18Z" fill="black"/>
<path d="M0.000798156 37.74C0.000793544 37.5514 0.0381117 37.3646 0.1106 37.1905C0.183089 37.0163 0.289313 36.8582 0.423161 36.7253C0.55701 36.5924 0.715826 36.4873 0.890477 36.416C1.06513 36.3447 1.25217 36.3087 1.4408 36.31C1.82006 36.31 2.18379 36.4607 2.45197 36.7289C2.72015 36.9971 2.87079 37.3608 2.87079 37.74C2.87211 37.9287 2.83611 38.1157 2.76484 38.2903C2.69356 38.465 2.58843 38.6238 2.45551 38.7577C2.32259 38.8915 2.16451 38.9977 1.99036 39.0702C1.81621 39.1427 1.62944 39.18 1.4408 39.18C1.25133 39.1814 1.06347 39.145 0.888158 39.0731C0.712848 39.0012 0.553573 38.8952 0.419591 38.7612C0.285609 38.6273 0.179597 38.468 0.107701 38.2927C0.0358054 38.1174 -0.000531539 37.9295 0.000798156 37.74Z" fill="black"/>
<path d="M42.6708 25.64C42.6734 25.2589 42.826 24.8942 43.0955 24.6247C43.3649 24.3552 43.7297 24.2027 44.1108 24.2C44.491 24.2027 44.8547 24.3556 45.1226 24.6253C45.3905 24.8951 45.5408 25.2598 45.5408 25.64C45.5408 26.0202 45.3905 26.385 45.1226 26.6548C44.8547 26.9245 44.491 27.0774 44.1108 27.08C43.7297 27.0774 43.3649 26.9249 43.0955 26.6554C42.826 26.3859 42.6734 26.0211 42.6708 25.64Z" fill="black"/>
<path d="M29.8808 27.08C30.6761 27.08 31.3208 26.4353 31.3208 25.64C31.3208 24.8447 30.6761 24.2 29.8808 24.2C29.0855 24.2 28.4408 24.8447 28.4408 25.64C28.4408 26.4353 29.0855 27.08 29.8808 27.08Z" fill="black"/>
<path d="M15.6608 27.08C16.4561 27.08 17.1008 26.4353 17.1008 25.64C17.1008 24.8447 16.4561 24.2 15.6608 24.2C14.8655 24.2 14.2208 24.8447 14.2208 25.64C14.2208 26.4353 14.8655 27.08 15.6608 27.08Z" fill="black"/>
<path d="M0.000793457 25.64C0.000793457 25.2581 0.152525 24.8919 0.422577 24.6218C0.692629 24.3518 1.05888 24.2 1.4408 24.2C1.82097 24.2027 2.18468 24.3556 2.45258 24.6253C2.72047 24.8951 2.8708 25.2598 2.87079 25.64C2.8708 26.0202 2.72047 26.385 2.45258 26.6548C2.18468 26.9245 1.82097 27.0774 1.4408 27.08C1.05888 27.08 0.692629 26.9283 0.422577 26.6583C0.152525 26.3882 0.000793457 26.0219 0.000793457 25.64Z" fill="black"/>
<path d="M42.6708 13.54C42.6708 13.1581 42.8225 12.7919 43.0926 12.5218C43.3626 12.2517 43.7289 12.1 44.1108 12.1C44.2994 12.1 44.4862 12.1373 44.6603 12.2098C44.8345 12.2823 44.9926 12.3886 45.1255 12.5224C45.2584 12.6563 45.3635 12.8151 45.4348 12.9897C45.5061 13.1644 45.5421 13.3514 45.5408 13.54C45.5408 13.9193 45.3901 14.283 45.1219 14.5512C44.8538 14.8194 44.4901 14.97 44.1108 14.97C43.7306 14.97 43.3658 14.8197 43.0961 14.5518C42.8263 14.2839 42.6734 13.9202 42.6708 13.54Z" fill="black"/>
<path d="M28.4408 13.54C28.4395 13.3514 28.4755 13.1644 28.5468 12.9897C28.618 12.8151 28.7232 12.6563 28.8561 12.5224C28.989 12.3886 29.1471 12.2823 29.3212 12.2098C29.4954 12.1373 29.6822 12.1 29.8708 12.1C30.0603 12.0987 30.2481 12.135 30.4234 12.2069C30.5987 12.2788 30.758 12.3849 30.892 12.5188C31.026 12.6528 31.132 12.8121 31.2039 12.9874C31.2758 13.1627 31.3121 13.3506 31.3108 13.54C31.3108 13.7287 31.2735 13.9154 31.201 14.0896C31.1285 14.2637 31.0223 14.4218 30.8884 14.5547C30.7546 14.6877 30.5958 14.7928 30.4211 14.8641C30.2465 14.9353 30.0594 14.9714 29.8708 14.97C29.4915 14.97 29.1278 14.8194 28.8596 14.5512C28.5914 14.283 28.4408 13.9193 28.4408 13.54Z" fill="black"/>
<path d="M14.2208 13.54C14.2208 13.1581 14.3725 12.7919 14.6425 12.5218C14.9126 12.2517 15.2789 12.1 15.6608 12.1C16.0427 12.1 16.409 12.2517 16.679 12.5218C16.9491 12.7919 17.1008 13.1581 17.1008 13.54C17.0982 13.9202 16.9453 14.2839 16.6755 14.5518C16.4057 14.8197 16.041 14.97 15.6608 14.97C15.2806 14.97 14.9159 14.8197 14.6461 14.5518C14.3763 14.2839 14.2234 13.9202 14.2208 13.54Z" fill="black"/>
<path d="M0.000798156 13.54C-0.000531539 13.3506 0.0358054 13.1627 0.107701 12.9874C0.179597 12.8121 0.285609 12.6528 0.419591 12.5188C0.553573 12.3849 0.712848 12.2788 0.888158 12.2069C1.06347 12.135 1.25133 12.0987 1.4408 12.1C1.62944 12.1 1.81621 12.1373 1.99036 12.2098C2.16451 12.2823 2.32259 12.3886 2.45551 12.5224C2.58843 12.6563 2.69356 12.8151 2.76484 12.9897C2.83611 13.1644 2.87211 13.3514 2.87079 13.54C2.87079 13.9193 2.72015 14.283 2.45197 14.5512C2.18379 14.8194 1.82006 14.97 1.4408 14.97C1.25217 14.9714 1.06513 14.9353 0.890477 14.8641C0.715826 14.7928 0.55701 14.6877 0.423161 14.5547C0.289313 14.4218 0.183089 14.2637 0.1106 14.0896C0.0381117 13.9154 0.000793544 13.7287 0.000798156 13.54Z" fill="black"/>
<path d="M42.6708 1.43003C42.6734 1.04986 42.8263 0.686152 43.0961 0.418259C43.3658 0.150365 43.7306 2.51653e-05 44.1108 3.43327e-05C44.4901 3.43327e-05 44.8538 0.150696 45.1219 0.418873C45.3901 0.68705 45.5408 1.05078 45.5408 1.43003C45.5421 1.61866 45.5061 1.80569 45.4348 1.98034C45.3635 2.15499 45.2584 2.31382 45.1255 2.44767C44.9926 2.58152 44.8345 2.68775 44.6603 2.76023C44.4862 2.83272 44.2994 2.87004 44.1108 2.87004C43.7289 2.87004 43.3626 2.71832 43.0926 2.44827C42.8225 2.17822 42.6708 1.81195 42.6708 1.43003Z" fill="black"/>
<path d="M29.8808 2.88004C30.6761 2.88004 31.3208 2.23533 31.3208 1.44004C31.3208 0.644745 30.6761 3.54004e-05 29.8808 3.54004e-05C29.0855 3.54004e-05 28.4408 0.644745 28.4408 1.44004C28.4408 2.23533 29.0855 2.88004 29.8808 2.88004Z" fill="black"/>
<path d="M14.2208 1.43003C14.2234 1.04986 14.3763 0.686152 14.6461 0.418259C14.9159 0.150365 15.2806 2.51653e-05 15.6608 3.43327e-05C16.041 2.51653e-05 16.4057 0.150365 16.6755 0.418259C16.9453 0.686152 17.0982 1.04986 17.1008 1.43003C17.1008 1.81195 16.9491 2.17822 16.679 2.44827C16.409 2.71832 16.0427 2.87004 15.6608 2.87004C15.2789 2.87004 14.9126 2.71832 14.6425 2.44827C14.3725 2.17822 14.2208 1.81195 14.2208 1.43003Z" fill="black"/>
<path d="M0.000798156 1.43004C0.000793544 1.2414 0.0381117 1.05463 0.1106 0.880479C0.183089 0.706328 0.289313 0.548241 0.423161 0.415322C0.55701 0.282403 0.715826 0.177277 0.890477 0.106003C1.06513 0.03473 1.25217 -0.00128416 1.4408 3.49686e-05C1.82006 3.49686e-05 2.18379 0.150696 2.45197 0.418873C2.72015 0.68705 2.87079 1.05078 2.87079 1.43004C2.87211 1.61867 2.83611 1.80569 2.76484 1.98034C2.69356 2.15499 2.58843 2.31382 2.45551 2.44767C2.32259 2.58152 2.16451 2.68775 1.99036 2.76024C1.81621 2.83272 1.62944 2.87004 1.4408 2.87004C1.25133 2.87137 1.06347 2.83503 0.888158 2.76313C0.712848 2.69124 0.553573 2.58522 0.419591 2.45123C0.285609 2.31725 0.179597 2.15798 0.107701 1.98267C0.0358054 1.80736 -0.000531539 1.61951 0.000798156 1.43004Z" fill="black"/>
<g clip-path="url(#clip0_224_706)">
<path d="M60.7093 149.987L78.9937 132.759L57.2483 109.694L78.9937 86.6297L60.7093 69.4017L39.9969 91.3794L19.2844 69.4017L1 86.6297L22.732 109.694L1 132.759L19.2844 149.987L39.9969 128.009L60.7093 149.987Z" fill="#FEF502"/>
<path d="M90.0474 83.6376L74.3655 67.9526L50.9164 91.3928L27.4807 67.9526L11.7854 83.6376L35.2345 107.091L11.7854 130.531L27.4807 146.23L50.9164 122.776L74.3655 146.23L90.0474 130.531L66.6118 107.091L90.0474 83.6376Z" stroke="black" stroke-miterlimit="10"/>
</g>
<defs>
<clipPath id="clip0_224_706">
<rect width="90" height="83" fill="white" transform="translate(1 67)"/>
</clipPath>
</defs>
</svg>
