<svg width="168" height="253" viewBox="0 0 168 253" fill="none" xmlns="http://www.w3.org/2000/svg">
<path d="M-67.9541 63.017C-67.5131 62.2576 -67.0637 61.5022 -66.606 60.7508L8.97442 4.32656C9.82488 4.1013 10.6769 3.88518 11.5303 3.67821L-67.9541 63.017Z" fill="#1D1D1D"/>
<path d="M-77.124 82.4602C-76.9059 81.8727 -76.6834 81.2867 -76.4565 80.7022L30.9028 0.553499C31.5277 0.502106 32.1528 0.455361 32.778 0.413288L-77.124 82.4602Z" fill="#1D1D1D"/>
<path d="M-81.932 98.6471C-81.8171 98.1384 -81.699 97.6303 -81.5778 97.123L48.1019 0.310997C48.6228 0.339032 49.1435 0.370274 49.6638 0.404724L-81.932 98.6471Z" fill="#1D1D1D"/>
<path d="M-84.3225 113.029C-84.2731 112.57 -84.2212 112.112 -84.1667 111.653L62.7686 1.9591C63.2236 2.0372 63.6781 2.11779 64.1322 2.20086L-84.3225 113.029Z" fill="#1D1D1D"/>
<path d="M-85.0517 126.171C-85.0502 125.748 -85.0466 125.326 -85.0409 124.903L75.7206 4.88729C76.1274 5.00192 76.5336 5.11859 76.9392 5.23731L-85.0517 126.171Z" fill="#1D1D1D"/>
<path d="M-84.506 138.361C-84.5428 137.967 -84.5777 137.573 -84.6107 137.18L87.3683 8.78927C87.7366 8.93291 88.1043 9.07831 88.4714 9.22549L-84.506 138.361Z" fill="#1D1D1D"/>
<path d="M-82.9126 149.769C-82.9816 149.4 -83.0489 149.03 -83.1145 148.66L97.9499 13.487C98.2859 13.6551 98.6212 13.8247 98.9558 13.9958L-82.9126 149.769Z" fill="#1D1D1D"/>
<path d="M-80.4162 160.503C-80.5135 160.155 -80.6092 159.806 -80.7034 159.457L107.617 18.8678C107.924 19.0573 108.231 19.2481 108.537 19.4403L-80.4162 160.503Z" fill="#1D1D1D"/>
<path d="M-77.1136 170.635C-77.2366 170.306 -77.358 169.977 -77.4781 169.647L116.469 24.8565C116.751 25.0653 117.032 25.2753 117.312 25.4867L-77.1136 170.635Z" fill="#1D1D1D"/>
<path d="M-73.0716 180.215C-73.2184 179.904 -73.3637 179.592 -73.5077 179.28L124.577 31.4014C124.835 31.6281 125.092 31.856 125.348 32.085L-73.0716 180.215Z" fill="#1D1D1D"/>
<path d="M-68.3364 189.277C-68.5056 188.983 -68.6735 188.688 -68.8401 188.393L131.987 38.4668C132.222 38.7103 132.457 38.9551 132.691 39.2009L-68.3364 189.277Z" fill="#1D1D1D"/>
<path d="M-62.9394 197.845C-63.1302 197.568 -63.3199 197.289 -63.5082 197.01L138.733 46.0281C138.947 46.2879 139.16 46.5489 139.372 46.8108L-62.9394 197.845Z" fill="#1D1D1D"/>
<path d="M-56.9005 205.935C-57.1122 205.673 -57.323 205.411 -57.533 205.147L144.835 54.0697C145.028 54.3459 145.22 54.6227 145.411 54.9L-56.9005 205.935Z" fill="#1D1D1D"/>
<path d="M-50.2196 213.545C-50.4529 213.299 -50.6854 213.053 -50.9171 212.805L150.297 62.5896C150.469 62.882 150.639 63.1749 150.808 63.4683L-50.2196 213.545Z" fill="#1D1D1D"/>
<path d="M-42.8771 220.66C-43.1328 220.432 -43.3877 220.202 -43.6419 219.972L155.1 71.6016C155.249 71.9109 155.397 72.2206 155.543 72.5307L-42.8771 220.66Z" fill="#1D1D1D"/>
<path d="M-34.8412 227.259C-35.1206 227.048 -35.3993 226.836 -35.6772 226.623L159.213 81.1285C159.338 81.4555 159.462 81.7829 159.585 82.1106L-34.8412 227.259Z" fill="#1D1D1D"/>
<path d="M-26.0659 233.305C-26.3708 233.114 -26.675 232.921 -26.9784 232.727L162.592 91.2033C162.692 91.5494 162.791 91.8959 162.887 92.2426L-26.0659 233.305Z" fill="#1D1D1D"/>
<path d="M-16.4845 238.75C-16.8175 238.579 -17.1498 238.407 -17.4814 238.234L165.173 101.874C165.245 102.241 165.315 102.609 165.384 102.976L-16.4845 238.75Z" fill="#1D1D1D"/>
<path d="M-6.00013 243.52C-6.36497 243.374 -6.72921 243.226 -7.09283 243.076L166.862 113.21C166.902 113.602 166.941 113.993 166.977 114.384L-6.00013 243.52Z" fill="#1D1D1D"/>
<path d="M5.53204 247.508C5.12951 247.39 4.72754 247.27 4.3261 247.149L167.521 125.316C167.524 125.736 167.524 126.155 167.523 126.574L5.53204 247.508Z" fill="#1D1D1D"/>
<path d="M18.339 250.545C17.8895 250.462 17.4404 250.378 16.9918 250.291L166.933 138.352C166.889 138.807 166.843 139.262 166.794 139.716L18.339 250.545Z" fill="#1D1D1D"/>
<path d="M32.8074 252.341C32.2944 252.307 31.7815 252.27 31.269 252.229L164.734 152.592C164.627 153.095 164.517 153.597 164.403 154.098L32.8074 252.341Z" fill="#1D1D1D"/>
<path d="M49.6933 252.332C49.0817 252.373 48.4701 252.41 47.8583 252.442L160.222 168.557C160.018 169.135 159.809 169.711 159.595 170.285L49.6933 252.332Z" fill="#1D1D1D"/>
<path d="M70.9409 249.067C70.1261 249.265 69.3101 249.454 68.4928 249.635L151.666 187.543C151.26 188.275 150.846 189.003 150.425 189.728L70.9409 249.067Z" fill="#1D1D1D"/>
<path d="M128.985 217.073C125.17 220.752 121.081 224.233 116.722 227.487C112.363 230.741 107.864 233.672 103.252 236.283L128.985 217.073Z" fill="#1D1D1D"/>
</svg>
