<svg width="165" height="205" viewBox="0 0 165 205" fill="none" xmlns="http://www.w3.org/2000/svg">
<path d="M14.3938 51.1073C14.752 50.4905 15.117 49.877 15.4888 49.2667L76.8754 3.43875C77.5662 3.25579 78.2582 3.08026 78.9513 2.91215L14.3938 51.1073Z" fill="#A4A4A4"/>
<path d="M6.94606 66.8991C7.12317 66.422 7.30387 65.946 7.48817 65.4712L94.6857 0.374261C95.1933 0.332513 95.701 0.294553 96.2088 0.260379L6.94606 66.8991Z" fill="#A4A4A4"/>
<path d="M3.04101 80.0461C3.13432 79.633 3.23019 79.2203 3.32861 78.8082L108.655 0.177298C109.078 0.200065 109.501 0.225441 109.923 0.253419L3.04101 80.0461Z" fill="#A4A4A4"/>
<path d="M1.09937 91.7273C1.13953 91.3546 1.18171 90.982 1.22593 90.6097L120.567 1.51589C120.937 1.57933 121.306 1.64478 121.675 1.71225L1.09937 91.7273Z" fill="#A4A4A4"/>
<path d="M0.507143 102.401C0.508348 102.058 0.51127 101.715 0.515909 101.371L131.087 3.89418C131.417 3.98728 131.747 4.08204 132.077 4.17846L0.507143 102.401Z" fill="#A4A4A4"/>
<path d="M0.950331 112.302C0.920486 111.982 0.892153 111.662 0.865327 111.342L140.547 7.06337C140.846 7.18004 141.145 7.29814 141.443 7.41767L0.950331 112.302Z" fill="#A4A4A4"/>
<path d="M2.2445 121.568C2.18848 121.267 2.13381 120.967 2.08051 120.667L149.142 10.8789C149.414 11.0154 149.687 11.1532 149.959 11.2922L2.2445 121.568Z" fill="#A4A4A4"/>
<path d="M4.27212 130.286C4.1931 130.003 4.11533 129.72 4.03882 129.437L156.993 15.2492C157.243 15.4031 157.492 15.5581 157.741 15.7142L4.27212 130.286Z" fill="#A4A4A4"/>
<path d="M6.95446 138.515C6.85461 138.248 6.75595 137.98 6.65845 137.713L164.183 20.1132C164.412 20.2828 164.64 20.4534 164.868 20.6251L6.95446 138.515Z" fill="#A4A4A4"/>
<path d="M10.2374 146.296C10.1182 146.043 10.0002 145.79 9.88323 145.537L170.768 25.429C170.977 25.6131 171.186 25.7982 171.395 25.9842L10.2374 146.296Z" fill="#A4A4A4"/>
<path d="M14.0834 153.656C13.9459 153.417 13.8095 153.178 13.6742 152.938L176.786 31.1675C176.978 31.3654 177.168 31.5641 177.358 31.7638L14.0834 153.656Z" fill="#A4A4A4"/>
<path d="M18.4668 160.615C18.3118 160.39 18.1578 160.164 18.0048 159.937L182.266 37.3089C182.439 37.5199 182.612 37.7318 182.784 37.9446L18.4668 160.615Z" fill="#A4A4A4"/>
<path d="M23.3717 167.185C23.1997 166.973 23.0285 166.76 22.8579 166.546L187.222 43.8403C187.379 44.0646 187.535 44.2894 187.689 44.5146L23.3717 167.185Z" fill="#A4A4A4"/>
<path d="M28.7978 173.366C28.6083 173.167 28.4195 172.967 28.2314 172.766L191.658 50.7601C191.798 50.9977 191.936 51.2356 192.073 51.4739L28.7978 173.366Z" fill="#A4A4A4"/>
<path d="M34.7615 179.146C34.5538 178.96 34.3467 178.774 34.1403 178.586L195.559 58.0798C195.68 58.331 195.8 58.5825 195.919 58.8344L34.7615 179.146Z" fill="#A4A4A4"/>
<path d="M41.2882 184.505C41.0613 184.334 40.835 184.162 40.6093 183.989L198.9 65.8175C199.002 66.0831 199.102 66.349 199.202 66.6152L41.2882 184.505Z" fill="#A4A4A4"/>
<path d="M48.4155 189.416C48.1679 189.26 47.9209 189.104 47.6744 188.946L201.644 74.0003C201.725 74.2814 201.805 74.5628 201.884 74.8444L48.4155 189.416Z" fill="#A4A4A4"/>
<path d="M56.1976 193.838C55.9272 193.699 55.6573 193.56 55.3879 193.419L203.74 82.6671C203.799 82.9654 203.856 83.2638 203.912 83.5624L56.1976 193.838Z" fill="#A4A4A4"/>
<path d="M64.7131 197.712C64.4167 197.594 64.1209 197.473 63.8256 197.352L205.112 91.8746C205.145 92.1923 205.176 92.5101 205.206 92.828L64.7131 197.712Z" fill="#A4A4A4"/>
<path d="M74.0795 200.952C73.7526 200.856 73.4261 200.759 73.1 200.66L205.648 101.707C205.65 102.047 205.65 102.388 205.649 102.729L74.0795 200.952Z" fill="#A4A4A4"/>
<path d="M84.4814 203.418C84.1163 203.351 83.7515 203.282 83.3872 203.211L205.17 112.295C205.134 112.664 205.097 113.034 205.057 113.403L84.4814 203.418Z" fill="#A4A4A4"/>
<path d="M96.2327 204.877C95.816 204.849 95.3994 204.819 94.9831 204.786L203.384 123.86C203.297 124.269 203.207 124.676 203.115 125.084L96.2327 204.877Z" fill="#A4A4A4"/>
<path d="M109.947 204.87C109.451 204.903 108.954 204.933 108.457 204.959L199.719 136.827C199.553 137.296 199.383 137.764 199.21 138.231L109.947 204.87Z" fill="#A4A4A4"/>
<path d="M127.205 202.218C126.543 202.378 125.88 202.532 125.216 202.679L192.77 152.247C192.44 152.842 192.104 153.434 191.762 154.023L127.205 202.218Z" fill="#A4A4A4"/>
<path d="M174.348 176.232C171.249 179.22 167.928 182.047 164.388 184.69C160.848 187.333 157.194 189.713 153.448 191.835L174.348 176.232Z" fill="#A4A4A4"/>
</svg>
