<svg width="118" height="174" viewBox="0 0 118 174" fill="none" xmlns="http://www.w3.org/2000/svg">
<path d="M13.7831 8.94059L11.371 0L8.95882 8.94059L0 11.3478L8.95882 13.7551L11.371 22.6957L13.7831 13.7551L22.7419 11.3478L13.7831 8.94059Z" fill="#A4A4A4"/>
<path d="M44.1057 8.94059L41.6935 0L39.2814 8.94059L30.3226 11.3478L39.2814 13.7551L41.6935 22.6957L44.1057 13.7551L53.0645 11.3478L44.1057 8.94059Z" fill="#A4A4A4"/>
<path d="M72.0161 0L74.4283 8.94059L83.3871 11.3478L74.4283 13.7551L72.0161 22.6957L69.604 13.7551L60.6452 11.3478L69.604 8.94059L72.0161 0Z" fill="#A4A4A4"/>
<path d="M104.751 8.94059L102.339 0L99.9266 8.94059L90.9677 11.3478L99.9266 13.7551L102.339 22.6957L104.751 13.7551L113.71 11.3478L104.751 8.94059Z" fill="#A4A4A4"/>
<path d="M132.661 0L135.073 8.94059L144.032 11.3478L135.073 13.7551L132.661 22.6957L130.249 13.7551L121.29 11.3478L130.249 8.94059L132.661 0Z" fill="#A4A4A4"/>
<path d="M165.396 8.94059L162.984 0L160.572 8.94059L151.613 11.3478L160.572 13.7551L162.984 22.6957L165.396 13.7551L174.355 11.3478L165.396 8.94059Z" fill="#A4A4A4"/>
<path d="M193.306 0L195.719 8.94059L204.677 11.3478L195.719 13.7551L193.306 22.6957L190.894 13.7551L181.935 11.3478L190.894 8.94059L193.306 0Z" fill="#A4A4A4"/>
<path d="M226.041 8.94059L223.629 0L221.217 8.94059L212.258 11.3478L221.217 13.7551L223.629 22.6957L226.041 13.7551L235 11.3478L226.041 8.94059Z" fill="#A4A4A4"/>
<path d="M11.371 30.2609L13.7831 39.2015L22.7419 41.6087L13.7831 44.0159L11.371 52.9565L8.95882 44.0159L0 41.6087L8.95882 39.2015L11.371 30.2609Z" fill="#A4A4A4"/>
<path d="M44.1057 39.2015L41.6935 30.2609L39.2814 39.2015L30.3226 41.6087L39.2814 44.0159L41.6935 52.9565L44.1057 44.0159L53.0645 41.6087L44.1057 39.2015Z" fill="#A4A4A4"/>
<path d="M72.0161 30.2609L74.4283 39.2015L83.3871 41.6087L74.4283 44.0159L72.0161 52.9565L69.604 44.0159L60.6452 41.6087L69.604 39.2015L72.0161 30.2609Z" fill="#A4A4A4"/>
<path d="M104.751 39.2015L102.339 30.2609L99.9266 39.2015L90.9677 41.6087L99.9266 44.0159L102.339 52.9565L104.751 44.0159L113.71 41.6087L104.751 39.2015Z" fill="#A4A4A4"/>
<path d="M132.661 30.2609L135.073 39.2015L144.032 41.6087L135.073 44.0159L132.661 52.9565L130.249 44.0159L121.29 41.6087L130.249 39.2015L132.661 30.2609Z" fill="#A4A4A4"/>
<path d="M165.396 39.2015L162.984 30.2609L160.572 39.2015L151.613 41.6087L160.572 44.0159L162.984 52.9565L165.396 44.0159L174.355 41.6087L165.396 39.2015Z" fill="#A4A4A4"/>
<path d="M193.306 30.2609L195.719 39.2015L204.677 41.6087L195.719 44.0159L193.306 52.9565L190.894 44.0159L181.935 41.6087L190.894 39.2015L193.306 30.2609Z" fill="#A4A4A4"/>
<path d="M226.041 39.2015L223.629 30.2609L221.217 39.2015L212.258 41.6087L221.217 44.0159L223.629 52.9565L226.041 44.0159L235 41.6087L226.041 39.2015Z" fill="#A4A4A4"/>
<path d="M11.371 60.5217L13.7831 69.4623L22.7419 71.8696L13.7831 74.2768L11.371 83.2174L8.95882 74.2768L0 71.8696L8.95882 69.4623L11.371 60.5217Z" fill="#A4A4A4"/>
<path d="M44.1057 69.4623L41.6935 60.5217L39.2814 69.4623L30.3226 71.8696L39.2814 74.2768L41.6935 83.2174L44.1057 74.2768L53.0645 71.8696L44.1057 69.4623Z" fill="#A4A4A4"/>
<path d="M72.0161 60.5217L74.4283 69.4623L83.3871 71.8696L74.4283 74.2768L72.0161 83.2174L69.604 74.2768L60.6452 71.8696L69.604 69.4623L72.0161 60.5217Z" fill="#A4A4A4"/>
<path d="M104.751 69.4623L102.339 60.5217L99.9266 69.4623L90.9677 71.8696L99.9266 74.2768L102.339 83.2174L104.751 74.2768L113.71 71.8696L104.751 69.4623Z" fill="#A4A4A4"/>
<path d="M132.661 60.5217L135.073 69.4623L144.032 71.8696L135.073 74.2768L132.661 83.2174L130.249 74.2768L121.29 71.8696L130.249 69.4623L132.661 60.5217Z" fill="#A4A4A4"/>
<path d="M165.396 69.4623L162.984 60.5217L160.572 69.4623L151.613 71.8696L160.572 74.2768L162.984 83.2174L165.396 74.2768L174.355 71.8696L165.396 69.4623Z" fill="#A4A4A4"/>
<path d="M193.306 60.5217L195.719 69.4623L204.677 71.8696L195.719 74.2768L193.306 83.2174L190.894 74.2768L181.935 71.8696L190.894 69.4623L193.306 60.5217Z" fill="#A4A4A4"/>
<path d="M226.041 69.4623L223.629 60.5217L221.217 69.4623L212.258 71.8696L221.217 74.2768L223.629 83.2174L226.041 74.2768L235 71.8696L226.041 69.4623Z" fill="#A4A4A4"/>
<path d="M11.371 90.7826L13.7831 99.7232L22.7419 102.13L13.7831 104.538L11.371 113.478L8.95882 104.538L0 102.13L8.95882 99.7232L11.371 90.7826Z" fill="#A4A4A4"/>
<path d="M44.1057 99.7232L41.6935 90.7826L39.2814 99.7232L30.3226 102.13L39.2814 104.538L41.6935 113.478L44.1057 104.538L53.0645 102.13L44.1057 99.7232Z" fill="#A4A4A4"/>
<path d="M72.0161 90.7826L74.4283 99.7232L83.3871 102.13L74.4283 104.538L72.0161 113.478L69.604 104.538L60.6452 102.13L69.604 99.7232L72.0161 90.7826Z" fill="#A4A4A4"/>
<path d="M104.751 99.7232L102.339 90.7826L99.9266 99.7232L90.9677 102.13L99.9266 104.538L102.339 113.478L104.751 104.538L113.71 102.13L104.751 99.7232Z" fill="#A4A4A4"/>
<path d="M132.661 90.7826L135.073 99.7232L144.032 102.13L135.073 104.538L132.661 113.478L130.249 104.538L121.29 102.13L130.249 99.7232L132.661 90.7826Z" fill="#A4A4A4"/>
<path d="M165.396 99.7232L162.984 90.7826L160.572 99.7232L151.613 102.13L160.572 104.538L162.984 113.478L165.396 104.538L174.355 102.13L165.396 99.7232Z" fill="#A4A4A4"/>
<path d="M193.306 90.7826L195.719 99.7232L204.677 102.13L195.719 104.538L193.306 113.478L190.894 104.538L181.935 102.13L190.894 99.7232L193.306 90.7826Z" fill="#A4A4A4"/>
<path d="M226.041 99.7232L223.629 90.7826L221.217 99.7232L212.258 102.13L221.217 104.538L223.629 113.478L226.041 104.538L235 102.13L226.041 99.7232Z" fill="#A4A4A4"/>
<path d="M11.371 121.043L13.7831 129.984L22.7419 132.391L13.7831 134.799L11.371 143.739L8.95882 134.799L0 132.391L8.95882 129.984L11.371 121.043Z" fill="#A4A4A4"/>
<path d="M44.1057 129.984L41.6935 121.043L39.2814 129.984L30.3226 132.391L39.2814 134.799L41.6935 143.739L44.1057 134.799L53.0645 132.391L44.1057 129.984Z" fill="#A4A4A4"/>
<path d="M72.0161 121.043L74.4283 129.984L83.3871 132.391L74.4283 134.799L72.0161 143.739L69.604 134.799L60.6452 132.391L69.604 129.984L72.0161 121.043Z" fill="#A4A4A4"/>
<path d="M104.751 129.984L102.339 121.043L99.9266 129.984L90.9677 132.391L99.9266 134.799L102.339 143.739L104.751 134.799L113.71 132.391L104.751 129.984Z" fill="#A4A4A4"/>
<path d="M132.661 121.043L135.073 129.984L144.032 132.391L135.073 134.799L132.661 143.739L130.249 134.799L121.29 132.391L130.249 129.984L132.661 121.043Z" fill="#A4A4A4"/>
<path d="M165.396 129.984L162.984 121.043L160.572 129.984L151.613 132.391L160.572 134.799L162.984 143.739L165.396 134.799L174.355 132.391L165.396 129.984Z" fill="#A4A4A4"/>
<path d="M193.306 121.043L195.719 129.984L204.677 132.391L195.719 134.799L193.306 143.739L190.894 134.799L181.935 132.391L190.894 129.984L193.306 121.043Z" fill="#A4A4A4"/>
<path d="M226.041 129.984L223.629 121.043L221.217 129.984L212.258 132.391L221.217 134.799L223.629 143.739L226.041 134.799L235 132.391L226.041 129.984Z" fill="#A4A4A4"/>
<path d="M11.371 151.304L13.7831 160.245L22.7419 162.652L13.7831 165.059L11.371 174L8.95882 165.059L0 162.652L8.95882 160.245L11.371 151.304Z" fill="#A4A4A4"/>
<path d="M44.1057 160.245L41.6935 151.304L39.2814 160.245L30.3226 162.652L39.2814 165.059L41.6935 174L44.1057 165.059L53.0645 162.652L44.1057 160.245Z" fill="#A4A4A4"/>
<path d="M72.0161 151.304L74.4283 160.245L83.3871 162.652L74.4283 165.059L72.0161 174L69.604 165.059L60.6452 162.652L69.604 160.245L72.0161 151.304Z" fill="#A4A4A4"/>
<path d="M104.751 160.245L102.339 151.304L99.9266 160.245L90.9677 162.652L99.9266 165.059L102.339 174L104.751 165.059L113.71 162.652L104.751 160.245Z" fill="#A4A4A4"/>
<path d="M132.661 151.304L135.073 160.245L144.032 162.652L135.073 165.059L132.661 174L130.249 165.059L121.29 162.652L130.249 160.245L132.661 151.304Z" fill="#A4A4A4"/>
<path d="M165.396 160.245L162.984 151.304L160.572 160.245L151.613 162.652L160.572 165.059L162.984 174L165.396 165.059L174.355 162.652L165.396 160.245Z" fill="#A4A4A4"/>
<path d="M193.306 151.304L195.719 160.245L204.677 162.652L195.719 165.059L193.306 174L190.894 165.059L181.935 162.652L190.894 160.245L193.306 151.304Z" fill="#A4A4A4"/>
<path d="M226.041 160.245L223.629 151.304L221.217 160.245L212.258 162.652L221.217 165.059L223.629 174L226.041 165.059L235 162.652L226.041 160.245Z" fill="#A4A4A4"/>
</svg>
