<svg width="249" height="249" viewBox="0 0 249 249" fill="none" xmlns="http://www.w3.org/2000/svg">
<path d="M0.00265472 124.5C-0.0181507 141.065 3.27683 157.466 9.69339 172.738C16.1099 188.01 25.5183 201.843 37.3641 213.422C39.3922 215.412 41.4873 217.329 43.6493 219.172C44.5105 219.909 45.3807 220.632 46.26 221.343C46.3523 221.419 46.4418 221.49 46.5314 221.56C49.6161 224.048 52.8194 226.386 56.1411 228.573C76.448 241.9 100.208 249 124.497 249C148.787 249 172.546 241.9 192.853 228.573C196.175 226.391 199.379 224.054 202.466 221.56C202.558 221.49 202.648 221.419 202.737 221.343C203.618 220.632 204.488 219.909 205.348 219.172C207.508 217.327 209.603 215.41 211.633 213.422C223.479 201.843 232.887 188.01 239.304 172.738C245.72 157.466 249.015 141.065 248.995 124.5C248.995 55.7395 193.255 -4.87291e-06 124.495 -1.08841e-05C55.7341 -1.68954e-05 0.00266073 55.7395 0.00265472 124.5Z" fill="#A5A5A5"/>
<path d="M46.5344 221.56C49.6191 224.048 52.8224 226.386 56.1441 228.573C76.451 241.9 100.211 249 124.5 249C148.79 249 172.549 241.9 192.856 228.573C196.178 226.391 199.382 224.053 202.469 221.56C201.521 212.624 198.104 204.127 192.602 197.022C187.1 189.916 179.729 184.482 171.314 181.328L143.128 170.76L143.128 160.412C145.152 159.134 147.068 157.693 148.857 156.103C172.323 159.56 185.681 147.082 185.681 147.082C185.681 147.082 176.674 136.33 176.663 107.46L176.663 88.7804C176.663 60.5022 152.941 36.6205 124.5 36.6205C96.0592 36.6205 72.3375 60.5022 72.3375 88.7804L72.3375 107.46C72.3375 136.321 63.3222 147.082 63.3222 147.082C63.3222 147.082 76.7638 159.62 100.23 156.165C101.995 157.726 103.882 159.144 105.872 160.404L105.872 170.76L77.6865 181.328C69.2723 184.483 61.9021 189.917 56.4004 197.023C50.8987 204.128 47.4826 212.624 46.5344 221.56Z" fill="#E1E1E1"/>
</svg>
